<?xml version="1.0" encoding="UTF-8" standalone="no"?>
<!DOCTYPE svg PUBLIC "-//W3C//DTD SVG 1.1//EN" "http://www.w3.org/Graphics/SVG/1.1/DTD/svg11.dtd">
<svg version="1.1" xmlns="http://www.w3.org/2000/svg" xmlns:xlink="http://www.w3.org/1999/xlink" preserveAspectRatio="xMidYMid meet" viewBox="143.0206468639053 43.010239999999996 361.40356659528635 321.65952"><defs><path d="M405.38 340.39L406.63 341.02L407.77 341.83L408.78 342.81L409.63 343.94L410.31 345.2L410.78 346.58L411.02 348.04L411.03 349.48L410.81 350.89L410.39 352.23L409.76 353.48L408.96 354.62L407.98 355.64L406.85 356.49L405.58 357.17L404.18 357.65L403.95 357.71L403.73 357.75L403.51 357.79L403.28 357.83L403.06 357.86L402.83 357.89L402.61 357.91L402.38 357.92L402.16 357.93L401.93 357.93L400.7 357.85L399.51 357.6L398.37 357.21L397.31 356.68L396.33 356.01L395.45 355.22L394.67 354.33L394.01 353.33L393.48 352.23L393.1 351.05L392.85 349.59L392.84 348.15L393.06 346.75L393.48 345.41L394.1 344.15L394.91 343.01L395.88 341.99L397.01 341.13L398.29 340.45L399.68 339.97L401.17 339.73L402.62 339.72L404.03 339.95L405.38 340.39ZM401.67 348.87L401.93 349.09L401.94 349.09L401.95 349.09L401.95 349.09L401.96 349.08L401.97 349.08L401.98 349.08L401.99 349.08L402 349.08L402.01 349.08L402.02 349.07L401.94 348.53L397.38 349.96L401.67 348.87Z" id="f1mPpoIPDH"></path><path d="M192.84 342.67L194.48 343.21L196.02 343.98L197.42 344.98L198.65 346.17L199.7 347.55L200.52 349.09L201.1 350.78L201.28 351.64L201.4 352.51L201.44 353.38L201.42 354.25L201.33 355.12L201.17 355.97L200.94 356.81L200.65 357.63L200.29 358.44L199.86 359.22L199.38 359.97L198.84 360.66L198.26 361.31L197.63 361.91L196.95 362.46L196.24 362.95L195.48 363.38L194.7 363.76L193.88 364.07L193.02 364.32L192.75 364.39L192.48 364.45L192.21 364.5L191.93 364.54L191.66 364.58L191.38 364.61L191.11 364.64L190.83 364.66L190.56 364.67L190.28 364.67L188.77 364.57L187.31 364.27L185.92 363.79L184.62 363.13L183.42 362.31L182.34 361.35L181.39 360.25L180.58 359.02L179.93 357.68L179.47 356.24L179.17 354.45L179.16 352.69L179.42 350.97L179.95 349.33L180.71 347.8L181.7 346.4L182.89 345.16L184.27 344.11L185.83 343.27L187.54 342.69L189.34 342.4L191.11 342.4L192.84 342.67ZM190.16 351.19L190.1 351.2L190.04 351.2L189.99 351.21L189.93 351.22L189.87 351.23L189.82 351.24L189.76 351.25L189.7 351.27L189.35 351.39L189.03 351.56L188.75 351.78L188.5 352.04L188.3 352.33L188.14 352.64L188.03 352.99L187.98 353.34L187.98 353.71L188.04 354.08L188.16 354.43L188.33 354.75L188.55 355.04L188.8 355.28L189.09 355.49L189.41 355.65L189.75 355.76L190.1 355.82L190.47 355.82L190.84 355.75L191.02 355.7L191.19 355.64L191.35 355.56L191.51 355.47L191.66 355.37L191.8 355.25L191.93 355.13L192.05 354.99L192.16 354.85L192.26 354.69L192.32 354.59L192.38 354.47L192.44 354.33L192.49 354.18L192.54 354L192.57 353.82L192.59 353.62L192.59 353.41L192.57 353.18L192.52 352.95L192.42 352.65L192.29 352.37L192.12 352.11L191.92 351.88L191.69 351.68L191.45 351.51L191.17 351.37L190.89 351.27L190.58 351.21L190.27 351.19L190.21 351.19L190.16 351.19Z" id="c3E6sIV3p5"></path><path d="M353.65 327.48L355.19 328.25L356.59 329.25L357.84 330.44L358.89 331.82L359.71 333.36L360.29 335.05L360.48 335.92L360.6 336.79L360.64 337.66L360.62 338.53L360.53 339.39L360.37 340.25L360.14 341.09L359.85 341.91L359.49 342.72L359.06 343.5L358.58 344.25L358.04 344.94L357.45 345.59L356.82 346.19L356.15 346.74L355.43 347.23L354.68 347.66L353.89 348.04L353.07 348.35L352.22 348.6L351.95 348.67L351.68 348.73L351.4 348.78L351.13 348.82L350.86 348.86L350.58 348.89L350.31 348.92L350.03 348.94L349.75 348.95L349.48 348.95L347.96 348.85L346.51 348.55L345.12 348.07L343.82 347.41L342.62 346.59L341.53 345.63L340.58 344.53L339.77 343.3L339.13 341.96L338.66 340.51L338.36 338.73L338.36 336.96L338.62 335.25L339.14 333.61L339.91 332.07L340.89 330.67L342.09 329.44L343.47 328.39L345.03 327.55L346.74 326.97L348.52 326.67L350.29 326.67L352.01 326.94L353.65 327.48ZM349.35 335.47L349.3 335.47L349.24 335.48L349.18 335.49L349.13 335.49L349.07 335.5L349.01 335.51L348.96 335.53L348.9 335.54L348.55 335.66L348.23 335.83L347.94 336.05L347.7 336.31L347.49 336.6L347.33 336.92L347.23 337.26L347.17 337.62L347.17 337.99L347.24 338.36L347.35 338.71L347.52 339.03L347.74 339.31L347.99 339.56L348.28 339.77L348.6 339.93L348.93 340.04L349.29 340.1L349.66 340.09L350.04 340.03L350.21 339.98L350.38 339.91L350.55 339.84L350.71 339.75L350.85 339.64L350.99 339.53L351.13 339.4L351.25 339.27L351.36 339.12L351.46 338.97L351.52 338.86L351.57 338.74L351.63 338.61L351.69 338.45L351.73 338.28L351.76 338.1L351.78 337.9L351.78 337.69L351.76 337.46L351.71 337.23L351.61 336.92L351.48 336.64L351.31 336.39L351.12 336.16L350.89 335.96L350.64 335.79L350.37 335.65L350.08 335.55L349.78 335.49L349.47 335.47L349.41 335.47L349.35 335.47Z" id="f5O0UqNLGy"></path><path d="M167.09 165.61L168.74 166.15L170.28 166.92L171.69 167.91L172.93 169.1L173.99 170.48L174.82 172.02L175.4 173.71L175.58 174.58L175.7 175.45L175.74 176.32L175.72 177.19L175.63 178.05L175.47 178.9L175.24 179.74L174.95 180.57L174.59 181.37L174.16 182.15L173.68 182.9L173.14 183.6L172.55 184.25L171.92 184.84L171.25 185.39L170.53 185.88L169.78 186.31L168.99 186.69L168.17 187L167.32 187.25L167.05 187.32L166.77 187.38L166.5 187.43L166.23 187.47L165.95 187.51L165.68 187.54L165.41 187.56L165.13 187.58L164.85 187.59L164.58 187.6L163.07 187.49L161.61 187.2L160.22 186.71L158.92 186.06L157.73 185.25L156.64 184.28L155.69 183.18L154.88 181.96L154.24 180.62L153.77 179.18L153.47 177.39L153.46 175.62L153.73 173.9L154.25 172.26L155.01 170.73L156 169.32L157.19 168.09L158.58 167.04L160.13 166.21L161.85 165.62L163.62 165.33L165.38 165.34L167.09 165.61ZM164.47 174.13L164.41 174.13L164.35 174.14L164.3 174.14L164.24 174.15L164.18 174.16L164.13 174.17L164.07 174.19L164.01 174.2L163.66 174.32L163.34 174.49L163.05 174.71L162.8 174.97L162.6 175.26L162.44 175.58L162.33 175.92L162.28 176.28L162.28 176.64L162.34 177.02L162.46 177.36L162.63 177.68L162.85 177.96L163.1 178.21L163.39 178.41L163.71 178.57L164.05 178.68L164.41 178.74L164.78 178.74L165.15 178.68L165.32 178.63L165.49 178.56L165.65 178.49L165.81 178.4L165.96 178.29L166.1 178.18L166.23 178.06L166.35 177.92L166.46 177.77L166.56 177.62L166.62 177.52L166.68 177.4L166.74 177.26L166.79 177.1L166.84 176.93L166.87 176.75L166.89 176.55L166.89 176.33L166.87 176.11L166.82 175.87L166.72 175.57L166.59 175.29L166.42 175.04L166.23 174.81L166 174.61L165.75 174.44L165.48 174.31L165.2 174.21L164.89 174.15L164.58 174.13L164.53 174.13L164.47 174.13Z" id="j19JriYkhx"></path><path d="M233.28 43.41L234.67 43.89L235.97 44.55L237.17 45.36L238.25 46.33L239.21 47.43L240.01 48.65L240.66 49.99L241.13 51.43L241.43 53.22L241.44 54.99L241.17 56.7L240.65 58.34L239.89 59.87L238.9 61.27L237.7 62.51L236.32 63.56L234.76 64.39L233.04 64.98L232.77 65.04L232.5 65.1L232.23 65.15L231.95 65.2L231.68 65.24L231.4 65.27L231.13 65.29L230.85 65.31L230.58 65.32L230.3 65.32L228.79 65.22L227.33 64.92L225.95 64.44L224.65 63.79L223.45 62.97L222.37 62.01L221.41 60.91L220.61 59.68L219.96 58.34L219.49 56.9L219.31 56.03L219.2 55.16L219.15 54.28L219.17 53.41L219.27 52.55L219.42 51.7L219.65 50.86L219.94 50.03L220.3 49.23L220.73 48.45L221.21 47.7L221.75 47L222.34 46.36L222.97 45.76L223.64 45.21L224.36 44.72L225.12 44.29L225.91 43.92L226.73 43.6L227.58 43.35L227.85 43.29L228.12 43.23L228.39 43.18L228.66 43.13L228.94 43.1L229.21 43.07L229.49 43.04L229.76 43.02L230.04 43.01L230.31 43.01L231.83 43.11L233.28 43.41ZM230.2 51.86L230.14 51.86L230.09 51.87L230.03 51.87L229.97 51.88L229.91 51.89L229.86 51.9L229.8 51.91L229.74 51.93L229.57 51.98L229.39 52.04L229.23 52.12L229.07 52.21L228.92 52.31L228.78 52.42L228.65 52.55L228.53 52.68L228.42 52.82L228.32 52.98L228.23 53.14L228.16 53.31L228.1 53.48L228.05 53.65L228.02 53.83L228 54.01L228 54.19L228.01 54.37L228.03 54.55L228.07 54.73L228.19 55.08L228.36 55.4L228.57 55.69L228.83 55.94L229.12 56.15L229.44 56.31L229.78 56.42L230.13 56.47L230.5 56.47L230.88 56.41L231.23 56.28L231.55 56.11L231.84 55.89L232.09 55.64L232.29 55.35L232.45 55.03L232.56 54.69L232.61 54.33L232.61 53.97L232.55 53.6L232.45 53.3L232.32 53.02L232.15 52.77L231.96 52.54L231.73 52.34L231.48 52.17L231.21 52.04L230.93 51.94L230.63 51.88L230.31 51.85L230.26 51.86L230.2 51.86Z" id="equSm9eIi"></path><path d="M481.72 227.4L483.36 227.93L484.9 228.7L486.31 229.69L487.55 230.88L488.6 232.26L489.44 233.8L490.02 235.49L490.32 237.28L490.33 239.04L490.07 240.76L489.54 242.4L488.78 243.94L487.79 245.34L486.6 246.58L485.21 247.63L483.65 248.46L481.94 249.04L481.67 249.11L481.4 249.17L481.12 249.22L480.85 249.26L480.58 249.3L480.3 249.33L480.03 249.35L479.75 249.37L479.48 249.38L479.2 249.38L477.69 249.28L476.23 248.98L474.85 248.5L473.55 247.85L472.35 247.04L471.26 246.07L470.31 244.97L469.5 243.75L468.85 242.41L468.38 240.97L468.08 239.18L468.07 237.42L468.33 235.7L468.86 234.06L469.62 232.52L470.61 231.12L471.8 229.88L473.18 228.83L474.74 228L476.46 227.41L478.24 227.12L480 227.12L481.72 227.4ZM479.09 235.92L479.03 235.92L478.97 235.93L478.91 235.94L478.86 235.94L478.8 235.95L478.74 235.96L478.69 235.98L478.63 235.99L478.27 236.11L477.95 236.28L477.66 236.5L477.42 236.76L477.21 237.05L477.05 237.37L476.94 237.71L476.89 238.06L476.89 238.43L476.95 238.8L477.07 239.15L477.24 239.47L477.46 239.75L477.72 239.99L478.01 240.2L478.33 240.36L478.67 240.47L479.03 240.53L479.4 240.53L479.76 240.47L480.12 240.35L480.45 240.18L480.73 239.96L480.98 239.7L481.19 239.41L481.35 239.1L481.45 238.76L481.51 238.4L481.51 238.04L481.45 237.66L481.35 237.37L481.21 237.09L481.05 236.84L480.85 236.61L480.62 236.41L480.37 236.24L480.1 236.1L479.81 236L479.51 235.94L479.2 235.92L479.14 235.92L479.09 235.92Z" id="c17BrkyqYu"></path><path d="M362.86 237.14L364.5 237.67L366.04 238.44L367.45 239.43L368.69 240.62L369.75 242L370.58 243.54L371.16 245.23L371.34 246.1L371.46 246.97L371.5 247.84L371.48 248.71L371.39 249.58L371.23 250.43L371.01 251.27L370.71 252.09L370.35 252.9L369.93 253.68L369.44 254.43L368.91 255.13L368.32 255.78L367.69 256.38L367.02 256.92L366.3 257.41L365.55 257.85L364.76 258.22L363.93 258.54L363.08 258.79L362.81 258.85L362.54 258.91L362.27 258.96L362 259.01L361.72 259.05L361.45 259.08L361.17 259.1L360.9 259.12L360.62 259.13L360.35 259.13L358.84 259.03L357.38 258.73L355.99 258.25L354.69 257.59L353.49 256.78L352.41 255.81L351.46 254.71L350.65 253.48L350 252.14L349.53 250.7L349.35 249.83L349.23 248.96L349.18 248.09L349.21 247.22L349.3 246.36L349.46 245.51L349.69 244.67L349.98 243.84L350.34 243.04L350.77 242.26L351.25 241.51L351.79 240.82L352.38 240.17L353.01 239.57L353.68 239.02L354.4 238.53L355.15 238.1L355.94 237.72L356.76 237.41L357.61 237.16L359.38 236.86L361.14 236.86L362.86 237.14ZM360.24 245.66L360.18 245.67L360.13 245.67L360.07 245.68L360.01 245.69L359.96 245.7L359.9 245.71L359.84 245.72L359.79 245.73L359.61 245.78L359.44 245.85L359.27 245.93L359.12 246.02L358.97 246.12L358.83 246.23L358.7 246.36L358.58 246.49L358.46 246.64L358.36 246.79L358.31 246.89L358.25 247.01L358.19 247.15L358.13 247.31L358.09 247.48L358.06 247.66L358.04 247.86L358.04 248.07L358.06 248.3L358.11 248.53L358.23 248.88L358.4 249.2L358.61 249.49L358.87 249.74L359.16 249.94L359.48 250.11L359.82 250.22L360.17 250.28L360.54 250.28L360.91 250.22L361.09 250.17L361.26 250.1L361.43 250.02L361.58 249.93L361.73 249.83L361.87 249.72L362 249.59L362.12 249.46L362.24 249.31L362.34 249.16L362.42 249L362.5 248.83L362.56 248.66L362.6 248.48L362.64 248.31L362.66 248.13L362.66 247.95L362.65 247.77L362.63 247.58L362.59 247.4L362.49 247.11L362.36 246.83L362.19 246.57L362 246.35L361.77 246.15L361.52 245.98L361.26 245.84L360.97 245.74L360.67 245.68L360.36 245.66L360.3 245.66L360.24 245.66Z" id="a5lyfUI4a"></path><path d="M452.2 302.39L452.77 302.5L453.33 302.66L453.87 302.86L454.39 303.1L454.89 303.38L455.37 303.7L455.82 304.07L456.25 304.47L456.65 304.9L457.01 305.35L457.33 305.83L457.6 306.34L457.84 306.86L458.04 307.39L458.19 307.95L458.3 308.51L458.36 309.09L458.38 309.67L458.42 310.2L458.52 310.62L458.65 310.95L458.83 311.2L459.04 311.37L459.27 311.49L459.53 311.57L459.79 311.6L460.06 311.62L460.33 311.62L460.92 311.65L461.49 311.71L462.06 311.83L462.61 311.99L463.15 312.18L463.67 312.43L464.17 312.71L464.64 313.03L465.1 313.39L465.53 313.79L465.92 314.22L466.28 314.68L466.6 315.16L466.88 315.66L467.11 316.18L467.31 316.72L467.46 317.27L467.58 317.84L467.64 318.42L467.66 319.01L467.56 320.19L467.28 321.32L466.83 322.37L466.23 323.33L465.5 324.19L464.64 324.92L463.67 325.52L462.62 325.96L461.49 326.24L460.3 326.34L459.76 326.37L459.34 326.46L459 326.61L458.75 326.79L458.58 327.01L458.45 327.25L458.38 327.51L458.34 327.77L458.33 328.03L458.32 328.29L458.22 329.47L457.94 330.6L457.49 331.65L456.89 332.61L456.16 333.46L455.3 334.19L454.34 334.79L453.29 335.23L452.17 335.51L450.99 335.61L450.97 335.61L450.96 335.61L450.96 335.61L450.95 335.61L450.95 335.6L450.94 335.6L450.37 335.58L449.8 335.52L449.24 335.4L448.69 335.25L448.15 335.05L447.64 334.81L447.14 334.53L446.66 334.21L446.21 333.85L445.78 333.46L445.38 333.03L445.02 332.57L444.7 332.1L444.42 331.6L444.18 331.08L443.98 330.54L443.83 329.99L443.72 329.43L443.65 328.85L443.63 328.27L443.59 327.73L443.5 327.3L443.36 326.96L443.18 326.71L442.98 326.53L442.74 326.41L442.49 326.34L442.23 326.3L441.95 326.28L441.68 326.28L441.1 326.26L440.53 326.19L439.97 326.08L439.42 325.92L438.88 325.72L438.36 325.48L437.86 325.2L437.38 324.88L436.93 324.52L436.5 324.12L436.1 323.69L435.74 323.23L435.42 322.75L435.14 322.25L434.9 321.73L434.71 321.2L434.55 320.64L434.44 320.08L434.37 319.5L434.35 318.91L434.45 317.72L434.73 316.6L435.17 315.55L435.77 314.58L436.5 313.73L437.36 312.99L438.32 312.39L439.38 311.94L440.51 311.66L441.7 311.56L442.23 311.53L442.66 311.44L443 311.3L443.25 311.12L443.43 310.91L443.55 310.67L443.62 310.42L443.66 310.15L443.67 309.88L443.68 309.62L443.78 308.43L444.06 307.31L444.51 306.26L445.11 305.3L445.84 304.44L446.7 303.71L447.66 303.11L448.71 302.67L449.84 302.39L451.03 302.29L451.62 302.32L452.2 302.39ZM450.46 316.28L450.14 316.68L449.81 317.06L449.45 317.42L449.09 317.75L448.7 318.07L448.31 318.36L447.9 318.64L447.47 318.89L447.92 319.17L448.34 319.47L448.75 319.79L449.13 320.13L449.49 320.48L449.82 320.85L450.14 321.24L450.44 321.64L450.71 322.05L450.97 322.47L451.25 322.03L451.55 321.61L451.87 321.21L452.21 320.84L452.56 320.48L452.93 320.14L453.31 319.83L453.7 319.53L454.11 319.26L454.53 319L454.09 318.72L453.66 318.42L453.26 318.11L452.88 317.77L452.52 317.41L452.18 317.04L451.87 316.66L451.57 316.26L451.29 315.85L451.04 315.42L450.76 315.86L450.46 316.28Z" id="a1n0BN1YZ5"></path><path d="M284.08 69.83L284.64 69.95L285.2 70.1L285.74 70.3L286.26 70.55L286.76 70.83L287.24 71.15L287.7 71.51L288.13 71.91L288.52 72.35L288.88 72.8L289.2 73.28L289.47 73.78L289.71 74.3L289.91 74.84L290.06 75.39L290.17 75.96L290.24 76.54L290.26 77.12L290.3 77.65L290.39 78.07L290.53 78.4L290.7 78.64L290.91 78.82L291.14 78.94L291.4 79.01L291.66 79.05L291.93 79.06L292.2 79.06L292.79 79.09L293.37 79.16L293.93 79.27L294.48 79.43L295.02 79.63L295.54 79.87L296.04 80.15L296.52 80.47L296.97 80.83L297.4 81.23L297.8 81.66L298.15 82.12L298.47 82.6L298.75 83.1L298.99 83.62L299.19 84.16L299.34 84.71L299.45 85.28L299.52 85.85L299.54 86.44L299.44 87.63L299.16 88.76L298.71 89.81L298.11 90.77L297.37 91.62L296.51 92.35L295.55 92.95L294.49 93.4L293.36 93.67L292.17 93.77L291.64 93.81L291.21 93.9L290.88 94.05L290.63 94.23L290.45 94.45L290.33 94.69L290.26 94.94L290.22 95.21L290.2 95.47L290.2 95.72L290.1 96.91L289.82 98.03L289.37 99.08L288.77 100.04L288.03 100.9L287.18 101.63L286.22 102.23L285.17 102.67L284.04 102.95L282.86 103.04L282.82 103.04L282.24 103.02L281.67 102.95L281.11 102.84L280.56 102.69L280.03 102.49L279.51 102.25L279.01 101.97L278.53 101.65L278.08 101.29L277.65 100.9L277.25 100.47L276.9 100.01L276.58 99.54L276.3 99.04L276.06 98.52L275.86 97.98L275.71 97.43L275.59 96.87L275.53 96.29L275.5 95.7L275.47 95.17L275.37 94.74L275.24 94.4L275.06 94.15L274.85 93.97L274.62 93.85L274.37 93.78L274.1 93.74L273.83 93.72L273.56 93.72L272.98 93.7L272.41 93.63L271.84 93.52L271.29 93.36L270.76 93.16L270.24 92.92L269.74 92.64L269.26 92.32L268.81 91.96L268.37 91.57L267.98 91.13L267.62 90.68L267.3 90.2L267.02 89.7L266.78 89.18L266.58 88.64L266.43 88.09L266.32 87.52L266.25 86.94L266.23 86.36L266.32 85.17L266.6 84.04L267.05 82.99L267.65 82.03L268.38 81.17L269.24 80.44L270.2 79.84L271.25 79.39L272.38 79.11L273.57 79.01L274.11 78.98L274.54 78.88L274.87 78.75L275.13 78.57L275.31 78.35L275.43 78.12L275.5 77.86L275.54 77.6L275.55 77.33L275.55 77.07L275.65 75.88L275.93 74.75L276.38 73.7L276.98 72.74L277.72 71.89L278.57 71.16L279.53 70.56L280.59 70.11L281.71 69.83L282.9 69.74L283.49 69.76L284.08 69.83ZM282.33 83.72L282.02 84.12L281.68 84.5L281.33 84.86L280.96 85.2L280.58 85.51L280.18 85.81L279.77 86.09L279.35 86.34L279.8 86.62L280.22 86.92L280.62 87.24L281 87.57L281.36 87.93L281.7 88.3L282.02 88.68L282.31 89.08L282.59 89.5L282.85 89.92L283.13 89.48L283.42 89.06L283.74 88.66L284.08 88.28L284.43 87.93L284.8 87.59L285.18 87.27L285.58 86.98L285.99 86.7L286.41 86.45L285.96 86.17L285.54 85.87L285.14 85.55L284.76 85.21L284.4 84.86L284.06 84.49L283.74 84.1L283.44 83.7L283.17 83.29L282.91 82.86L282.63 83.3L282.33 83.72Z" id="c1vvNoplEN"></path><path d="M373.65 151.67L377.4 151.98L381.19 152.44L384.97 153.08L388.69 153.93L392.3 154.99L395.76 156.31L399.01 157.89L402.01 159.76L404.71 161.93L407.05 164.44L408.07 165.81L408.95 167.23L409.72 168.7L410.36 170.22L410.87 171.79L411.26 173.41L411.52 175.08L411.66 176.79L411.67 178.56L411.56 180.37L411.32 182.23L410.95 184.13L408.75 191.41L406 197.74L402.85 203.18L399.42 207.8L395.86 211.64L392.3 214.79L388.87 217.29L385.72 219.21L382.97 220.62L380.77 221.56L379.25 222.11L378.54 222.32L378.12 222.42L377.7 222.47L377.27 222.48L376.86 222.45L376.45 222.38L376.04 222.27L375.65 222.13L375.28 221.95L374.92 221.73L374.58 221.48L374.27 221.2L373.98 220.88L373.72 220.53L373.5 220.17L373.31 219.79L373.17 219.4L373.06 218.99L372.99 218.58L372.96 218.17L372.97 217.75L373.01 217.34L373.1 216.93L373.23 216.52L373.4 216.12L373.78 215.22L374.23 213.94L374.71 212.33L375.19 210.47L375.64 208.42L376.03 206.23L376.32 203.97L376.48 201.7L376.49 199.49L376.3 197.4L375.88 195.49L375.21 193.81L374.99 193.43L374.75 193.08L374.49 192.76L374.21 192.46L373.91 192.2L373.59 191.96L373.25 191.75L372.88 191.57L372.49 191.42L372.06 191.28L371.62 191.18L371.14 191.1L370.74 191.01L370.34 190.94L369.96 190.87L369.59 190.81L369.23 190.75L368.87 190.71L368.52 190.67L368.17 190.64L367.83 190.62L367.49 190.6L367.15 190.59L366.82 190.59L366.03 190.61L365.25 190.65L364.48 190.73L363.72 190.84L362.96 190.97L362.21 191.12L361.47 191.3L360.74 191.5L360.02 191.72L359.31 191.95L358.62 192.2L357.94 192.47L357.98 192.49L358.01 192.51L358.05 192.54L358.09 192.56L358.13 192.58L358.16 192.61L358.2 192.63L358.24 192.65L358.28 192.68L358.31 192.7L358.35 192.73L358.39 192.75L360.24 193.55L361.94 194.47L363.5 195.51L364.92 196.65L366.18 197.9L367.28 199.24L368.23 200.68L369.01 202.2L369.62 203.81L370.06 205.49L370.33 207.25L370.42 209.08L369.93 213.43L368.47 218.13L366.01 223.11L362.55 228.3L358.05 233.65L352.52 239.1L345.94 244.58L338.28 250.04L329.53 255.41L319.69 260.63L308.72 265.65L296.62 270.39L295.14 270.89L293.15 271.48L290.69 272.15L287.83 272.87L284.61 273.6L281.08 274.32L277.31 275.01L273.34 275.63L269.23 276.16L265.02 276.58L260.78 276.84L256.55 276.94L253.43 276.88L250.46 276.7L247.66 276.41L245.03 275.99L242.55 275.46L240.24 274.81L238.09 274.04L236.11 273.16L234.3 272.16L232.65 271.04L231.17 269.81L229.87 268.46L229.05 267.45L228.33 266.4L227.69 265.3L227.14 264.15L226.68 262.96L226.3 261.73L226.01 260.45L225.81 259.13L225.7 257.77L225.68 256.36L225.74 254.91L225.89 253.42L226.49 249.73L227.97 245.9L230.18 242.01L232.97 238.15L236.19 234.41L239.68 230.89L243.3 227.66L246.89 224.82L250.31 222.46L253.39 220.66L256 219.52L257.98 219.12L258.12 219.12L258.27 219.13L258.42 219.14L258.59 219.16L258.75 219.19L258.92 219.21L259.08 219.25L259.24 219.28L259.4 219.32L259.55 219.36L259.69 219.41L259.83 219.45L260.25 219.64L260.65 219.87L261.02 220.13L261.35 220.43L261.65 220.76L261.92 221.12L262.15 221.5L262.34 221.91L262.49 222.33L262.6 222.77L262.66 223.23L262.67 223.69L262.41 234.42L262.46 235.05L262.55 235.67L262.7 236.28L262.94 236.85L263.28 237.4L263.74 237.89L264.35 238.34L265.12 238.73L266.07 239.04L267.23 239.28L268.61 239.42L270.23 239.47L270.72 239.47L271.22 239.46L271.74 239.44L272.27 239.41L272.82 239.37L273.39 239.32L273.97 239.27L274.57 239.2L275.19 239.13L275.83 239.05L276.49 238.96L277.16 238.86L277.28 238.84L277.39 238.82L277.51 238.8L277.62 238.78L277.74 238.76L277.85 238.74L277.97 238.72L278.09 238.7L278.2 238.67L278.32 238.65L278.44 238.63L278.55 238.6L277.3 236.67L276.15 234.58L275.11 232.39L274.16 230.14L273.31 227.87L272.57 225.63L271.93 223.46L271.39 221.42L270.96 219.54L270.62 217.87L270.39 216.46L270.26 215.35L270.06 210.01L270.34 205.04L271.05 200.41L272.14 196.13L273.56 192.17L275.27 188.54L277.21 185.22L279.34 182.2L281.6 179.47L283.96 177.02L286.35 174.84L288.73 172.92L293.1 169.93L298.11 167.08L303.7 164.4L309.76 161.92L316.24 159.64L323.05 157.6L330.11 155.81L337.34 154.3L344.67 153.09L352.02 152.2L359.31 151.65L366.46 151.46L369.99 151.51L373.65 151.67ZM351.8 161.12L344.3 162.1L336.84 163.42L329.5 165.06L322.4 166.99L315.64 169.18L309.33 171.6L303.56 174.22L298.43 177.01L294.07 179.96L291.18 182.35L288.59 184.9L286.31 187.6L284.33 190.46L282.65 193.46L281.29 196.62L280.23 199.93L279.47 203.38L279.03 206.98L278.89 210.73L279.07 214.62L279.34 216.71L279.82 219L280.46 221.42L281.25 223.87L282.14 226.29L283.1 228.6L284.1 230.72L285.11 232.57L286.1 234.07L287.02 235.14L287.86 235.71L288.41 235.88L288.92 236.11L289.4 236.39L289.82 236.74L290.2 237.13L290.53 237.57L290.8 238.04L291.01 238.55L291.16 239.09L291.24 239.65L291.25 240.22L291.21 241.13L291.15 241.65L291.04 242.15L290.87 242.63L290.65 243.08L290.38 243.51L290.06 243.89L289.71 244.25L289.31 244.56L288.88 244.82L288.41 245.04L287.92 245.2L287.67 245.26L287.43 245.33L287.18 245.4L286.93 245.47L286.69 245.54L286.44 245.61L286.2 245.68L285.95 245.75L285.71 245.82L285.46 245.89L285.22 245.96L284.63 246.14L284.03 246.31L283.43 246.48L282.83 246.65L282.22 246.81L281.61 246.97L281 247.12L280.37 247.26L279.74 247.39L279.11 247.5L278.47 247.61L277.61 247.73L276.78 247.85L275.97 247.95L275.18 248.04L274.41 248.11L273.67 248.18L272.94 248.23L272.23 248.27L271.54 248.3L270.87 248.32L270.22 248.33L266.69 248.12L263.69 247.54L261.17 246.64L259.1 245.48L257.43 244.11L256.13 242.58L255.14 240.95L254.43 239.27L253.96 237.61L253.68 236.01L253.56 234.52L253.65 230.81L251.58 232.35L249.37 234.14L247.08 236.12L244.78 238.25L242.55 240.49L240.47 242.79L238.6 245.12L237.02 247.43L235.79 249.67L235 251.8L234.72 253.78L234.72 253.84L234.72 253.89L234.72 253.95L234.71 254L234.71 254.06L234.71 254.11L234.7 254.16L234.7 254.22L234.69 254.27L234.69 254.33L234.68 254.38L234.57 255.33L234.52 256.24L234.52 257.11L234.57 257.94L234.69 258.73L234.85 259.48L235.08 260.19L235.36 260.86L235.69 261.5L236.08 262.1L236.53 262.66L237.47 263.59L238.59 264.44L239.9 265.2L241.39 265.87L243.05 266.46L244.89 266.96L246.89 267.37L249.06 267.69L251.4 267.92L253.89 268.06L256.54 268.11L260.79 268L265.06 267.71L269.3 267.26L273.42 266.69L277.38 266.03L281.09 265.32L284.48 264.58L287.5 263.86L290.07 263.18L292.13 262.58L293.6 262.09L305.13 257.56L315.64 252.75L325.11 247.73L333.52 242.57L340.87 237.36L347.13 232.16L352.28 227.06L356.32 222.12L359.23 217.43L360.98 213.06L361.57 209.08L361.52 208.05L361.35 207.09L361.08 206.18L360.7 205.32L360.2 204.52L359.59 203.78L358.87 203.09L358.04 202.46L357.1 201.88L356.04 201.36L354.86 200.88L354.77 200.85L354.68 200.81L354.59 200.77L354.5 200.73L354.41 200.69L354.32 200.64L354.23 200.6L354.15 200.55L354.07 200.5L353.98 200.44L353.9 200.39L353.57 200.18L353.23 199.97L352.88 199.76L352.51 199.55L352.14 199.35L351.75 199.15L351.36 198.95L350.95 198.75L350.54 198.54L350.13 198.34L349.71 198.14L349.49 198.03L349.27 197.92L349.05 197.82L348.83 197.71L348.61 197.6L348.39 197.49L348.17 197.38L347.96 197.28L347.74 197.17L347.52 197.05L347.31 196.94L346.87 196.68L346.47 196.38L346.11 196.03L345.8 195.66L345.53 195.25L345.31 194.81L345.13 194.35L345.01 193.87L344.94 193.38L344.93 192.88L344.98 192.37L344.99 192.26L345.01 192.15L345.03 192.04L345.05 191.93L345.07 191.82L345.09 191.71L345.11 191.6L345.13 191.49L345.15 191.38L345.17 191.27L345.19 191.16L345.27 190.84L345.37 190.52L345.49 190.2L345.64 189.89L345.8 189.6L345.99 189.31L346.19 189.04L346.41 188.78L346.65 188.55L346.91 188.33L347.18 188.14L348.49 187.34L349.91 186.52L351.45 185.71L353.09 184.93L354.82 184.2L356.64 183.53L358.55 182.93L360.52 182.44L362.57 182.07L364.67 181.83L366.82 181.75L367.37 181.76L367.91 181.77L368.46 181.8L369 181.84L369.55 181.89L370.09 181.95L370.63 182.02L371.16 182.1L371.69 182.19L372.22 182.3L372.75 182.41L373.93 182.63L375.08 182.93L376.18 183.33L377.24 183.82L378.24 184.4L379.19 185.07L380.09 185.83L380.92 186.66L381.69 187.58L382.39 188.59L383.02 189.67L383.77 191.29L384.36 193L384.79 194.78L385.09 196.63L385.26 198.51L385.32 200.41L385.28 202.32L385.15 204.22L384.95 206.1L384.69 207.92L384.37 209.69L386.11 208.43L387.91 206.96L389.74 205.27L391.59 203.35L393.41 201.17L395.19 198.73L396.89 196.02L398.48 193.01L399.94 189.71L401.23 186.08L402.34 182.13L402.59 180.81L402.76 179.53L402.83 178.29L402.82 177.11L402.71 175.96L402.51 174.86L402.22 173.8L401.84 172.78L401.37 171.81L400.81 170.87L400.15 169.98L398.61 168.35L396.74 166.86L394.54 165.51L392.03 164.31L389.21 163.26L386.1 162.37L382.7 161.63L379.03 161.05L375.09 160.63L370.89 160.38L366.45 160.3L359.21 160.51L351.8 161.12Z" id="hNWSiNtZl"></path><path d="M443.96 116.93L444.27 116.95L444.58 116.98L444.9 117.01L445.21 117.05L445.53 117.09L445.84 117.14L446.16 117.2L446.48 117.27L446.79 117.34L447.11 117.42L447.43 117.51L447.75 117.6L448.42 117.83L449.07 118.1L449.69 118.39L450.29 118.73L450.87 119.09L451.42 119.49L451.94 119.92L452.44 120.39L452.9 120.88L453.34 121.41L453.75 121.96L454.13 122.55L454.48 123.16L454.8 123.81L455.42 125.42L455.87 127.2L456.16 129.13L456.27 131.23L456.21 133.49L455.98 135.92L455.58 138.52L455 141.28L454.26 144.22L453.34 147.33L452.25 150.61L450.99 154.07L449.55 157.71L447.94 161.52L447.22 163.11L446.44 164.73L445.59 166.38L444.69 168.06L443.73 169.76L442.73 171.49L441.68 173.24L440.59 175.01L439.46 176.81L438.3 178.63L437.12 180.46L435.92 182.32L434.69 184.19L433.45 186.08L431.64 188.85L429.83 191.63L428.04 194.4L426.29 197.18L424.59 199.93L422.96 202.67L421.41 205.38L419.96 208.06L418.62 210.7L417.41 213.29L416.35 215.83L415.44 218.31L414.71 220.72L414.17 223.06L413.33 226.6L412.21 230.02L410.84 233.3L409.26 236.45L407.51 239.45L405.63 242.28L403.66 244.94L401.63 247.41L399.58 249.69L397.56 251.76L395.59 253.61L393.72 255.23L391.99 256.62L390.43 257.75L383.4 262.4L376.6 266.56L369.98 270.25L363.47 273.51L357.03 276.38L350.59 278.88L344.09 281.06L337.48 282.95L330.7 284.57L323.68 285.97L316.38 287.18L308.73 288.23L300.68 289.16L292.16 290L291.1 290.08L289.9 290.14L288.56 290.19L287.11 290.21L285.55 290.22L283.89 290.22L282.15 290.2L280.34 290.17L278.46 290.14L276.54 290.09L274.58 290.04L272.59 289.98L270.59 289.91L268.58 289.84L267.37 289.8L266.16 289.76L264.95 289.72L263.75 289.68L262.56 289.64L261.39 289.61L260.23 289.58L259.09 289.55L257.97 289.52L256.87 289.5L255.79 289.48L254.75 289.46L253.73 289.46L252.74 289.45L251.79 289.46L250.92 289.46L250.12 289.48L249.4 289.5L248.74 289.52L248.15 289.55L247.63 289.58L247.16 289.61L246.74 289.65L246.38 289.68L246.07 289.72L245.8 289.76L245.57 289.8L245.38 289.84L244.51 290.05L243.63 290.31L242.74 290.61L241.83 290.94L240.92 291.31L239.99 291.7L239.06 292.13L238.12 292.58L237.16 293.05L236.2 293.55L235.23 294.06L234.25 294.58L233.26 295.11L232.27 295.65L230.76 296.46L229.24 297.28L227.71 298.07L226.17 298.85L224.62 299.59L223.06 300.3L221.48 300.95L219.89 301.55L218.29 302.07L216.66 302.53L215.03 302.89L213.37 303.17L211.69 303.34L209.99 303.4L209.71 303.4L209.43 303.39L209.16 303.38L208.88 303.37L208.6 303.36L208.32 303.34L208.05 303.32L207.77 303.29L207.5 303.26L207.22 303.23L206.95 303.2L206.68 303.16L206.41 303.12L206.14 303.07L204.27 302.68L202.49 302.17L200.81 301.54L199.23 300.8L197.75 299.94L196.37 298.97L195.1 297.9L193.94 296.72L192.89 295.43L191.95 294.04L191.13 292.55L190.42 290.97L189.84 289.29L189.38 287.51L188.85 283.9L188.8 280.07L189.2 276.08L190.03 271.97L191.26 267.77L192.88 263.55L194.86 259.33L197.17 255.16L199.81 251.09L202.74 247.16L205.93 243.41L209.38 239.89L213.05 236.63L216.93 233.7L221.9 229.3L226.21 225.34L229.91 221.79L233.05 218.61L235.69 215.76L237.87 213.21L239.64 210.93L241.07 208.87L242.19 207.02L243.05 205.32L243.72 203.76L244.24 202.28L244.65 200.87L245.02 199.48L245.28 198.5L245.55 197.51L245.85 196.48L246.19 195.42L246.58 194.31L247.03 193.14L247.56 191.93L248.17 190.64L248.88 189.29L249.7 187.86L250.64 186.35L251.71 184.75L252.93 183.05L254.3 181.25L262.2 172.52L271.13 165.01L280.94 158.62L291.45 153.26L302.52 148.84L313.98 145.26L325.68 142.44L337.45 140.28L349.15 138.68L360.6 137.57L371.65 136.83L382.14 136.39L391.92 136.14L400.82 136L402.07 135.99L403.29 135.97L404.5 135.95L405.67 135.93L406.83 135.92L407.95 135.9L409.05 135.87L410.13 135.85L411.18 135.82L412.2 135.8L413.19 135.77L414.16 135.73L415.09 135.69L416 135.65L416.9 135.55L417.78 135.35L418.63 135.04L419.47 134.64L420.29 134.16L421.09 133.6L421.87 132.97L422.65 132.29L423.42 131.54L424.18 130.76L424.94 129.93L425.7 129.08L426.46 128.2L427.22 127.31L428.12 126.26L429.04 125.2L429.99 124.15L430.97 123.12L431.98 122.13L433.03 121.18L434.12 120.29L435.26 119.48L436.45 118.75L437.7 118.13L439.01 117.62L440.38 117.24L441.82 117L443.34 116.92L443.65 116.92L443.96 116.93ZM441.9 126L441.19 126.27L440.48 126.65L439.77 127.11L439.07 127.65L438.36 128.26L437.65 128.94L436.93 129.68L436.2 130.47L435.46 131.3L434.71 132.17L433.95 133.06L432.96 134.21L431.93 135.39L430.86 136.57L429.73 137.74L428.55 138.87L427.3 139.95L425.99 140.96L424.6 141.89L423.14 142.7L421.6 143.38L419.97 143.92L418.25 144.3L416.43 144.49L415.44 144.53L414.4 144.57L413.34 144.61L412.24 144.64L411.11 144.67L409.94 144.7L408.74 144.72L407.52 144.75L406.26 144.77L404.97 144.79L403.66 144.81L402.32 144.83L400.95 144.85L391.69 144.99L381.46 145.26L370.48 145.76L358.92 146.59L346.99 147.86L334.87 149.68L322.76 152.16L310.86 155.39L299.36 159.5L288.46 164.57L278.34 170.73L269.21 178.07L261.26 186.7L260.04 188.31L258.97 189.8L258.04 191.19L257.23 192.49L256.54 193.71L255.95 194.86L255.45 195.94L255.03 196.97L254.67 197.96L254.35 198.92L254.08 199.86L253.82 200.78L253.58 201.71L253.1 203.52L252.55 205.37L251.87 207.29L250.99 209.33L249.83 211.54L248.34 213.95L246.43 216.62L244.05 219.59L241.12 222.91L237.57 226.62L233.34 230.76L228.36 235.38L222.55 240.53L222.52 240.55L222.49 240.58L222.46 240.6L222.44 240.63L222.41 240.65L222.38 240.67L222.35 240.7L222.32 240.72L222.29 240.74L222.25 240.77L222.22 240.79L222.19 240.81L222.16 240.83L218.39 243.69L214.89 246.85L211.66 250.25L208.74 253.83L206.12 257.56L203.82 261.36L201.87 265.19L200.26 268.98L199.02 272.7L198.16 276.27L197.7 279.65L197.64 282.78L198.01 285.61L198.3 286.72L198.66 287.75L199.1 288.71L199.61 289.6L200.19 290.41L200.85 291.15L201.59 291.82L202.41 292.42L203.3 292.95L204.26 293.4L205.31 293.79L206.43 294.11L207.64 294.36L209.16 294.54L210.69 294.55L212.23 294.41L213.79 294.14L215.35 293.74L216.93 293.23L218.51 292.64L220.09 291.96L221.68 291.21L223.27 290.42L224.87 289.59L226.46 288.73L228.05 287.87L229.21 287.25L230.37 286.62L231.54 286L232.71 285.39L233.89 284.8L235.08 284.23L236.26 283.68L237.46 283.17L238.65 282.69L239.86 282.24L241.06 281.85L242.27 281.5L243.48 281.2L243.93 281.11L244.41 281.03L244.94 280.95L245.5 280.89L246.11 280.83L246.76 280.77L247.46 280.73L248.21 280.69L249.01 280.66L249.86 280.64L250.76 280.62L251.72 280.61L252.74 280.61L253.83 280.61L254.97 280.62L256.13 280.64L257.33 280.66L258.56 280.69L259.8 280.72L261.07 280.75L262.36 280.79L263.65 280.83L264.96 280.87L266.27 280.91L267.58 280.96L268.89 281L270.96 281.07L273.04 281.14L275.1 281.2L277.13 281.26L279.11 281.31L281.03 281.34L282.87 281.37L284.62 281.38L286.25 281.38L287.76 281.36L289.12 281.33L290.32 281.27L291.35 281.2L300.29 280.31L308.67 279.33L316.56 278.22L324.03 276.94L331.17 275.43L338.05 273.66L344.75 271.6L351.34 269.18L357.9 266.38L364.52 263.15L371.26 259.44L378.21 255.22L385.43 250.45L387.05 249.27L388.78 247.85L390.59 246.23L392.44 244.4L394.31 242.38L396.15 240.2L397.93 237.86L399.62 235.38L401.19 232.77L402.59 230.06L403.8 227.25L404.77 224.36L405.49 221.41L406.16 218.5L407.05 215.55L408.14 212.54L409.43 209.5L410.87 206.42L412.47 203.31L414.19 200.18L416.01 197.04L417.93 193.88L419.91 190.71L421.94 187.55L424 184.39L426.06 181.24L427.35 179.28L428.62 177.34L429.86 175.42L431.08 173.53L432.27 171.66L433.41 169.83L434.51 168.02L435.56 166.25L436.55 164.52L437.48 162.83L438.34 161.17L439.13 159.57L439.84 158.01L441.78 153.37L443.38 149.2L444.66 145.47L445.66 142.18L446.41 139.28L446.94 136.75L447.26 134.57L447.43 132.72L447.45 131.18L447.37 129.9L447.21 128.89L447.01 128.1L446.78 127.52L446.69 127.34L446.6 127.17L446.51 127.02L446.41 126.88L446.3 126.76L446.19 126.64L446.07 126.53L445.94 126.43L445.81 126.34L445.66 126.26L445.51 126.19L445.34 126.12L445.16 126.06L445.01 126.02L444.86 125.98L444.72 125.94L444.57 125.91L444.43 125.88L444.29 125.85L444.15 125.83L444.01 125.81L443.88 125.8L443.74 125.78L443.61 125.78L443.48 125.77L443.34 125.77L442.62 125.83L441.9 126Z" id="a3Huif2Sky"></path><path d="M423.95 82.12L427.22 82.31L430.41 82.57L433.52 82.9L436.54 83.3L439.47 83.78L442.31 84.33L445.07 84.96L447.73 85.65L450.31 86.42L452.79 87.26L455.18 88.16L457.48 89.14L459.69 90.19L461.8 91.31L463.81 92.5L465.73 93.76L467.56 95.09L469.28 96.48L470.91 97.95L472.44 99.48L473.87 101.08L475.2 102.75L476.42 104.49L477.55 106.29L478.77 108.53L479.85 110.84L480.79 113.21L481.59 115.64L482.24 118.14L482.75 120.71L483.13 123.33L483.35 126.02L483.44 128.78L483.39 131.59L483.19 134.47L482.85 137.41L482.37 140.42L481.75 143.49L480.99 146.61L480.09 149.81L479.04 153.06L477.86 156.37L476.53 159.75L475.06 163.19L473.45 166.69L471.7 170.25L469.81 173.87L467.77 177.56L465.6 181.3L463.28 185.1L464.82 183.38L466.32 181.64L467.78 179.9L469.2 178.14L470.58 176.38L471.93 174.61L473.24 172.84L474.5 171.06L475.73 169.27L476.92 167.48L478.06 165.68L479.17 163.88L480.23 162.08L481.25 160.27L482.23 158.46L483.17 156.65L484.06 154.84L484.91 153.03L485.71 151.21L486.47 149.4L487.19 147.59L487.86 145.78L488.48 143.97L489.06 142.16L489.59 140.36L490.07 138.56L490.14 138.32L490.22 138.08L490.32 137.85L490.42 137.63L490.54 137.41L490.67 137.21L490.81 137.01L490.96 136.82L491.11 136.64L491.28 136.46L491.46 136.3L491.64 136.15L491.83 136.01L492.03 135.88L492.24 135.76L492.45 135.65L492.67 135.55L492.9 135.47L493.13 135.4L493.37 135.34L493.6 135.29L493.85 135.26L494.1 135.24L494.35 135.23L494.6 135.24L494.85 135.27L495.1 135.3L495.35 135.35L495.59 135.41L495.83 135.49L496.05 135.58L496.28 135.67L496.49 135.79L496.7 135.91L496.9 136.04L497.09 136.18L497.28 136.34L497.45 136.5L497.62 136.67L497.77 136.85L497.92 137.04L498.06 137.24L498.18 137.44L498.3 137.65L498.4 137.87L498.49 138.1L498.57 138.33L498.64 138.56L498.69 138.8L498.73 139.05L498.76 139.29L498.77 139.55L498.77 144.52L498.51 149.54L498 154.57L497.24 159.63L496.24 164.7L495 169.78L493.52 174.86L491.81 179.94L489.88 185L487.72 190.05L485.34 195.07L482.74 200.07L479.92 205.03L476.9 209.94L473.67 214.81L470.24 219.62L466.61 224.36L462.79 229.04L458.78 233.65L454.57 238.17L450.19 242.61L445.62 246.96L440.88 251.2L435.97 255.34L430.89 259.37L425.64 263.28L421.34 266.32L416.99 269.28L412.6 272.15L408.16 274.93L403.67 277.62L399.13 280.23L394.56 282.75L389.93 285.18L385.27 287.52L380.56 289.77L375.82 291.93L371.03 294.01L366.21 295.99L361.35 297.88L356.45 299.68L351.52 301.39L346.55 303.01L341.55 304.54L336.52 305.98L331.46 307.32L326.36 308.58L321.24 309.73L316.08 310.8L310.9 311.77L305.7 312.65L300.46 313.44L301.26 313.4L302.05 313.37L302.85 313.33L303.66 313.3L304.46 313.26L305.28 313.22L306.09 313.18L306.91 313.14L307.74 313.09L308.56 313.05L309.39 313L310.23 312.95L311.07 312.9L311.91 312.85L312.76 312.79L313.61 312.74L314.46 312.68L315.32 312.62L316.18 312.56L317.04 312.5L317.91 312.44L318.78 312.38L319.66 312.31L320.54 312.24L321.42 312.17L322.3 312.1L322.55 312.09L322.79 312.1L323.02 312.11L323.26 312.14L323.49 312.18L323.72 312.23L323.95 312.3L324.17 312.37L324.39 312.46L324.6 312.56L324.8 312.67L325 312.78L325.2 312.91L325.38 313.05L325.56 313.2L325.74 313.35L325.9 313.52L326.05 313.69L326.2 313.88L326.34 314.07L326.46 314.27L326.58 314.48L326.68 314.69L326.78 314.91L326.86 315.14L326.93 315.37L326.99 315.61L327.03 315.85L327.06 316.09L327.08 316.33L327.08 316.57L327.07 316.8L327.05 317.04L327.01 317.27L326.97 317.5L326.91 317.72L326.84 317.94L326.76 318.16L326.67 318.37L326.56 318.58L326.45 318.79L326.33 318.98L326.19 319.17L326.05 319.35L325.89 319.53L325.73 319.7L325.55 319.86L325.37 320.01L325.17 320.15L324.97 320.28L324.76 320.4L324.54 320.51L321.84 321.76L319.1 322.98L316.33 324.17L313.53 325.32L310.71 326.44L307.86 327.52L304.99 328.58L302.1 329.59L299.18 330.57L296.25 331.51L293.31 332.42L290.35 333.29L287.37 334.13L284.39 334.92L281.39 335.68L278.39 336.4L275.38 337.07L272.37 337.71L269.35 338.31L266.34 338.87L263.32 339.39L260.31 339.86L257.3 340.3L254.3 340.69L251.3 341.04L248.31 341.34L247.61 341.41L246.9 341.47L246.2 341.53L245.49 341.59L244.79 341.64L244.08 341.69L243.38 341.75L242.67 341.79L241.97 341.84L241.26 341.88L240.56 341.92L239.86 341.96L239.16 341.99L238.46 342.02L237.76 342.05L237.06 342.08L236.36 342.11L235.66 342.13L234.96 342.15L234.27 342.16L233.57 342.18L232.88 342.19L232.18 342.2L231.49 342.2L230.8 342.21L230.11 342.21L225.68 342.16L221.39 341.99L217.24 341.73L213.24 341.35L209.38 340.87L205.66 340.29L202.09 339.6L198.67 338.81L195.41 337.92L192.29 336.92L189.33 335.83L186.52 334.63L183.87 333.34L181.37 331.95L179.04 330.46L176.86 328.87L174.85 327.19L173 325.41L171.32 323.54L169.8 321.58L168.45 319.52L167.27 317.37L166.26 315.13L165.43 312.79L164.77 310.37L164.28 307.86L163.95 305.4L163.73 302.92L163.61 300.42L163.6 297.91L163.68 295.39L163.87 292.85L164.14 290.31L164.5 287.75L164.95 285.19L165.49 282.61L166.11 280.04L166.8 277.45L167.58 274.86L168.42 272.27L169.34 269.68L170.32 267.09L171.37 264.49L172.48 261.9L173.65 259.31L174.88 256.72L176.16 254.14L177.49 251.57L178.87 249L180.29 246.44L181.76 243.89L183.26 241.35L181.71 243.3L180.18 245.27L178.67 247.23L177.2 249.2L175.75 251.18L174.32 253.15L172.93 255.12L171.56 257.09L170.22 259.06L168.9 261.02L167.61 262.98L166.35 264.92L165.11 266.86L163.9 268.78L162.71 270.7L161.55 272.59L160.42 274.47L159.31 276.33L158.22 278.18L157.16 280L156.13 281.79L155.12 283.57L154.14 285.32L153.18 287.04L152.24 288.73L151.33 290.39L151.21 290.59L151.09 290.78L150.96 290.96L150.82 291.13L150.67 291.3L150.51 291.46L150.35 291.61L150.18 291.75L150 291.88L149.82 292L149.63 292.12L149.44 292.22L149.24 292.32L149.04 292.4L148.84 292.47L148.63 292.54L148.41 292.59L148.2 292.63L147.98 292.67L147.76 292.69L147.54 292.7L147.31 292.69L147.09 292.68L146.87 292.65L146.64 292.61L146.42 292.56L146.19 292.51L145.98 292.44L145.77 292.36L145.56 292.27L145.36 292.17L145.17 292.06L144.98 291.94L144.8 291.81L144.63 291.68L144.47 291.53L144.31 291.38L144.16 291.22L144.02 291.05L143.88 290.88L143.76 290.7L143.64 290.52L143.54 290.32L143.44 290.13L143.35 289.92L143.27 289.72L143.21 289.51L143.15 289.29L143.1 289.07L143.07 288.85L143.04 288.62L143.03 288.39L143.02 283.11L143.29 277.8L143.85 272.46L144.67 267.1L145.76 261.74L147.12 256.38L148.73 251.02L150.6 245.68L152.72 240.36L155.08 235.06L157.68 229.81L160.52 224.6L163.58 219.45L166.88 214.36L170.39 209.33L174.11 204.38L178.05 199.52L182.19 194.74L186.54 190.07L191.08 185.51L195.81 181.05L200.73 176.73L205.83 172.53L211.1 168.47L216.55 164.56L222.17 160.8L227.12 157.67L232.13 154.63L237.22 151.67L242.36 148.8L247.56 146.02L252.82 143.33L258.13 140.74L263.48 138.23L268.87 135.83L274.29 133.51L279.75 131.3L285.24 129.18L290.75 127.16L296.29 125.25L301.83 123.43L307.39 121.72L312.95 120.12L318.52 118.62L324.09 117.23L329.65 115.95L335.19 114.78L340.73 113.72L346.25 112.77L351.74 111.94L357.21 111.22L362.64 110.62L361.08 110.61L359.51 110.61L357.92 110.63L356.33 110.67L354.73 110.71L353.11 110.77L351.49 110.85L349.86 110.94L348.22 111.05L346.57 111.17L344.91 111.3L343.24 111.45L341.57 111.61L339.89 111.79L338.2 111.98L336.5 112.19L334.8 112.41L333.08 112.64L331.37 112.89L329.64 113.15L327.91 113.43L326.18 113.72L324.44 114.03L322.69 114.35L320.94 114.68L319.18 115.02L318.93 115.07L318.68 115.1L318.42 115.11L318.18 115.11L317.93 115.1L317.68 115.07L317.44 115.03L317.21 114.98L316.97 114.91L316.74 114.83L316.52 114.74L316.3 114.63L316.09 114.52L315.88 114.39L315.69 114.25L315.5 114.1L315.31 113.94L315.14 113.77L314.97 113.59L314.82 113.4L314.67 113.21L314.54 113L314.41 112.78L314.3 112.56L314.2 112.32L314.11 112.08L314.04 111.84L313.98 111.59L313.94 111.34L313.91 111.1L313.89 110.85L313.89 110.6L313.9 110.36L313.92 110.12L313.96 109.88L314.01 109.64L314.08 109.41L314.15 109.18L314.24 108.95L314.34 108.73L314.45 108.52L314.58 108.31L314.71 108.11L314.86 107.92L315.02 107.73L315.19 107.56L315.37 107.39L315.56 107.23L315.75 107.08L315.96 106.94L316.18 106.81L316.41 106.7L318.82 105.57L321.24 104.46L323.69 103.38L326.15 102.31L328.62 101.28L331.12 100.26L333.63 99.27L336.15 98.3L338.68 97.35L341.23 96.43L343.79 95.53L346.36 94.66L348.94 93.82L351.53 92.99L354.12 92.2L356.73 91.43L359.34 90.68L361.95 89.97L364.57 89.27L367.19 88.61L369.82 87.97L372.45 87.36L375.08 86.78L377.71 86.22L380.34 85.7L382.97 85.2L383.91 85.03L384.89 84.86L385.91 84.68L386.96 84.51L388.05 84.33L389.17 84.16L390.33 83.99L391.52 83.82L392.73 83.65L393.98 83.49L395.26 83.33L396.56 83.18L397.89 83.03L399.25 82.89L400.63 82.76L402.03 82.64L403.46 82.52L404.91 82.41L406.38 82.31L407.87 82.23L409.37 82.15L410.9 82.09L412.44 82.04L413.99 82L415.56 81.98L417.14 81.97L420.58 82.01L423.95 82.12ZM414.35 90.83L412.97 90.86L411.61 90.91L410.26 90.96L408.92 91.02L407.6 91.09L406.29 91.17L404.99 91.26L403.72 91.36L402.46 91.47L401.22 91.58L400 91.7L398.8 91.82L397.62 91.95L396.47 92.09L395.33 92.23L394.22 92.37L393.13 92.52L392.07 92.67L391.03 92.82L390.02 92.97L389.04 93.12L388.08 93.28L387.16 93.43L386.26 93.59L385.4 93.74L384.56 93.89L383.41 94.11L382.27 94.33L381.12 94.55L379.97 94.78L378.82 95.02L377.67 95.26L376.52 95.51L375.37 95.76L374.22 96.02L373.07 96.29L371.92 96.56L370.77 96.83L369.62 97.11L368.47 97.4L367.33 97.69L366.18 97.99L365.04 98.29L363.89 98.59L362.75 98.91L361.61 99.22L360.46 99.55L359.32 99.87L358.18 100.21L357.05 100.55L355.91 100.89L354.78 101.24L353.64 101.59L352.51 101.95L352.81 101.94L353.11 101.92L353.42 101.91L353.72 101.9L354.02 101.89L354.32 101.88L354.62 101.87L354.92 101.86L355.22 101.85L355.52 101.84L355.82 101.83L356.12 101.82L356.41 101.82L356.71 101.81L357.01 101.8L357.31 101.8L357.61 101.79L357.9 101.79L358.2 101.78L358.5 101.78L358.79 101.77L359.09 101.77L359.39 101.77L359.68 101.77L359.98 101.76L360.27 101.76L360.57 101.76L360.86 101.76L364.39 101.8L367.79 101.9L371.07 102.06L374.22 102.27L377.24 102.54L380.14 102.85L382.91 103.2L385.55 103.59L388.07 104.01L390.46 104.46L392.72 104.93L394.86 105.41L396.88 105.91L398.77 106.41L400.53 106.91L402.16 107.41L403.68 107.9L405.06 108.38L406.32 108.84L407.46 109.28L408.47 109.68L409.35 110.06L410.12 110.4L410.75 110.69L411.26 110.94L411.65 111.13L411.91 111.27L412.05 111.35L412.24 111.46L412.43 111.58L412.61 111.72L412.78 111.85L412.94 112L413.1 112.15L413.24 112.31L413.38 112.48L413.51 112.65L413.63 112.83L413.74 113.02L413.84 113.2L413.93 113.4L414.02 113.59L414.09 113.79L414.15 114L414.21 114.21L414.25 114.42L414.29 114.63L414.31 114.84L414.32 115.06L414.33 115.27L414.32 115.49L414.3 115.71L414.27 115.93L414.23 116.15L414.17 116.36L414.11 116.58L414.03 116.79L413.95 117L413.85 117.2L413.75 117.39L413.63 117.58L413.51 117.76L413.38 117.94L413.24 118.1L413.1 118.26L412.95 118.42L412.79 118.56L412.62 118.7L412.45 118.82L412.27 118.94L412.09 119.05L411.9 119.15L411.71 119.25L411.51 119.33L411.31 119.4L411.1 119.47L410.89 119.52L410.68 119.57L410.47 119.6L410.25 119.62L410.03 119.63L409.81 119.64L409.59 119.63L409.37 119.6L408.58 119.51L407.78 119.42L406.98 119.33L406.18 119.25L405.38 119.17L404.57 119.09L403.77 119.01L402.96 118.94L402.14 118.88L401.33 118.81L400.51 118.75L399.69 118.69L398.87 118.64L398.04 118.59L397.21 118.54L396.39 118.5L395.56 118.46L394.72 118.43L393.89 118.39L393.05 118.36L392.22 118.34L391.38 118.31L390.54 118.3L389.69 118.28L388.85 118.27L388 118.26L387.16 118.25L386.31 118.25L380.85 118.33L375.33 118.54L369.73 118.9L364.07 119.4L358.36 120.04L352.6 120.82L346.8 121.73L340.96 122.77L335.1 123.94L329.21 125.24L323.31 126.66L317.4 128.21L311.49 129.89L305.58 131.68L299.68 133.59L293.8 135.62L287.95 137.75L282.12 140.01L276.33 142.37L270.59 144.84L264.89 147.41L259.25 150.09L253.67 152.87L248.17 155.75L242.73 158.73L237.39 161.8L232.13 164.96L226.96 168.22L222.73 171.04L218.59 173.94L214.55 176.93L210.62 180L206.8 183.15L203.08 186.38L199.47 189.68L195.98 193.05L192.6 196.48L189.34 199.98L186.2 203.53L183.18 207.13L180.28 210.79L177.51 214.49L174.87 218.24L172.36 222.02L169.98 225.84L167.74 229.7L165.63 233.58L163.67 237.48L161.85 241.41L160.17 245.36L158.64 249.32L157.25 253.29L156.02 257.26L154.94 261.25L154.02 265.23L153.26 269.2L154.75 266.75L156.28 264.27L157.86 261.77L159.48 259.25L161.14 256.71L162.85 254.16L164.6 251.6L166.4 249.03L168.24 246.46L170.12 243.88L172.06 241.32L174.03 238.75L176.05 236.2L178.12 233.66L180.24 231.13L182.4 228.62L184.61 226.14L186.87 223.68L189.17 221.24L191.52 218.84L193.93 216.48L196.38 214.15L198.87 211.87L201.42 209.62L204.02 207.43L206.67 205.29L209.37 203.2L212.12 201.17L212.2 201.11L212.29 201.05L212.37 201L212.46 200.95L212.55 200.9L212.64 200.85L212.72 200.8L212.81 200.76L212.9 200.72L213 200.68L213.09 200.64L213.18 200.6L213.27 200.57L213.37 200.54L213.46 200.51L213.55 200.49L213.65 200.46L213.74 200.44L213.84 200.42L213.93 200.4L214.03 200.38L214.12 200.37L214.22 200.36L214.32 200.35L214.41 200.34L214.51 200.34L214.61 200.33L214.7 200.33L214.83 200.33L214.95 200.34L215.08 200.35L215.2 200.36L215.33 200.38L215.45 200.4L215.58 200.42L215.7 200.45L215.82 200.48L215.94 200.51L216.06 200.55L216.18 200.59L216.3 200.63L216.42 200.68L216.54 200.73L216.65 200.78L216.76 200.84L216.88 200.9L216.99 200.97L217.1 201.04L217.2 201.11L217.31 201.18L217.41 201.26L217.52 201.34L217.62 201.43L217.72 201.52L217.81 201.61L217.91 201.71L218.06 201.88L218.21 202.06L218.35 202.25L218.47 202.44L218.59 202.64L218.69 202.84L218.78 203.05L218.86 203.25L218.93 203.47L218.99 203.68L219.04 203.9L219.08 204.12L219.11 204.34L219.12 204.56L219.13 204.78L219.12 205.01L219.1 205.23L219.07 205.45L219.03 205.67L218.98 205.89L218.92 206.1L218.84 206.31L218.76 206.52L218.66 206.73L218.55 206.93L218.44 207.13L218.31 207.33L218.16 207.51L215.63 210.72L213.08 213.98L210.53 217.3L207.98 220.67L205.45 224.09L202.94 227.56L200.47 231.06L198.04 234.6L195.67 238.17L193.35 241.77L191.11 245.39L188.95 249.03L186.88 252.68L184.91 256.35L183.05 260.02L181.31 263.7L179.69 267.37L178.21 271.04L176.88 274.7L175.7 278.34L174.69 281.97L173.85 285.57L173.2 289.15L172.74 292.7L172.48 296.21L172.43 299.68L172.61 303.12L173.01 306.5L173.51 308.93L174.23 311.21L175.16 313.35L176.28 315.35L177.59 317.21L179.06 318.95L180.69 320.56L182.47 322.05L184.38 323.42L186.41 324.68L188.55 325.84L190.79 326.89L193.11 327.84L195.51 328.7L197.97 329.47L200.48 330.15L203.03 330.76L205.61 331.28L208.19 331.74L210.78 332.13L213.36 332.46L215.92 332.72L218.44 332.94L220.91 333.1L223.33 333.23L225.68 333.31L227.94 333.35L230.11 333.37L230.72 333.36L231.33 333.36L231.94 333.36L232.55 333.35L233.17 333.34L233.78 333.33L234.4 333.31L235.01 333.3L235.63 333.28L236.25 333.26L236.87 333.24L237.49 333.21L238.11 333.19L238.73 333.16L239.35 333.13L239.98 333.09L240.6 333.06L241.22 333.02L241.85 332.98L242.47 332.94L243.1 332.9L243.72 332.85L244.35 332.8L244.97 332.75L245.6 332.7L246.22 332.65L246.85 332.59L247.47 332.53L249.19 332.36L250.9 332.18L252.62 331.98L254.34 331.77L256.07 331.54L257.79 331.3L259.52 331.04L261.25 330.77L262.98 330.48L264.71 330.18L266.44 329.86L268.17 329.54L269.9 329.19L271.63 328.84L273.36 328.47L275.09 328.08L276.81 327.69L278.54 327.27L280.26 326.85L281.97 326.41L283.69 325.96L285.4 325.5L287.11 325.02L288.81 324.53L290.51 324.03L292.2 323.52L293.89 322.99L295.57 322.45L295.2 322.46L294.82 322.47L294.45 322.48L294.08 322.49L293.71 322.49L293.34 322.5L292.98 322.51L292.61 322.52L292.25 322.53L291.88 322.53L291.52 322.54L291.16 322.54L290.79 322.55L290.43 322.55L290.07 322.56L289.72 322.56L289.36 322.57L289 322.57L288.65 322.58L288.29 322.58L287.94 322.58L287.59 322.58L287.23 322.59L286.88 322.59L286.53 322.59L286.19 322.59L285.84 322.59L285.49 322.59L281.46 322.57L277.64 322.49L274.04 322.37L270.65 322.21L267.47 322.01L264.48 321.77L261.68 321.5L259.07 321.2L256.63 320.88L254.37 320.53L252.27 320.16L250.34 319.78L248.56 319.39L246.93 318.99L245.44 318.58L244.09 318.18L242.87 317.77L241.77 317.37L240.79 316.97L239.93 316.59L239.17 316.22L238.51 315.88L237.95 315.55L237.47 315.25L237.08 314.97L236.77 314.73L236.52 314.53L236.34 314.36L236.2 314.22L236.07 314.07L235.94 313.92L235.83 313.77L235.72 313.61L235.62 313.44L235.52 313.28L235.43 313.11L235.35 312.93L235.28 312.75L235.22 312.58L235.16 312.39L235.12 312.21L235.08 312.02L235.04 311.84L235.02 311.65L235.01 311.46L235 311.27L235 311.08L235.01 310.89L235.02 310.7L235.05 310.51L235.08 310.32L235.13 310.13L235.18 309.94L235.24 309.75L235.3 309.57L235.38 309.39L235.47 309.21L235.56 309.03L235.66 308.86L235.76 308.7L235.87 308.54L235.99 308.39L236.12 308.24L236.25 308.1L236.38 307.97L236.52 307.84L236.67 307.72L236.82 307.6L236.98 307.49L237.14 307.39L237.3 307.29L237.47 307.21L237.64 307.13L237.82 307.05L238 306.99L238.18 306.93L238.36 306.88L238.55 306.84L238.74 306.81L238.93 306.78L239.13 306.77L239.32 306.76L239.52 306.76L239.72 306.78L240.42 306.82L241.12 306.87L241.81 306.91L242.51 306.95L243.21 306.99L243.91 307.03L244.61 307.07L245.31 307.1L246.01 307.14L246.71 307.17L247.42 307.2L248.12 307.23L248.82 307.25L249.52 307.28L250.22 307.3L250.92 307.32L251.63 307.34L252.33 307.36L253.03 307.38L253.73 307.39L254.43 307.4L255.13 307.41L255.83 307.42L256.53 307.43L257.23 307.44L257.93 307.44L258.63 307.44L259.32 307.44L265.62 307.38L271.89 307.17L278.14 306.84L284.35 306.36L290.54 305.76L296.69 305.02L302.81 304.15L308.89 303.14L314.93 302.01L320.94 300.74L326.9 299.34L332.83 297.81L338.7 296.16L344.54 294.37L350.32 292.45L356.06 290.41L361.74 288.24L367.37 285.94L372.95 283.52L378.48 280.97L383.94 278.3L389.35 275.5L394.7 272.57L399.98 269.52L405.2 266.35L410.36 263.06L415.44 259.64L420.46 256.11L423.89 253.58L427.25 250.98L430.54 248.34L433.76 245.63L436.9 242.88L439.96 240.07L442.95 237.22L445.87 234.32L448.7 231.37L451.45 228.39L454.12 225.37L456.7 222.31L459.2 219.22L461.61 216.09L463.94 212.94L466.18 209.76L468.32 206.56L470.37 203.33L472.33 200.09L474.19 196.83L475.96 193.55L477.63 190.26L479.2 186.96L480.67 183.66L482.03 180.34L483.3 177.03L484.45 173.71L485.51 170.4L484.33 172.24L483.11 174.08L481.85 175.92L480.56 177.75L479.23 179.57L477.86 181.38L476.45 183.19L475 184.98L473.52 186.77L472 188.55L470.45 190.32L468.86 192.08L467.24 193.82L465.58 195.56L463.89 197.28L462.16 198.99L460.4 200.69L458.61 202.38L456.78 204.05L454.92 205.7L453.03 207.34L451.11 208.97L449.16 210.58L447.17 212.17L445.16 213.75L443.12 215.3L441.04 216.84L438.94 218.36L438.75 218.49L438.55 218.61L438.34 218.72L438.13 218.82L437.92 218.9L437.71 218.98L437.49 219.04L437.27 219.09L437.05 219.13L436.83 219.16L436.6 219.18L436.38 219.19L436.16 219.18L435.94 219.16L435.71 219.14L435.5 219.1L435.28 219.05L435.06 218.99L434.85 218.92L434.64 218.84L434.44 218.74L434.24 218.64L434.04 218.52L433.85 218.4L433.66 218.26L433.49 218.11L433.31 217.96L433.15 217.79L432.99 217.61L432.84 217.43L432.71 217.24L432.58 217.05L432.47 216.85L432.37 216.65L432.28 216.44L432.2 216.23L432.13 216.02L432.07 215.8L432.02 215.58L431.99 215.36L431.96 215.14L431.95 214.92L431.95 214.7L431.96 214.48L431.98 214.25L432.01 214.03L432.05 213.81L432.1 213.6L432.17 213.38L432.25 213.17L432.33 212.96L432.43 212.75L432.54 212.55L432.66 212.35L432.8 212.16L432.94 211.97L436.77 207.19L440.42 202.48L443.88 197.86L447.17 193.31L450.26 188.84L453.18 184.46L455.91 180.15L458.45 175.94L460.81 171.8L462.98 167.75L464.97 163.79L466.77 159.92L468.38 156.14L469.81 152.44L471.05 148.84L472.1 145.33L472.96 141.91L473.63 138.58L474.12 135.36L474.41 132.22L474.52 129.19L474.43 126.25L474.16 123.41L473.69 120.67L473.03 118.04L472.18 115.5L471.14 113.07L469.91 110.75L468.82 109.03L467.62 107.41L466.32 105.89L464.93 104.45L463.44 103.11L461.88 101.85L460.23 100.68L458.5 99.59L456.71 98.58L454.86 97.64L452.95 96.77L450.99 95.98L448.98 95.26L446.93 94.6L444.85 94L442.74 93.47L440.6 92.99L438.45 92.57L436.28 92.2L434.11 91.88L431.93 91.61L429.76 91.38L427.6 91.19L425.45 91.05L423.33 90.94L421.23 90.87L419.16 90.82L417.13 90.81L415.73 90.81L414.35 90.83Z" id="c4rUC85Ic"></path><path d="M339.91 308.22C337.78 308.76 336.37 310.79 336.6 312.98C336.84 315.17 338.65 316.85 340.85 316.93C342.31 316.98 343.74 317 345.16 317C398.77 317 425.54 282.47 426.65 281C427.91 279.34 427.83 277.01 426.46 275.43C425.07 273.85 422.78 273.46 420.96 274.47C378.22 298.38 340.29 308.13 339.91 308.22Z" id="c1SGOcLzCC"></path><path d="M479.62 81.99C477.7 81.8 475.87 82.9 475.12 84.69C474.37 86.47 474.87 88.54 476.36 89.79C495.19 105.58 490.92 120.22 490.7 120.94C489.98 123.1 491.04 125.47 493.14 126.38C493.71 126.62 494.31 126.74 494.89 126.74C496.48 126.74 498.01 125.88 498.8 124.4C505.03 112.73 506.09 102.9 501.95 95.2C495.74 83.64 480.27 82.05 479.62 81.99Z" id="b8IERjGHJ"></path><path d="M274.28 117.16L274.99 117.17L275.61 117.19L276.15 117.21L276.59 117.23L276.93 117.24L277.18 117.26L277.33 117.27L277.38 117.27L278.01 117.36L278.6 117.53L279.15 117.79L279.66 118.11L280.13 118.49L280.53 118.94L280.87 119.44L281.15 119.98L281.34 120.57L281.46 121.18L281.48 121.81L281.42 122.43L281.28 123.02L281.06 123.58L280.76 124.11L280.4 124.59L279.98 125.01L279.49 125.38L278.95 125.68L278.37 125.91L263.89 131.18L250.04 137.66L237.02 144.95L225.03 152.62L214.3 160.26L205.02 167.47L197.41 173.82L191.68 178.91L188.03 182.31L186.69 183.62L186.42 183.87L186.14 184.09L185.85 184.29L185.54 184.46L185.22 184.6L184.9 184.72L184.57 184.81L184.23 184.88L183.89 184.92L183.54 184.93L183.27 184.92L183 184.9L182.73 184.86L182.46 184.8L182.2 184.72L181.94 184.63L181.68 184.51L181.43 184.38L181.19 184.24L180.95 184.07L180.46 183.65L180.04 183.18L179.69 182.66L179.43 182.1L179.25 181.51L179.15 180.91L179.13 180.29L179.21 179.67L179.37 179.06L179.62 178.46L181.84 174.41L184.18 170.54L186.61 166.85L189.11 163.36L191.63 160.07L194.15 156.98L196.65 154.1L199.09 151.44L201.44 149.01L203.67 146.8L202.08 147.1L200.66 147.43L199.41 147.76L198.33 148.09L197.41 148.41L196.67 148.7L196.09 148.94L195.67 149.13L195.41 149.26L195.32 149.31L194.69 149.61L194.03 149.81L193.36 149.9L192.69 149.89L192.04 149.78L191.4 149.57L190.81 149.27L190.26 148.88L189.77 148.4L189.35 147.84L189.02 147.22L188.8 146.57L188.68 145.91L188.67 145.25L188.75 144.59L188.94 143.96L189.21 143.35L189.58 142.79L190.04 142.29L190.58 141.85L200.47 135.74L210.37 130.72L220.14 126.68L229.64 123.52L238.72 121.14L247.23 119.42L255.02 118.27L261.94 117.57L267.85 117.24L272.61 117.15L273.49 117.15L274.28 117.16ZM243.58 129.11L240.5 129.79L237.34 130.56L234.12 131.43L230.83 132.39L227.5 133.46L224.12 134.64L220.7 135.93L217.25 137.34L217.71 137.47L218.14 137.64L218.56 137.85L218.94 138.1L219.3 138.4L219.63 138.73L219.92 139.09L220.17 139.49L220.38 139.91L220.55 140.37L220.68 140.91L220.74 141.46L220.73 142L220.66 142.53L220.52 143.05L220.33 143.55L220.07 144.03L219.75 144.47L219.38 144.87L218.95 145.23L218.87 145.29L218.67 145.44L218.36 145.68L217.94 146.01L217.42 146.43L216.81 146.93L216.11 147.52L215.32 148.19L214.45 148.94L213.51 149.77L216.67 147.54L219.93 145.29L223.3 143.04L226.77 140.8L230.34 138.57L234 136.37L237.75 134.2L241.58 132.08L245.5 130.01L249.48 128L246.57 128.52L243.58 129.11Z" id="c1WUhBamW"></path></defs><g visibility="inherit"><g visibility="inherit"><use xlink:href="#f1mPpoIPDH" opacity="1" fill="#3e5e9a" fill-opacity="1"></use><g><use xlink:href="#f1mPpoIPDH" opacity="1" fill-opacity="0" stroke="#000000" stroke-width="1" stroke-opacity="0"></use></g></g><g visibility="inherit"><use xlink:href="#c3E6sIV3p5" opacity="1" fill="#3e5e9a" fill-opacity="1"></use><g><use xlink:href="#c3E6sIV3p5" opacity="1" fill-opacity="0" stroke="#000000" stroke-width="1" stroke-opacity="0"></use></g></g><g visibility="inherit"><use xlink:href="#f5O0UqNLGy" opacity="1" fill="#3e5e9a" fill-opacity="1"></use><g><use xlink:href="#f5O0UqNLGy" opacity="1" fill-opacity="0" stroke="#000000" stroke-width="1" stroke-opacity="0"></use></g></g><g visibility="inherit"><use xlink:href="#j19JriYkhx" opacity="1" fill="#3e5e9a" fill-opacity="1"></use><g><use xlink:href="#j19JriYkhx" opacity="1" fill-opacity="0" stroke="#000000" stroke-width="1" stroke-opacity="0"></use></g></g><g visibility="inherit"><use xlink:href="#equSm9eIi" opacity="1" fill="#3e5e9a" fill-opacity="1"></use><g><use xlink:href="#equSm9eIi" opacity="1" fill-opacity="0" stroke="#000000" stroke-width="1" stroke-opacity="0"></use></g></g><g visibility="inherit"><use xlink:href="#c17BrkyqYu" opacity="1" fill="#3e5e9a" fill-opacity="1"></use><g><use xlink:href="#c17BrkyqYu" opacity="1" fill-opacity="0" stroke="#000000" stroke-width="1" stroke-opacity="0"></use></g></g><g visibility="inherit"><use xlink:href="#a5lyfUI4a" opacity="1" fill="#3e5e9a" fill-opacity="1"></use><g><use xlink:href="#a5lyfUI4a" opacity="1" fill-opacity="0" stroke="#000000" stroke-width="1" stroke-opacity="0"></use></g></g><g visibility="inherit"><use xlink:href="#a1n0BN1YZ5" opacity="1" fill="#3e5e9a" fill-opacity="1"></use><g><use xlink:href="#a1n0BN1YZ5" opacity="1" fill-opacity="0" stroke="#000000" stroke-width="1" stroke-opacity="0"></use></g></g><g visibility="inherit"><use xlink:href="#c1vvNoplEN" opacity="1" fill="#3e5e9a" fill-opacity="1"></use><g><use xlink:href="#c1vvNoplEN" opacity="1" fill-opacity="0" stroke="#000000" stroke-width="1" stroke-opacity="0"></use></g></g><g visibility="inherit"><use xlink:href="#hNWSiNtZl" opacity="1" fill="#3e5e9a" fill-opacity="1"></use><g><use xlink:href="#hNWSiNtZl" opacity="1" fill-opacity="0" stroke="#000000" stroke-width="1" stroke-opacity="0"></use></g></g><g visibility="inherit"><use xlink:href="#a3Huif2Sky" opacity="1" fill="#3e5e9a" fill-opacity="1"></use><g><use xlink:href="#a3Huif2Sky" opacity="1" fill-opacity="0" stroke="#000000" stroke-width="1" stroke-opacity="0"></use></g></g><g visibility="inherit"><use xlink:href="#c4rUC85Ic" opacity="1" fill="#3e5e9a" fill-opacity="1"></use><g><use xlink:href="#c4rUC85Ic" opacity="1" fill-opacity="0" stroke="#000000" stroke-width="1" stroke-opacity="0"></use></g></g><g visibility="inherit"><use xlink:href="#c1SGOcLzCC" opacity="1" fill="#3e5e9a" fill-opacity="1"></use><g><use xlink:href="#c1SGOcLzCC" opacity="1" fill-opacity="0" stroke="#000000" stroke-width="1" stroke-opacity="0"></use></g></g><g visibility="inherit"><use xlink:href="#b8IERjGHJ" opacity="1" fill="#3e5e9a" fill-opacity="1"></use><g><use xlink:href="#b8IERjGHJ" opacity="1" fill-opacity="0" stroke="#000000" stroke-width="1" stroke-opacity="0"></use></g></g><g visibility="inherit"><use xlink:href="#c1WUhBamW" opacity="1" fill="#3e5e9a" fill-opacity="1"></use><g><use xlink:href="#c1WUhBamW" opacity="1" fill-opacity="0" stroke="#000000" stroke-width="1" stroke-opacity="0"></use></g></g></g></svg>