<?xml version="1.0" encoding="UTF-8" standalone="no"?>
<!DOCTYPE svg PUBLIC "-//W3C//DTD SVG 1.1//EN" "http://www.w3.org/Graphics/SVG/1.1/DTD/svg11.dtd">
<svg version="1.1" xmlns="http://www.w3.org/2000/svg" xmlns:xlink="http://www.w3.org/1999/xlink" preserveAspectRatio="xMidYMid meet" viewBox="110.08 25.6 424.96 460.80000000000007"><defs><path d="M321.35 103.3L329.52 104.41L337.55 105.95L345.43 107.9L353.14 110.24L360.67 112.98L368.02 116.09L375.17 119.57L382.1 123.4L388.82 127.57L395.3 132.08L401.53 136.89L407.5 142.02L413.2 147.44L418.62 153.14L423.75 159.11L428.56 165.34L433.07 171.82L437.24 178.54L441.07 185.47L444.55 192.62L447.66 199.97L450.4 207.5L452.74 215.21L454.69 223.09L456.23 231.12L457.34 239.29L458.01 247.59L458.24 256L458.01 264.41L457.34 272.71L456.23 280.88L454.69 288.91L452.74 296.79L450.4 304.5L447.66 312.03L444.55 319.38L441.07 326.53L437.24 333.46L433.07 340.18L428.56 346.66L423.75 352.89L418.62 358.86L413.2 364.56L407.5 369.98L401.53 375.11L395.3 379.92L388.82 384.43L382.1 388.6L375.17 392.43L368.02 395.91L360.67 399.02L353.14 401.76L345.43 404.1L337.55 406.05L329.52 407.59L321.35 408.7L313.05 409.37L304.64 409.6L304.36 409.59L304.08 409.57L303.81 409.53L303.54 409.48L303.28 409.42L303.02 409.34L302.77 409.25L302.52 409.14L302.29 409.03L302.05 408.9L301.83 408.76L301.61 408.61L301.41 408.45L301.21 408.28L301.02 408.1L300.84 407.91L300.67 407.71L300.51 407.51L300.36 407.29L300.22 407.07L300.09 406.83L299.98 406.6L299.87 406.35L299.78 406.1L299.7 405.84L299.64 405.58L299.59 405.31L299.55 405.04L299.53 404.76L299.52 404.48L299.53 404.2L299.55 403.92L299.59 403.65L299.64 403.38L299.7 403.12L299.78 402.86L299.87 402.61L299.98 402.36L300.09 402.13L300.22 401.89L300.36 401.67L300.51 401.45L300.67 401.25L300.84 401.05L301.02 400.86L301.21 400.68L301.41 400.51L301.61 400.35L301.83 400.2L302.05 400.06L302.29 399.93L302.52 399.82L302.77 399.71L303.02 399.62L303.28 399.54L303.54 399.48L303.81 399.43L304.08 399.39L304.36 399.37L304.64 399.36L312.49 399.15L320.24 398.52L327.86 397.48L335.36 396.05L342.71 394.23L349.9 392.04L356.94 389.49L363.79 386.58L370.47 383.33L376.94 379.76L383.21 375.86L389.25 371.66L395.07 367.16L400.64 362.38L405.96 357.32L411.02 352L415.8 346.43L420.3 340.61L424.5 334.57L428.4 328.3L431.97 321.83L435.22 315.15L438.13 308.3L440.68 301.26L442.87 294.07L444.69 286.72L446.12 279.22L447.16 271.6L447.79 263.85L448 256L447.79 248.15L447.16 240.4L446.12 232.78L444.69 225.28L442.87 217.93L440.68 210.74L438.13 203.7L435.22 196.85L431.97 190.17L428.4 183.7L424.5 177.43L420.3 171.39L415.8 165.57L411.02 160L405.96 154.68L400.64 149.62L395.07 144.84L389.25 140.34L383.21 136.14L376.94 132.24L370.47 128.67L363.79 125.42L356.94 122.51L349.9 119.96L342.71 117.77L335.36 115.95L327.86 114.52L320.24 113.48L312.49 112.85L304.64 112.64L296.93 112.84L289.33 113.45L281.84 114.45L274.48 115.83L267.25 117.59L260.17 119.7L253.25 122.17L246.5 124.97L239.92 128.1L233.53 131.56L227.34 135.32L221.36 139.38L215.61 143.73L210.08 148.36L204.79 153.25L199.75 158.4L194.97 163.8L190.47 169.43L186.25 175.29L182.32 181.37L178.69 187.64L175.37 194.12L172.38 200.77L169.73 207.6L167.42 214.59L165.46 221.74L163.87 229.03L162.65 236.45L161.82 243.99L161.39 251.64L162.26 251.89L163.11 252.18L163.94 252.5L164.76 252.86L165.56 253.25L166.34 253.68L167.09 254.13L167.83 254.62L168.54 255.14L169.23 255.68L169.9 256.26L170.54 256.86L171.15 257.49L171.74 258.14L172.3 258.82L172.83 259.52L173.32 260.25L173.79 261L174.23 261.76L174.63 262.55L175 263.36L175.33 264.19L175.63 265.03L175.89 265.89L176.12 266.77L176.3 267.66L176.45 268.57L176.55 269.49L176.62 270.42L176.64 271.36L176.61 272.48L176.52 273.59L176.37 274.68L176.17 275.75L175.91 276.8L175.59 277.83L175.23 278.83L174.81 279.81L174.35 280.76L173.84 281.69L173.28 282.58L172.68 283.45L172.04 284.28L171.36 285.07L170.64 285.83L169.88 286.56L169.08 287.24L168.25 287.88L167.38 288.48L166.49 289.04L165.56 289.55L164.61 290.01L163.63 290.43L162.63 290.79L161.6 291.11L160.55 291.37L159.48 291.57L158.39 291.72L157.28 291.81L156.16 291.84L155.04 291.81L153.93 291.72L152.84 291.57L151.77 291.37L150.72 291.11L149.69 290.79L148.69 290.43L147.71 290.01L146.76 289.55L145.83 289.04L144.94 288.48L144.07 287.88L143.24 287.24L142.44 286.56L141.68 285.83L140.96 285.07L140.28 284.28L139.64 283.45L139.04 282.58L138.48 281.69L137.97 280.76L137.51 279.81L137.09 278.83L136.73 277.83L136.41 276.8L136.15 275.75L135.95 274.68L135.8 273.59L135.71 272.48L135.68 271.36L135.7 270.41L135.77 269.47L135.87 268.54L136.02 267.63L136.21 266.73L136.44 265.85L136.7 264.98L137.01 264.13L137.35 263.3L137.72 262.48L138.13 261.69L138.57 260.91L139.05 260.16L139.56 259.43L140.09 258.73L140.66 258.04L141.25 257.39L141.88 256.76L142.53 256.15L143.2 255.58L143.9 255.03L144.63 254.51L145.37 254.03L146.14 253.58L146.93 253.15L147.74 252.77L148.57 252.41L149.41 252.1L150.27 251.81L151.15 251.57L151.6 243.36L152.48 235.27L153.78 227.31L155.47 219.49L157.56 211.82L160.03 204.32L162.87 196.99L166.07 189.85L169.62 182.9L173.5 176.17L177.71 169.65L182.23 163.36L187.06 157.31L192.18 151.52L197.58 145.99L203.24 140.74L209.17 135.77L215.34 131.11L221.75 126.75L228.39 122.71L235.24 119L242.29 115.64L249.53 112.63L256.95 109.98L264.54 107.71L272.29 105.83L280.19 104.35L288.22 103.27L296.37 102.62L304.64 102.4L313.05 102.63L321.35 103.3ZM152.93 261.64L151.46 262.26L150.12 263.1L148.92 264.12L147.9 265.31L147.06 266.66L146.44 268.12L146.05 269.7L145.92 271.36L146.05 273.02L146.44 274.6L147.06 276.06L147.9 277.41L148.92 278.6L150.12 279.62L151.46 280.46L152.93 281.08L154.5 281.47L156.16 281.6L157.82 281.47L159.39 281.08L160.86 280.46L162.2 279.62L163.4 278.6L164.42 277.41L165.26 276.06L165.88 274.6L166.27 273.02L166.4 271.36L166.27 269.7L165.88 268.12L165.26 266.66L164.42 265.31L163.4 264.12L162.2 263.1L160.86 262.26L159.39 261.64L157.82 261.25L156.16 261.12L154.5 261.25L152.93 261.64Z" id="dWAamILHZ"></path><path d="M462.4 51.48L464.42 51.83L466.4 52.3L468.32 52.9L470.19 53.62L471.99 54.45L473.73 55.4L475.41 56.45L477 57.61L478.52 58.86L479.95 60.21L481.3 61.64L482.55 63.16L483.71 64.75L484.76 66.43L485.71 68.17L486.54 69.97L487.26 71.84L487.86 73.76L488.33 75.74L488.68 77.76L488.89 79.82L488.96 81.92L488.94 83.06L488.88 84.19L488.77 85.3L488.63 86.41L488.45 87.5L488.23 88.58L487.97 89.64L487.68 90.69L487.35 91.73L486.98 92.75L486.58 93.75L486.14 94.73L485.68 95.7L485.18 96.64L484.64 97.57L484.08 98.48L483.49 99.36L482.86 100.22L482.21 101.06L481.53 101.88L480.83 102.67L480.09 103.44L479.33 104.19L478.55 104.9L483.02 110.2L487.31 115.61L491.44 121.14L495.38 126.78L499.15 132.52L502.74 138.37L506.15 144.31L509.38 150.34L512.43 156.46L515.29 162.67L517.97 168.95L520.45 175.31L522.75 181.74L524.86 188.24L526.77 194.81L528.49 201.43L530.01 208.1L531.34 214.83L532.46 221.6L533.39 228.41L534.11 235.26L534.62 242.15L534.94 249.06L535.04 256L534.51 271.75L532.93 287.22L530.35 302.37L526.8 317.18L522.3 331.6L516.91 345.59L510.64 359.14L503.54 372.19L495.64 384.73L486.97 396.7L477.57 408.08L467.48 418.84L456.73 428.93L445.34 438.33L433.37 447L420.84 454.9L407.78 462L394.24 468.26L380.24 473.66L365.82 478.16L351.02 481.71L335.86 484.29L320.39 485.87L304.64 486.4L304.29 486.39L303.94 486.35L303.61 486.3L303.28 486.22L302.96 486.12L302.65 486L302.34 485.86L302.05 485.7L301.78 485.53L301.51 485.33L301.26 485.13L301.02 484.9L300.79 484.66L300.59 484.41L300.39 484.14L300.22 483.87L300.06 483.58L299.92 483.27L299.8 482.96L299.7 482.64L299.62 482.31L299.57 481.98L299.53 481.63L299.52 481.28L299.53 480.93L299.57 480.58L299.62 480.25L299.7 479.92L299.8 479.6L299.92 479.29L300.06 478.98L300.22 478.69L300.39 478.42L300.59 478.15L300.79 477.9L301.02 477.66L301.26 477.43L301.51 477.23L301.78 477.03L302.05 476.86L302.34 476.7L302.65 476.56L302.96 476.44L303.28 476.34L303.61 476.26L303.94 476.21L304.29 476.17L304.64 476.16L319.69 475.65L334.47 474.15L348.96 471.68L363.1 468.28L376.88 463.99L390.26 458.83L403.2 452.84L415.67 446.06L427.65 438.51L439.09 430.23L449.97 421.25L460.25 411.61L469.89 401.33L478.87 390.45L487.15 379.01L494.7 367.03L501.48 354.56L507.47 341.62L512.63 328.24L516.92 314.46L520.32 300.32L522.79 285.83L524.29 271.05L524.8 256L524.7 249.33L524.4 242.68L523.9 236.07L523.2 229.48L522.31 222.93L521.22 216.42L519.94 209.96L518.47 203.55L516.81 197.18L514.96 190.88L512.93 184.63L510.71 178.46L508.3 172.35L505.72 166.31L502.96 160.35L500.01 154.47L496.89 148.68L493.59 142.98L490.12 137.37L486.48 131.87L482.67 126.46L478.68 121.16L474.53 115.97L470.22 110.89L470.2 110.87L470.18 110.85L470.16 110.83L470.15 110.81L470.13 110.78L470.12 110.76L470.11 110.74L470.09 110.71L470.08 110.69L470.07 110.67L470.05 110.64L470.04 110.62L470.03 110.59L470.01 110.55L469.99 110.52L469.98 110.5L469.97 110.47L469.96 110.45L469.94 110.42L469.93 110.4L469.92 110.38L469.9 110.35L469.89 110.33L469.44 110.51L468.98 110.69L468.52 110.85L468.06 111.02L467.6 111.17L467.13 111.32L466.66 111.46L466.19 111.59L465.71 111.71L465.23 111.83L464.75 111.94L464.26 112.04L463.78 112.13L463.28 112.22L462.79 112.3L462.3 112.37L461.8 112.43L461.3 112.49L460.79 112.53L460.29 112.57L459.78 112.6L459.27 112.62L458.75 112.64L458.24 112.64L456.14 112.57L454.08 112.36L452.06 112.01L450.08 111.54L448.16 110.94L446.29 110.22L444.49 109.39L442.75 108.44L441.07 107.39L439.48 106.23L437.96 104.98L436.53 103.63L435.18 102.2L433.93 100.68L432.77 99.09L431.72 97.41L430.77 95.67L429.94 93.87L429.22 92L428.62 90.08L428.15 88.1L427.8 86.08L427.59 84.02L427.52 81.92L427.59 79.82L427.8 77.76L428.15 75.74L428.62 73.76L429.22 71.84L429.94 69.97L430.77 68.17L431.72 66.43L432.77 64.75L433.93 63.16L435.18 61.64L436.53 60.21L437.96 58.86L439.48 57.61L441.07 56.45L442.75 55.4L444.49 54.45L446.29 53.62L448.16 52.9L450.08 52.3L452.06 51.83L454.08 51.48L456.14 51.27L458.24 51.2L460.34 51.27L462.4 51.48ZM451.77 62.49L448.84 63.73L446.15 65.4L443.77 67.44L441.72 69.83L440.05 72.52L438.81 75.45L438.03 78.6L437.76 81.92L438.03 85.24L438.81 88.39L440.05 91.32L441.72 94.01L443.77 96.4L446.15 98.44L448.84 100.11L451.77 101.35L454.92 102.13L458.24 102.4L461.56 102.13L464.71 101.35L467.64 100.11L470.33 98.44L472.71 96.4L474.76 94.01L476.43 91.32L477.67 88.39L478.45 85.24L478.72 81.92L478.45 78.6L477.67 75.45L476.43 72.52L474.76 69.83L472.71 67.44L470.33 65.4L467.64 63.73L464.71 62.49L461.56 61.71L458.24 61.44L454.92 61.71L451.77 62.49Z" id="aduZHPKfV"></path><path d="M321.85 62.19L330.3 63.13L338.65 64.42L346.87 66.06L354.97 68.04L362.93 70.36L370.74 73L378.41 75.96L385.91 79.24L393.25 82.82L400.41 86.69L407.39 90.85L414.18 95.28L420.77 99.99L427.15 104.96L433.32 110.19L439.26 115.66L444.98 121.38L450.45 127.32L455.68 133.49L460.65 139.87L465.36 146.46L469.79 153.25L473.95 160.23L477.82 167.39L481.4 174.73L484.68 182.23L487.64 189.9L490.28 197.71L492.6 205.67L494.58 213.77L496.22 221.99L497.51 230.34L498.45 238.79L499.01 247.35L499.2 256L499.2 256.23L499.18 256.45L499.16 256.68L499.12 256.9L499.08 257.11L499.03 257.33L498.97 257.54L498.9 257.74L498.82 257.94L498.73 258.14L498.64 258.34L498.54 258.52L498.43 258.71L498.31 258.89L498.19 259.06L498.06 259.23L497.92 259.39L497.78 259.55L497.63 259.7L497.47 259.84L497.31 259.98L497.14 260.11L496.97 260.23L496.79 260.35L496.6 260.46L496.42 260.56L496.22 260.65L496.02 260.74L495.82 260.82L495.62 260.89L495.41 260.95L495.19 261L494.98 261.04L494.76 261.08L494.53 261.1L494.31 261.12L494.08 261.12L493.85 261.12L493.63 261.1L493.4 261.08L493.18 261.04L492.97 261L492.75 260.95L492.54 260.89L492.34 260.82L492.14 260.74L491.94 260.65L491.74 260.56L491.56 260.46L491.37 260.35L491.19 260.23L491.02 260.11L490.85 259.98L490.69 259.84L490.53 259.7L490.38 259.55L490.24 259.39L490.1 259.23L489.97 259.06L489.85 258.89L489.73 258.71L489.62 258.52L489.52 258.34L489.43 258.14L489.34 257.94L489.26 257.74L489.19 257.54L489.13 257.33L489.08 257.11L489.04 256.9L489 256.68L488.98 256.45L488.96 256.23L488.96 256L488.78 247.8L488.25 239.69L487.36 231.69L486.14 223.78L484.59 215.99L482.71 208.32L480.51 200.78L478.01 193.38L475.2 186.11L472.1 179L468.71 172.05L465.04 165.27L461.1 158.65L456.9 152.22L452.44 145.98L447.73 139.93L442.78 134.09L437.59 128.46L432.18 123.05L426.55 117.86L420.71 112.91L414.66 108.2L408.42 103.74L401.99 99.54L395.37 95.6L388.59 91.93L381.64 88.54L374.53 85.44L367.26 82.63L359.86 80.13L352.32 77.93L344.65 76.05L336.86 74.5L328.95 73.28L320.95 72.39L312.84 71.86L304.64 71.68L296.44 71.86L288.33 72.39L280.33 73.28L272.42 74.5L264.63 76.05L256.96 77.93L249.42 80.13L242.02 82.63L234.75 85.44L227.64 88.54L220.69 91.93L213.91 95.6L207.29 99.54L200.86 103.74L194.62 108.2L188.57 112.91L182.73 117.86L177.1 123.05L171.69 128.46L166.5 134.09L161.55 139.93L156.84 145.98L152.38 152.22L148.18 158.65L144.24 165.27L140.57 172.05L137.18 179L134.08 186.11L131.27 193.38L128.77 200.78L126.57 208.32L124.69 215.99L123.14 223.78L121.92 231.69L121.03 239.69L120.5 247.8L120.32 256L120.37 260.55L120.54 265.08L120.81 269.59L121.19 274.08L121.68 278.54L122.28 282.98L122.98 287.4L123.78 291.78L124.69 296.14L125.7 300.47L126.82 304.76L128.03 309.02L129.35 313.24L130.77 317.42L132.29 321.57L133.9 325.68L135.62 329.74L137.43 333.76L139.34 337.73L141.34 341.66L143.44 345.54L145.63 349.37L147.92 353.15L150.3 356.87L152.77 360.54L155.33 364.16L157.99 367.71L160.73 371.21L163.56 374.65L166.48 378.02L169.48 381.33L172.58 384.58L175.76 387.75L179.02 390.86L182.37 393.9L185.8 396.87L189.31 399.76L189.99 398.75L190.7 397.76L191.43 396.79L192.19 395.84L192.97 394.91L193.77 394L194.6 393.11L195.45 392.25L196.32 391.41L197.21 390.59L198.13 389.79L199.07 389.02L200.02 388.27L201 387.54L201.99 386.85L203.01 386.17L204.04 385.53L205.09 384.91L206.16 384.32L207.25 383.75L208.35 383.22L209.47 382.71L210.6 382.23L211.75 381.78L212.91 381.37L214.09 380.98L215.28 380.62L216.49 380.3L217.7 380.01L218.93 379.75L220.17 379.52L221.43 379.33L222.69 379.17L223.96 379.04L225.25 378.95L226.54 378.9L227.84 378.88L229.28 378.9L230.7 378.97L232.11 379.08L233.51 379.23L234.9 379.42L236.28 379.66L237.64 379.93L238.98 380.25L240.31 380.6L241.63 380.99L242.93 381.42L244.21 381.89L245.47 382.39L246.71 382.93L247.94 383.51L249.14 384.12L250.33 384.76L251.49 385.44L252.63 386.15L253.75 386.89L254.85 387.67L255.92 388.47L256.97 389.31L257.99 390.17L258.99 391.06L259.96 391.98L260.9 392.93L261.82 393.91L262.7 394.91L263.56 395.94L264.39 396.99L265.19 398.06L265.96 399.16L266.7 400.29L267.41 401.43L268.08 402.6L268.72 403.78L268.75 403.78L268.79 403.78L268.82 403.78L268.86 403.78L268.89 403.78L268.92 403.78L268.96 403.78L269.06 403.77L269.1 403.77L269.13 403.77L269.16 403.77L269.2 403.77L269.23 403.77L269.27 403.77L269.3 403.77L269.33 403.77L269.37 403.77L269.4 403.77L269.44 403.77L269.47 403.77L269.5 403.77L269.54 403.77L269.57 403.77L269.61 403.78L269.64 403.78L269.68 403.78L269.71 403.79L269.75 403.79L269.78 403.79L269.81 403.8L269.85 403.81L269.88 403.81L269.92 403.82L269.95 403.83L269.99 403.83L271.53 404.22L273.04 404.61L274.51 405.02L275.93 405.43L277.32 405.86L278.66 406.3L279.97 406.75L281.23 407.21L282.45 407.68L283.64 408.17L284.78 408.66L285.88 409.17L286.93 409.68L287.95 410.21L288.92 410.74L289.85 411.29L290.74 411.84L291.59 412.41L292.4 412.99L293.16 413.57L293.88 414.17L294.56 414.78L295.19 415.39L295.79 416.02L296.34 416.65L296.84 417.29L297.3 417.95L297.72 418.61L298.1 419.28L298.43 419.96L298.72 420.65L298.96 421.34L299.16 422.05L299.32 422.77L299.43 423.49L299.5 424.22L299.52 424.96L299.49 425.77L299.41 426.56L299.27 427.35L299.08 428.12L298.83 428.87L298.53 429.62L298.19 430.35L297.79 431.07L297.34 431.78L296.84 432.47L296.3 433.15L295.71 433.82L295.08 434.47L294.4 435.11L293.68 435.74L292.91 436.36L292.1 436.96L291.25 437.56L290.37 438.13L289.44 438.7L288.48 439.25L287.47 439.79L286.44 440.32L285.36 440.83L284.26 441.33L283.11 441.82L281.94 442.29L280.74 442.75L279.5 443.2L278.24 443.63L276.94 444.06L275.62 444.47L274.28 444.86L272.9 445.25L271.5 445.62L270.08 445.97L268.64 446.32L267.99 447.5L267.32 448.65L266.61 449.79L265.87 450.91L265.1 452L264.3 453.07L263.47 454.11L262.61 455.13L261.72 456.12L260.81 457.09L259.86 458.03L258.89 458.95L257.9 459.83L256.88 460.69L255.83 461.52L254.76 462.32L253.67 463.09L252.55 463.82L251.41 464.53L250.25 465.2L249.07 465.84L247.87 466.45L246.65 467.02L245.41 467.55L244.15 468.05L242.87 468.52L241.58 468.94L240.27 469.33L238.94 469.69L237.6 470L236.24 470.27L234.88 470.5L233.49 470.69L232.1 470.84L230.69 470.95L229.27 471.02L227.84 471.04L226.41 471.02L224.99 470.95L223.58 470.84L222.19 470.69L220.8 470.5L219.44 470.27L218.08 470L216.74 469.69L215.41 469.33L214.1 468.94L212.81 468.52L211.53 468.05L210.27 467.55L209.03 467.02L207.81 466.45L206.61 465.84L205.43 465.2L204.27 464.53L203.13 463.82L202.01 463.09L200.92 462.32L199.85 461.52L198.8 460.69L197.78 459.83L196.79 458.95L195.82 458.03L194.87 457.09L193.96 456.12L193.07 455.13L192.21 454.11L191.38 453.07L190.58 452L189.81 450.91L189.07 449.79L188.36 448.65L187.69 447.5L187.04 446.32L185.6 445.97L184.18 445.62L182.78 445.25L181.4 444.86L180.06 444.47L178.74 444.06L177.44 443.63L176.18 443.2L174.94 442.75L173.74 442.29L172.57 441.82L171.42 441.33L170.32 440.83L169.24 440.32L168.21 439.79L167.2 439.25L166.24 438.7L165.31 438.13L164.43 437.56L163.58 436.96L162.77 436.36L162 435.74L161.28 435.11L160.6 434.47L159.97 433.82L159.38 433.15L158.84 432.47L158.34 431.78L157.89 431.07L157.49 430.35L157.15 429.62L156.85 428.87L156.6 428.12L156.41 427.35L156.27 426.56L156.19 425.77L156.16 424.96L156.18 424.3L156.23 423.65L156.33 423L156.46 422.36L156.62 421.72L156.82 421.1L157.06 420.48L157.34 419.86L157.65 419.25L157.99 418.65L158.37 418.06L158.79 417.48L159.24 416.9L159.72 416.33L160.24 415.76L160.8 415.2L161.39 414.66L162.01 414.11L162.67 413.58L163.36 413.05L164.09 412.54L164.85 412.03L165.64 411.53L166.46 411.03L167.32 410.55L168.21 410.07L169.13 409.6L170.09 409.14L171.08 408.69L172.1 408.25L173.15 407.81L174.23 407.39L175.35 406.97L176.49 406.57L177.67 406.17L178.88 405.78L180.12 405.4L176.55 402.35L173.06 399.23L169.66 396.04L166.35 392.78L163.12 389.45L159.98 386.05L156.93 382.59L153.96 379.06L151.09 375.47L148.3 371.82L145.61 368.12L143.01 364.35L140.5 360.53L138.09 356.65L135.77 352.72L133.54 348.74L131.41 344.71L129.38 340.63L127.44 336.5L125.6 332.33L123.86 328.12L122.22 323.86L120.68 319.56L119.24 315.23L117.91 310.85L116.67 306.44L115.54 302L114.51 297.52L113.59 293.01L112.77 288.47L112.06 283.91L111.46 279.31L110.97 274.69L110.58 270.05L110.3 265.39L110.14 260.7L110.08 256L110.27 247.35L110.83 238.79L111.77 230.34L113.06 221.99L114.7 213.77L116.68 205.67L119 197.71L121.64 189.9L124.6 182.23L127.88 174.73L131.46 167.39L135.33 160.23L139.49 153.25L143.92 146.46L148.63 139.87L153.6 133.49L158.83 127.32L164.3 121.38L170.02 115.66L175.96 110.19L182.13 104.96L188.51 99.99L195.1 95.28L201.89 90.85L208.87 86.69L216.03 82.82L223.37 79.24L230.87 75.96L238.54 73L246.35 70.36L254.31 68.04L262.41 66.06L270.63 64.42L278.98 63.13L287.43 62.19L295.99 61.63L304.64 61.44L313.29 61.63L321.85 62.19ZM249.3 449.47L246.68 449.73L244.03 449.95L241.36 450.13L238.67 450.29L235.98 450.41L233.27 450.49L230.56 450.54L227.84 450.56L225.12 450.54L222.41 450.49L219.7 450.41L217.01 450.29L214.32 450.13L211.65 449.95L209 449.73L206.38 449.47L203.78 449.19L201.21 448.87L203.27 450.97L205.49 452.91L207.86 454.67L210.38 456.22L213.02 457.57L215.79 458.7L218.67 459.6L221.64 460.26L224.7 460.66L227.84 460.8L230.98 460.66L234.04 460.26L237.01 459.6L239.89 458.7L242.66 457.57L245.3 456.22L247.82 454.67L250.19 452.91L252.41 450.97L254.47 448.87L251.9 449.19L249.3 449.47ZM220.2 389.94L216.58 390.94L213.13 392.29L209.86 393.99L206.79 396L203.96 398.3L201.37 400.88L199.05 403.7L197.02 406.75L197.1 407.42L197.1 408.07L197 408.71L196.83 409.32L196.59 409.89L196.28 410.44L195.9 410.94L195.46 411.39L194.96 411.79L194.42 412.13L193.97 413.34L193.57 414.56L193.22 415.8L192.9 417.07L192.63 418.34L192.41 419.64L192.23 420.95L192.1 422.27L192.03 423.61L192 424.96L192.02 426.27L192.1 427.56L192.22 428.84L192.38 430.11L192.59 431.36L192.85 432.6L193.14 433.82L193.48 435.03L193.85 436.21L194.27 437.39L197.1 437.9L200.05 438.37L203.13 438.79L206.32 439.18L209.62 439.51L213.04 439.79L216.58 440.02L220.22 440.18L223.98 440.29L227.84 440.32L231.7 440.29L235.46 440.18L239.1 440.02L242.64 439.79L246.06 439.51L249.36 439.18L252.55 438.79L255.63 438.37L258.58 437.9L261.41 437.39L261.83 436.21L262.2 435.03L262.54 433.82L262.83 432.6L263.09 431.36L263.3 430.11L263.46 428.84L263.58 427.56L263.66 426.27L263.68 424.96L263.21 419.16L261.85 413.65L259.67 408.51L256.76 403.81L253.17 399.63L248.99 396.05L244.3 393.13L239.16 390.95L233.65 389.59L227.84 389.12L223.96 389.33L220.2 389.94ZM273.23 417.11L273.39 418.07L273.53 419.04L273.65 420.01L273.74 420.99L273.82 421.97L273.88 422.96L273.91 423.96L273.92 424.96L273.91 425.96L273.88 426.95L273.82 427.93L273.75 428.91L273.65 429.88L273.53 430.85L273.4 431.82L273.24 432.77L273.06 433.72L272.87 434.67L275.9 433.7L278.64 432.7L281.08 431.68L283.22 430.66L285.04 429.64L286.55 428.63L287.74 427.65L288.59 426.7L289.11 425.8L289.28 424.96L289.14 424.29L288.71 423.51L287.97 422.63L286.91 421.68L285.51 420.66L283.76 419.6L281.63 418.5L279.12 417.4L276.2 416.29L272.86 415.21L273.06 416.16L273.23 417.11ZM176.43 417.45L173.9 418.58L171.78 419.69L170.04 420.77L168.67 421.79L167.64 422.73L166.94 423.59L166.53 424.34L166.4 424.96L166.57 425.8L167.09 426.7L167.94 427.65L169.13 428.63L170.64 429.64L172.46 430.66L174.6 431.68L177.04 432.7L179.78 433.7L182.81 434.67L182.62 433.72L182.44 432.77L182.28 431.82L182.15 430.85L182.03 429.88L181.93 428.91L181.86 427.93L181.8 426.95L181.77 425.96L181.76 424.96L181.77 423.96L181.8 422.96L181.86 421.97L181.94 420.99L182.03 420.01L182.15 419.04L182.29 418.07L182.45 417.11L182.62 416.16L182.82 415.21L179.4 416.32L176.43 417.45Z" id="a2cS7jdK5R"></path><path d="M417.01 26.38L419.21 27.32L421.23 28.57L423.02 30.1L424.55 31.89L425.8 33.91L426.74 36.11L427.32 38.47L427.52 40.96L427.32 43.45L426.74 45.81L425.8 48.01L424.55 50.03L423.02 51.82L421.23 53.35L419.21 54.6L417.01 55.54L414.65 56.12L412.16 56.32L409.67 56.12L407.31 55.54L405.11 54.6L403.09 53.35L401.3 51.82L399.77 50.03L398.52 48.01L397.58 45.81L397 43.45L396.8 40.96L397 38.47L397.58 36.11L398.52 33.91L399.77 31.89L401.3 30.1L403.09 28.57L405.11 27.32L407.31 26.38L409.67 25.8L412.16 25.6L414.65 25.8L417.01 26.38ZM410.54 36.1L409.81 36.41L409.14 36.83L408.54 37.34L408.03 37.94L407.61 38.61L407.3 39.34L407.11 40.13L407.04 40.96L407.11 41.79L407.3 42.58L407.61 43.31L408.03 43.98L408.54 44.58L409.14 45.09L409.81 45.51L410.54 45.82L411.33 46.01L412.16 46.08L412.99 46.01L413.78 45.82L414.51 45.51L415.18 45.09L415.78 44.58L416.29 43.98L416.71 43.31L417.02 42.58L417.21 41.79L417.28 40.96L417.21 40.13L417.02 39.34L416.71 38.61L416.29 37.94L415.78 37.34L415.18 36.83L414.51 36.41L413.78 36.1L412.99 35.91L412.16 35.84L411.33 35.91L410.54 36.1Z" id="k1unRTwYYk"></path><path d="M305.47 158.79L305.87 158.87L306.25 158.98L306.63 159.12L306.99 159.29L307.33 159.49L307.66 159.71L307.97 159.95L308.26 160.22L308.52 160.51L308.77 160.82L308.99 161.14L309.18 161.49L309.35 161.85L309.49 162.22L309.61 162.61L309.69 163.01L309.74 163.42L309.75 163.84L309.75 169.23L310.16 169.25L310.56 169.28L310.96 169.3L311.35 169.33L311.75 169.36L312.15 169.4L312.55 169.43L312.94 169.47L313.34 169.51L313.74 169.55L314.13 169.59L314.53 169.63L314.92 169.68L315.31 169.73L315.71 169.78L316.1 169.83L316.49 169.88L316.88 169.94L317.27 169.99L317.67 170.05L318.79 164.8L318.89 164.39L319.03 164L319.19 163.62L319.38 163.27L319.6 162.93L319.84 162.61L320.1 162.32L320.39 162.04L320.69 161.79L321.01 161.56L321.35 161.36L321.7 161.19L322.07 161.04L322.45 160.92L322.83 160.83L323.23 160.77L323.63 160.74L324.04 160.75L324.45 160.78L324.87 160.86L325.28 160.96L325.67 161.09L326.04 161.26L326.4 161.45L326.73 161.67L327.05 161.91L327.35 162.17L327.62 162.45L327.87 162.76L328.1 163.08L328.3 163.42L328.47 163.77L328.62 164.14L328.74 164.51L328.83 164.9L328.89 165.3L328.92 165.7L328.92 166.11L328.88 166.52L328.81 166.93L327.69 172.17L328.08 172.27L328.46 172.38L328.85 172.49L329.23 172.6L329.62 172.72L330 172.83L330.38 172.95L330.76 173.07L331.14 173.19L331.52 173.31L331.9 173.44L332.27 173.56L332.65 173.69L333.03 173.82L333.4 173.95L333.78 174.08L334.15 174.22L334.52 174.36L334.89 174.49L335.26 174.63L337.45 169.73L337.64 169.35L337.85 169L338.09 168.67L338.35 168.36L338.63 168.07L338.93 167.81L339.25 167.58L339.58 167.37L339.93 167.19L340.29 167.04L340.66 166.91L341.04 166.81L341.43 166.74L341.82 166.71L342.22 166.7L342.62 166.72L343.02 166.78L343.42 166.87L343.82 166.99L344.21 167.14L344.59 167.33L344.94 167.54L345.27 167.78L345.58 168.04L345.87 168.32L346.13 168.62L346.36 168.94L346.57 169.28L346.75 169.63L346.91 169.99L347.03 170.36L347.13 170.74L347.2 171.13L347.24 171.52L347.25 171.92L347.22 172.32L347.17 172.72L347.08 173.12L346.96 173.52L346.8 173.91L344.63 178.78L344.98 178.97L345.33 179.15L345.69 179.34L346.04 179.53L346.39 179.72L346.74 179.92L347.08 180.11L347.43 180.31L347.78 180.51L348.12 180.71L348.46 180.91L348.81 181.11L349.15 181.31L349.49 181.52L349.83 181.73L350.17 181.94L350.51 182.15L350.84 182.36L351.18 182.57L351.51 182.78L354.67 178.44L354.93 178.11L355.22 177.81L355.52 177.54L355.84 177.29L356.17 177.07L356.52 176.88L356.88 176.71L357.25 176.58L357.63 176.47L358.02 176.4L358.41 176.35L358.8 176.34L359.19 176.35L359.59 176.39L359.98 176.47L360.36 176.57L360.74 176.71L361.11 176.88L361.47 177.08L361.82 177.32L362.15 177.58L362.45 177.86L362.73 178.16L362.98 178.48L363.2 178.81L363.39 179.16L363.55 179.52L363.69 179.89L363.79 180.27L363.87 180.66L363.92 181.05L363.93 181.44L363.92 181.84L363.87 182.23L363.8 182.62L363.69 183.01L363.56 183.39L363.39 183.76L363.19 184.12L362.95 184.47L359.83 188.76L360.14 189.01L360.45 189.27L360.75 189.53L361.05 189.78L361.35 190.05L361.65 190.31L361.95 190.57L362.25 190.83L362.55 191.1L362.85 191.37L363.14 191.64L363.43 191.91L363.73 192.18L364.02 192.45L364.31 192.72L364.6 193L364.88 193.27L365.17 193.55L365.46 193.83L365.74 194.11L369.7 190.54L370.02 190.27L370.36 190.03L370.71 189.83L371.08 189.65L371.45 189.51L371.83 189.39L372.22 189.31L372.61 189.25L373 189.23L373.4 189.23L373.79 189.27L374.18 189.33L374.56 189.43L374.93 189.55L375.3 189.71L375.66 189.89L376 190.11L376.33 190.35L376.64 190.62L376.93 190.92L377.2 191.24L377.43 191.58L377.64 191.93L377.82 192.3L377.96 192.67L378.08 193.05L378.16 193.44L378.22 193.83L378.24 194.22L378.24 194.62L378.2 195.01L378.13 195.39L378.04 195.78L377.92 196.15L377.76 196.52L377.58 196.87L377.36 197.22L377.12 197.54L376.85 197.86L376.55 198.15L372.57 201.73L372.82 202.04L373.07 202.35L373.31 202.66L373.56 202.98L373.8 203.29L374.04 203.61L374.28 203.93L374.52 204.25L374.76 204.56L375 204.89L375.23 205.21L375.46 205.53L375.69 205.86L375.92 206.18L376.15 206.51L376.38 206.84L376.61 207.16L376.83 207.49L377.05 207.83L377.27 208.16L381.89 205.49L382.26 205.3L382.64 205.13L383.03 205L383.42 204.91L383.82 204.84L384.21 204.81L384.61 204.81L385 204.83L385.39 204.89L385.77 204.98L386.15 205.09L386.51 205.24L386.87 205.41L387.21 205.61L387.54 205.84L387.85 206.09L388.14 206.37L388.41 206.68L388.66 207.01L388.88 207.37L389.08 207.74L389.24 208.12L389.37 208.5L389.47 208.9L389.53 209.29L389.57 209.69L389.57 210.08L389.54 210.48L389.49 210.87L389.4 211.25L389.28 211.63L389.14 211.99L388.97 212.35L388.76 212.69L388.54 213.01L388.28 213.32L388 213.62L387.7 213.89L387.37 214.13L387.01 214.36L382.37 217.04L382.54 217.39L382.72 217.75L382.9 218.11L383.07 218.46L383.24 218.82L383.41 219.18L383.58 219.54L383.75 219.9L383.91 220.27L384.08 220.63L384.24 220.99L384.4 221.36L384.56 221.72L384.72 222.09L384.87 222.45L385.03 222.82L385.18 223.19L385.33 223.56L385.48 223.93L385.62 224.3L390.71 222.65L391.11 222.54L391.52 222.46L391.93 222.42L392.33 222.4L392.73 222.42L393.13 222.47L393.52 222.55L393.9 222.66L394.26 222.8L394.62 222.97L394.96 223.16L395.29 223.38L395.6 223.62L395.89 223.89L396.16 224.18L396.41 224.49L396.64 224.82L396.84 225.18L397.01 225.55L397.16 225.95L397.27 226.35L397.35 226.76L397.4 227.16L397.41 227.56L397.39 227.96L397.34 228.36L397.26 228.75L397.15 229.13L397.01 229.49L396.85 229.85L396.65 230.19L396.44 230.52L396.19 230.83L395.93 231.13L395.64 231.4L395.32 231.65L394.99 231.87L394.64 232.08L394.26 232.25L393.87 232.4L388.77 234.05L388.87 234.43L388.97 234.82L389.06 235.2L389.16 235.59L389.25 235.97L389.34 236.36L389.43 236.75L389.52 237.13L389.6 237.52L389.68 237.91L389.77 238.3L389.85 238.69L389.92 239.08L390 239.47L390.08 239.87L390.15 240.26L390.22 240.65L390.29 241.05L390.36 241.44L390.42 241.84L395.76 241.28L396.18 241.26L396.59 241.26L397 241.31L397.4 241.38L397.79 241.48L398.16 241.61L398.52 241.77L398.87 241.95L399.2 242.16L399.52 242.4L399.81 242.66L400.09 242.94L400.34 243.24L400.57 243.56L400.78 243.9L400.95 244.26L401.11 244.63L401.23 245.02L401.32 245.42L401.38 245.84L401.41 246.26L401.4 246.67L401.36 247.08L401.29 247.48L401.19 247.86L401.06 248.24L400.9 248.6L400.72 248.95L400.51 249.28L400.27 249.6L400.01 249.89L399.73 250.17L399.43 250.42L399.11 250.65L398.77 250.86L398.41 251.04L398.04 251.19L397.65 251.31L397.24 251.4L396.83 251.46L391.48 252.02L391.49 252.22L391.5 252.42L391.51 252.62L391.52 252.82L391.54 253.01L391.55 253.21L391.56 253.41L391.58 253.61L391.59 253.81L391.6 254.01L391.62 254.2L391.63 254.4L391.64 254.6L391.65 254.8L391.66 255L391.67 255.2L391.67 255.4L391.68 255.6L391.68 255.8L391.68 256L391.68 256.2L391.68 256.4L391.67 256.6L391.67 256.8L391.66 257L391.65 257.2L391.64 257.4L391.63 257.6L391.62 257.8L391.6 257.99L391.59 258.19L391.58 258.39L391.56 258.59L391.55 258.79L391.54 258.99L391.52 259.18L391.51 259.38L391.5 259.58L391.49 259.78L391.48 259.98L396.82 260.54L397.24 260.6L397.64 260.69L398.03 260.82L398.4 260.97L398.76 261.15L399.1 261.35L399.43 261.59L399.73 261.84L400.01 262.12L400.27 262.41L400.5 262.73L400.71 263.06L400.9 263.41L401.06 263.77L401.19 264.14L401.29 264.53L401.36 264.93L401.4 265.34L401.41 265.75L401.38 266.17L401.32 266.56L401.24 266.94L401.13 267.3L400.99 267.66L400.83 268L400.65 268.32L400.44 268.63L400.21 268.92L399.97 269.19L399.7 269.45L399.42 269.68L399.12 269.9L398.81 270.09L398.48 270.26L398.14 270.41L397.79 270.53L397.43 270.63L397.06 270.7L396.68 270.74L396.29 270.76L396.27 270.76L396.24 270.76L396.21 270.76L396.19 270.75L396.16 270.75L396.14 270.75L396.11 270.75L396.08 270.75L396.06 270.75L396.03 270.75L396 270.75L395.97 270.75L395.95 270.74L395.92 270.74L395.89 270.74L395.87 270.74L395.84 270.74L395.81 270.73L395.78 270.73L395.76 270.73L390.42 270.17L390.36 270.57L390.29 270.96L390.22 271.36L390.15 271.75L390.07 272.14L390 272.53L389.92 272.93L389.84 273.32L389.76 273.71L389.68 274.1L389.6 274.48L389.51 274.87L389.43 275.26L389.34 275.65L389.25 276.03L389.15 276.42L389.06 276.8L388.96 277.19L388.87 277.57L388.77 277.95L393.87 279.61L394.27 279.76L394.64 279.93L395 280.14L395.33 280.36L395.64 280.61L395.93 280.88L396.2 281.18L396.44 281.49L396.66 281.82L396.85 282.16L397.02 282.52L397.16 282.88L397.26 283.26L397.34 283.65L397.39 284.05L397.41 284.45L397.4 284.85L397.35 285.25L397.27 285.66L397.16 286.06L397.04 286.38L396.91 286.69L396.76 286.98L396.59 287.26L396.4 287.53L396.2 287.78L395.99 288.02L395.76 288.24L395.52 288.45L395.27 288.64L395.01 288.82L394.73 288.98L394.45 289.12L394.16 289.25L393.86 289.35L393.56 289.44L393.25 289.51L392.93 289.56L392.61 289.59L392.29 289.6L392.21 289.6L392.13 289.6L392.05 289.6L391.97 289.59L391.89 289.59L391.81 289.58L391.74 289.57L391.66 289.56L391.58 289.55L391.5 289.54L391.42 289.53L391.34 289.51L391.26 289.5L391.18 289.48L391.1 289.46L391.02 289.44L390.94 289.42L390.86 289.4L390.78 289.38L390.7 289.35L385.62 287.7L385.47 288.07L385.32 288.44L385.17 288.81L385.02 289.18L384.87 289.55L384.71 289.92L384.55 290.28L384.39 290.65L384.23 291.01L384.07 291.38L383.91 291.74L383.74 292.1L383.57 292.46L383.4 292.82L383.23 293.18L383.06 293.54L382.89 293.9L382.72 294.25L382.54 294.61L382.36 294.96L387.01 297.65L387.37 297.87L387.7 298.12L388 298.39L388.28 298.68L388.53 298.99L388.76 299.32L388.96 299.66L389.13 300.01L389.28 300.38L389.4 300.75L389.48 301.14L389.54 301.53L389.57 301.92L389.57 302.31L389.53 302.71L389.47 303.11L389.37 303.5L389.24 303.89L389.08 304.27L388.88 304.64L388.74 304.88L388.58 305.11L388.41 305.33L388.23 305.54L388.04 305.73L387.85 305.92L387.64 306.09L387.43 306.25L387.2 306.4L386.98 306.53L386.74 306.66L386.5 306.77L386.26 306.87L386.01 306.96L385.75 307.03L385.5 307.09L385.24 307.14L384.97 307.17L384.71 307.19L384.45 307.2L384.32 307.2L384.19 307.19L384.06 307.19L383.93 307.17L383.8 307.16L383.67 307.14L383.54 307.12L383.41 307.09L383.28 307.07L383.15 307.03L383.02 307L382.89 306.96L382.77 306.92L382.64 306.87L382.51 306.82L382.39 306.77L382.27 306.72L382.14 306.66L382.02 306.6L381.9 306.53L377.28 303.86L377.06 304.19L376.84 304.53L376.61 304.86L376.39 305.19L376.16 305.51L375.93 305.84L375.7 306.17L375.47 306.49L375.24 306.81L375 307.13L374.77 307.46L374.53 307.78L374.29 308.09L374.05 308.41L373.81 308.73L373.57 309.04L373.32 309.36L373.08 309.67L372.83 309.98L372.58 310.29L376.56 313.87L376.86 314.16L377.13 314.48L377.37 314.8L377.59 315.15L377.77 315.5L377.93 315.87L378.05 316.24L378.14 316.63L378.21 317.02L378.25 317.41L378.25 317.8L378.23 318.19L378.17 318.58L378.09 318.97L377.97 319.35L377.83 319.72L377.65 320.09L377.44 320.44L377.21 320.78L376.94 321.1L376.79 321.27L376.63 321.42L376.46 321.57L376.29 321.71L376.12 321.84L375.94 321.96L375.75 322.08L375.57 322.19L375.38 322.28L375.18 322.37L374.99 322.45L374.79 322.53L374.58 322.59L374.38 322.65L374.18 322.69L373.97 322.73L373.76 322.76L373.55 322.78L373.34 322.8L373.13 322.8L372.95 322.8L372.76 322.79L372.58 322.77L372.4 322.75L372.22 322.72L372.04 322.68L371.86 322.64L371.68 322.59L371.5 322.53L371.33 322.47L371.16 322.4L370.99 322.33L370.82 322.24L370.65 322.16L370.49 322.06L370.32 321.96L370.17 321.85L370.01 321.73L369.86 321.61L369.71 321.48L365.75 317.91L365.46 318.19L365.18 318.47L364.89 318.75L364.6 319.02L364.31 319.3L364.02 319.57L363.73 319.84L363.44 320.12L363.15 320.38L362.85 320.65L362.56 320.92L362.26 321.19L361.96 321.45L361.66 321.71L361.36 321.98L361.06 322.24L360.76 322.49L360.45 322.75L360.15 323.01L359.84 323.26L362.96 327.56L363.19 327.91L363.39 328.27L363.56 328.64L363.7 329.02L363.81 329.41L363.88 329.8L363.92 330.19L363.94 330.59L363.92 330.98L363.87 331.37L363.8 331.76L363.69 332.13L363.55 332.51L363.39 332.87L363.2 333.21L362.98 333.55L362.73 333.87L362.46 334.17L362.15 334.45L361.83 334.71L361.69 334.81L361.55 334.9L361.41 334.98L361.26 335.06L361.12 335.14L360.97 335.21L360.82 335.28L360.67 335.34L360.52 335.39L360.37 335.44L360.22 335.49L360.06 335.53L359.91 335.57L359.76 335.6L359.6 335.63L359.44 335.65L359.29 335.67L359.13 335.68L358.98 335.69L358.82 335.69L358.58 335.68L358.34 335.67L358.11 335.64L357.87 335.6L357.64 335.55L357.41 335.49L357.19 335.42L356.96 335.34L356.74 335.25L356.52 335.15L356.31 335.04L356.11 334.92L355.9 334.78L355.71 334.64L355.52 334.49L355.33 334.33L355.15 334.15L354.98 333.97L354.82 333.78L354.67 333.58L351.52 329.24L351.18 329.45L350.85 329.66L350.51 329.87L350.17 330.08L349.83 330.29L349.49 330.5L349.15 330.7L348.81 330.91L348.47 331.11L348.13 331.31L347.78 331.51L347.44 331.71L347.09 331.9L346.74 332.1L346.39 332.29L346.04 332.48L345.69 332.67L345.34 332.86L344.99 333.05L344.63 333.24L346.81 338.11L346.96 338.5L347.08 338.9L347.17 339.29L347.23 339.69L347.25 340.09L347.24 340.49L347.2 340.89L347.13 341.27L347.04 341.65L346.91 342.03L346.76 342.39L346.57 342.74L346.36 343.07L346.13 343.39L345.87 343.69L345.59 343.97L345.28 344.23L344.94 344.47L344.59 344.69L344.21 344.87L344.11 344.92L344.01 344.96L343.91 345L343.8 345.03L343.7 345.07L343.6 345.1L343.49 345.13L343.39 345.16L343.28 345.18L343.18 345.21L343.08 345.23L342.97 345.25L342.87 345.26L342.76 345.28L342.66 345.29L342.55 345.3L342.44 345.3L342.34 345.31L342.23 345.31L342.13 345.31L341.84 345.3L341.54 345.28L341.26 345.24L340.97 345.18L340.69 345.11L340.41 345.02L340.14 344.91L339.88 344.79L339.62 344.66L339.37 344.51L339.13 344.35L338.9 344.17L338.68 343.98L338.46 343.77L338.26 343.56L338.07 343.32L337.9 343.08L337.73 342.82L337.58 342.56L337.45 342.28L335.27 337.37L334.9 337.51L334.52 337.65L334.15 337.79L333.78 337.92L333.4 338.05L333.03 338.18L332.65 338.31L332.27 338.44L331.9 338.57L331.52 338.69L331.14 338.82L330.76 338.94L330.38 339.06L330 339.17L329.62 339.29L329.23 339.4L328.85 339.51L328.47 339.62L328.08 339.73L327.7 339.84L328.82 345.08L328.89 345.49L328.92 345.9L328.93 346.31L328.9 346.71L328.84 347.11L328.75 347.5L328.63 347.87L328.48 348.24L328.3 348.59L328.1 348.93L327.87 349.25L327.62 349.55L327.35 349.84L327.05 350.1L326.74 350.34L326.4 350.56L326.04 350.75L325.67 350.91L325.28 351.05L324.87 351.15L324.82 351.16L324.77 351.17L324.71 351.18L324.66 351.19L324.6 351.2L324.55 351.21L324.5 351.22L324.44 351.22L324.39 351.23L324.33 351.24L324.28 351.24L324.23 351.25L324.17 351.25L324.12 351.25L324.07 351.26L324.01 351.26L323.96 351.26L323.91 351.26L323.85 351.26L323.8 351.26L323.45 351.25L323.1 351.21L322.76 351.15L322.42 351.07L322.09 350.97L321.77 350.84L321.46 350.7L321.16 350.53L320.88 350.34L320.6 350.14L320.34 349.92L320.1 349.68L319.87 349.42L319.65 349.15L319.46 348.86L319.28 348.56L319.13 348.24L318.99 347.91L318.88 347.56L318.79 347.21L317.67 341.95L317.28 342.01L316.89 342.07L316.5 342.12L316.1 342.18L315.71 342.23L315.32 342.28L314.92 342.33L314.53 342.37L314.13 342.41L313.74 342.46L313.34 342.5L312.95 342.54L312.55 342.57L312.15 342.61L311.75 342.64L311.35 342.67L310.96 342.7L310.56 342.73L310.16 342.75L309.75 342.78L309.76 348.15L309.74 348.57L309.69 348.98L309.61 349.38L309.5 349.77L309.36 350.15L309.19 350.51L308.99 350.85L308.77 351.18L308.53 351.49L308.26 351.77L307.97 352.04L307.67 352.29L307.34 352.51L307 352.7L306.64 352.87L306.26 353.02L305.87 353.13L305.48 353.21L305.06 353.26L304.65 353.28L304.64 353.28L304.22 353.26L303.81 353.21L303.41 353.13L303.02 353.02L302.65 352.88L302.29 352.71L301.94 352.51L301.62 352.29L301.31 352.05L301.02 351.78L300.75 351.49L300.51 351.19L300.29 350.86L300.09 350.51L299.92 350.15L299.78 349.78L299.67 349.39L299.59 348.99L299.54 348.58L299.52 348.16L299.52 342.78L299.12 342.75L298.72 342.73L298.32 342.7L297.92 342.67L297.52 342.64L297.12 342.61L296.72 342.57L296.33 342.53L295.93 342.5L295.53 342.46L295.14 342.41L294.74 342.37L294.35 342.32L293.96 342.28L293.56 342.23L293.17 342.18L292.78 342.12L292.39 342.07L291.99 342.01L291.6 341.95L290.49 347.2L290.4 347.55L290.29 347.9L290.16 348.23L290 348.55L289.83 348.85L289.63 349.14L289.42 349.41L289.19 349.67L288.95 349.91L288.68 350.13L288.41 350.34L288.12 350.53L287.82 350.69L287.51 350.84L287.19 350.97L286.87 351.07L286.53 351.15L286.19 351.21L285.84 351.25L285.49 351.26L285.43 351.26L285.38 351.26L285.33 351.26L285.28 351.26L285.22 351.26L285.17 351.25L285.12 351.25L285.06 351.25L285.01 351.24L284.96 351.24L284.9 351.23L284.85 351.23L284.8 351.22L284.74 351.21L284.69 351.2L284.64 351.2L284.58 351.19L284.53 351.18L284.47 351.17L284.42 351.16L284.01 351.05L283.62 350.92L283.25 350.76L282.89 350.57L282.56 350.35L282.24 350.11L281.94 349.85L281.67 349.56L281.42 349.26L281.19 348.94L280.99 348.6L280.81 348.25L280.66 347.88L280.54 347.51L280.45 347.12L280.39 346.72L280.36 346.32L280.36 345.91L280.4 345.5L280.47 345.09L281.58 339.83L281.2 339.72L280.81 339.61L280.43 339.5L280.05 339.39L279.66 339.28L279.28 339.16L278.9 339.04L278.52 338.93L278.14 338.8L277.76 338.68L277.38 338.56L277 338.43L276.63 338.3L276.25 338.17L275.88 338.04L275.5 337.91L275.13 337.78L274.76 337.64L274.38 337.5L274.01 337.36L271.84 342.26L271.7 342.54L271.55 342.81L271.39 343.07L271.21 343.31L271.02 343.54L270.82 343.76L270.61 343.97L270.39 344.16L270.16 344.34L269.91 344.5L269.66 344.65L269.41 344.79L269.14 344.91L268.87 345.01L268.59 345.1L268.31 345.17L268.03 345.23L267.74 345.27L267.45 345.3L267.15 345.31L267.05 345.31L266.94 345.3L266.84 345.3L266.74 345.29L266.63 345.28L266.53 345.27L266.42 345.25L266.32 345.24L266.22 345.22L266.11 345.2L266.01 345.18L265.9 345.15L265.8 345.12L265.7 345.09L265.59 345.06L265.49 345.03L265.39 344.99L265.29 344.95L265.18 344.91L265.08 344.86L264.71 344.68L264.35 344.47L264.02 344.23L263.71 343.97L263.42 343.69L263.16 343.39L262.93 343.07L262.72 342.74L262.53 342.39L262.38 342.03L262.25 341.66L262.15 341.27L262.08 340.89L262.04 340.49L262.04 340.09L262.06 339.7L262.11 339.29L262.2 338.9L262.32 338.5L262.48 338.11L264.65 333.22L264.3 333.03L263.95 332.85L263.59 332.66L263.24 332.47L262.89 332.28L262.54 332.08L262.2 331.89L261.85 331.69L261.5 331.49L261.16 331.29L260.82 331.09L260.47 330.89L260.13 330.69L259.79 330.48L259.45 330.27L259.11 330.06L258.77 329.85L258.44 329.64L258.1 329.43L257.77 329.22L254.62 333.56L254.46 333.76L254.3 333.96L254.13 334.14L253.95 334.31L253.77 334.47L253.58 334.63L253.38 334.77L253.18 334.9L252.97 335.02L252.76 335.14L252.54 335.24L252.32 335.33L252.1 335.41L251.87 335.48L251.64 335.54L251.41 335.59L251.18 335.63L250.94 335.66L250.7 335.67L250.47 335.68L250.31 335.68L250.15 335.67L250 335.66L249.84 335.64L249.69 335.62L249.53 335.59L249.38 335.56L249.22 335.52L249.07 335.48L248.92 335.44L248.77 335.39L248.62 335.33L248.47 335.27L248.32 335.2L248.17 335.13L248.03 335.05L247.88 334.97L247.74 334.89L247.6 334.8L247.46 334.7L247.14 334.44L246.83 334.16L246.56 333.86L246.31 333.54L246.09 333.2L245.9 332.86L245.73 332.5L245.6 332.13L245.49 331.75L245.42 331.36L245.37 330.97L245.35 330.58L245.37 330.18L245.41 329.79L245.48 329.4L245.59 329.01L245.73 328.64L245.9 328.26L246.1 327.9L246.33 327.55L249.45 323.25L249.14 322.99L248.84 322.74L248.53 322.48L248.23 322.22L247.93 321.96L247.63 321.7L247.33 321.44L247.03 321.17L246.73 320.91L246.44 320.64L246.14 320.37L245.85 320.1L245.56 319.83L245.27 319.56L244.98 319.28L244.69 319.01L244.4 318.73L244.11 318.46L243.83 318.18L243.54 317.9L239.59 321.47L239.44 321.6L239.28 321.72L239.13 321.84L238.97 321.94L238.81 322.05L238.64 322.14L238.48 322.23L238.31 322.31L238.14 322.39L237.96 322.46L237.79 322.52L237.61 322.58L237.43 322.62L237.25 322.67L237.07 322.7L236.89 322.73L236.71 322.76L236.53 322.77L236.34 322.78L236.16 322.79L235.95 322.78L235.74 322.77L235.53 322.75L235.32 322.72L235.12 322.68L234.91 322.63L234.71 322.58L234.51 322.51L234.31 322.44L234.11 322.36L233.92 322.27L233.73 322.17L233.54 322.07L233.36 321.95L233.18 321.83L233 321.7L232.83 321.56L232.67 321.41L232.51 321.26L232.36 321.09L232.09 320.77L231.85 320.43L231.64 320.08L231.47 319.71L231.32 319.34L231.2 318.96L231.12 318.57L231.06 318.18L231.04 317.79L231.05 317.4L231.08 317.01L231.15 316.62L231.24 316.24L231.37 315.86L231.52 315.49L231.7 315.14L231.92 314.8L232.16 314.47L232.43 314.16L232.73 313.86L236.71 310.27L236.46 309.96L236.22 309.65L235.97 309.34L235.73 309.02L235.49 308.71L235.24 308.39L235 308.07L234.77 307.75L234.53 307.44L234.29 307.11L234.06 306.79L233.82 306.47L233.59 306.14L233.36 305.82L233.13 305.49L232.91 305.16L232.68 304.84L232.46 304.51L232.23 304.17L232.01 303.84L227.39 306.51L227.27 306.58L227.15 306.64L227.03 306.7L226.9 306.76L226.78 306.82L226.65 306.87L226.52 306.91L226.39 306.96L226.27 307L226.14 307.03L226.01 307.06L225.88 307.09L225.75 307.12L225.62 307.14L225.49 307.16L225.36 307.17L225.23 307.19L225.1 307.19L224.97 307.2L224.83 307.2L224.57 307.19L224.31 307.17L224.04 307.14L223.78 307.09L223.53 307.03L223.27 306.96L223.03 306.87L222.78 306.77L222.54 306.66L222.31 306.53L222.08 306.4L221.86 306.25L221.65 306.09L221.44 305.92L221.24 305.73L221.05 305.54L220.87 305.33L220.7 305.11L220.54 304.88L220.4 304.64L220.2 304.27L220.04 303.89L219.91 303.5L219.81 303.11L219.75 302.71L219.71 302.32L219.71 301.92L219.74 301.53L219.79 301.14L219.88 300.76L220 300.38L220.14 300.01L220.31 299.66L220.51 299.32L220.74 298.99L220.99 298.68L221.27 298.39L221.58 298.12L221.91 297.87L222.26 297.65L226.92 294.96L226.74 294.6L226.56 294.25L226.39 293.89L226.22 293.53L226.04 293.17L225.87 292.81L225.7 292.45L225.54 292.09L225.37 291.73L225.21 291.37L225.05 291L224.88 290.64L224.73 290.27L224.57 289.91L224.41 289.54L224.26 289.17L224.11 288.8L223.96 288.43L223.81 288.06L223.66 287.69L218.58 289.35L218.5 289.37L218.42 289.4L218.34 289.42L218.26 289.44L218.18 289.46L218.1 289.48L218.02 289.5L217.94 289.51L217.86 289.53L217.78 289.54L217.7 289.55L217.63 289.56L217.55 289.57L217.47 289.58L217.39 289.59L217.31 289.59L217.23 289.6L217.15 289.6L217.07 289.6L216.99 289.6L216.67 289.59L216.35 289.56L216.03 289.51L215.72 289.44L215.42 289.35L215.12 289.25L214.83 289.12L214.55 288.98L214.27 288.82L214.01 288.65L213.76 288.45L213.52 288.25L213.29 288.02L213.08 287.79L212.88 287.53L212.69 287.27L212.52 286.99L212.37 286.69L212.24 286.39L212.12 286.07L212.01 285.66L211.93 285.26L211.88 284.85L211.87 284.45L211.89 284.05L211.94 283.65L212.02 283.27L212.12 282.89L212.26 282.52L212.43 282.16L212.62 281.82L212.83 281.49L213.08 281.18L213.34 280.89L213.63 280.61L213.95 280.36L214.28 280.14L214.63 279.93L215.01 279.76L215.4 279.61L220.51 277.95L220.41 277.57L220.32 277.18L220.22 276.8L220.13 276.41L220.04 276.02L219.94 275.64L219.86 275.25L219.77 274.86L219.68 274.48L219.6 274.09L219.52 273.7L219.44 273.31L219.36 272.92L219.28 272.53L219.21 272.13L219.13 271.74L219.06 271.35L218.99 270.95L218.93 270.56L218.86 270.16L213.52 270.73L213.5 270.73L213.47 270.73L213.44 270.73L213.42 270.73L213.39 270.74L213.36 270.74L213.33 270.74L213.31 270.74L213.28 270.74L213.25 270.74L213.23 270.74L213.2 270.75L213.17 270.75L213.14 270.75L213.12 270.75L213.09 270.75L213.06 270.75L213.04 270.75L213.01 270.75L212.98 270.75L212.6 270.74L212.22 270.69L211.85 270.62L211.48 270.53L211.13 270.4L210.79 270.26L210.47 270.09L210.15 269.9L209.85 269.68L209.57 269.45L209.31 269.19L209.06 268.92L208.83 268.63L208.63 268.32L208.44 267.99L208.28 267.66L208.14 267.3L208.03 266.94L207.95 266.56L207.89 266.17L207.87 265.75L207.87 265.34L207.91 264.93L207.98 264.53L208.08 264.14L208.21 263.77L208.37 263.41L208.56 263.06L208.77 262.73L209 262.41L209.26 262.12L209.54 261.84L209.84 261.59L210.17 261.35L210.51 261.15L210.86 260.97L211.24 260.82L211.63 260.69L212.03 260.6L212.44 260.54L217.8 259.97L217.79 259.77L217.78 259.57L217.77 259.37L217.76 259.18L217.74 258.98L217.73 258.78L217.72 258.58L217.7 258.39L217.69 258.19L217.68 257.99L217.66 257.79L217.65 257.6L217.64 257.4L217.63 257.2L217.62 257L217.61 256.8L217.61 256.6L217.6 256.4L217.6 256.2L217.6 256L217.6 255.8L217.6 255.6L217.61 255.4L217.61 255.2L217.62 255L217.63 254.8L217.64 254.6L217.65 254.4L217.66 254.2L217.68 254L217.69 253.8L217.7 253.6L217.71 253.41L217.73 253.21L217.74 253.01L217.75 252.81L217.76 252.61L217.78 252.41L217.79 252.22L217.79 252.02L212.45 251.46L212.03 251.4L211.63 251.31L211.24 251.19L210.87 251.03L210.51 250.86L210.17 250.65L209.85 250.42L209.55 250.17L209.26 249.89L209 249.59L208.77 249.28L208.56 248.95L208.37 248.6L208.21 248.24L208.08 247.86L207.98 247.47L207.91 247.08L207.87 246.67L207.86 246.26L207.89 245.84L207.95 245.42L208.04 245.02L208.16 244.63L208.31 244.25L208.49 243.89L208.69 243.55L208.92 243.23L209.17 242.93L209.44 242.65L209.73 242.39L210.05 242.15L210.38 241.94L210.72 241.75L211.09 241.6L211.46 241.46L211.85 241.36L212.25 241.29L212.66 241.25L213.08 241.24L213.51 241.27L218.85 241.83L218.92 241.43L218.99 241.04L219.06 240.64L219.13 240.25L219.2 239.86L219.28 239.47L219.35 239.08L219.43 238.68L219.51 238.29L219.59 237.91L219.68 237.52L219.76 237.13L219.85 236.74L219.94 236.35L220.03 235.97L220.12 235.58L220.22 235.19L220.31 234.81L220.41 234.42L220.51 234.04L215.4 232.39L215.01 232.25L214.63 232.07L214.28 231.87L213.95 231.64L213.63 231.39L213.34 231.12L213.08 230.83L212.83 230.52L212.61 230.19L212.42 229.85L212.26 229.49L212.12 229.12L212.01 228.74L211.93 228.35L211.88 227.96L211.86 227.56L211.87 227.16L211.92 226.75L212 226.34L212.11 225.94L212.26 225.55L212.43 225.17L212.63 224.82L212.86 224.48L213.11 224.17L213.38 223.88L213.67 223.61L213.98 223.37L214.31 223.15L214.65 222.96L215.01 222.79L215.38 222.66L215.75 222.55L216.14 222.47L216.54 222.42L216.94 222.4L217.34 222.41L217.75 222.46L218.15 222.54L218.56 222.65L223.65 224.3L223.8 223.93L223.95 223.56L224.1 223.19L224.25 222.82L224.4 222.45L224.56 222.08L224.72 221.72L224.87 221.35L225.04 220.99L225.2 220.62L225.36 220.26L225.53 219.9L225.69 219.54L225.86 219.18L226.03 218.82L226.2 218.46L226.38 218.1L226.55 217.74L226.73 217.39L226.91 217.03L222.26 214.35L221.9 214.13L221.57 213.88L221.27 213.61L220.99 213.32L220.73 213.01L220.5 212.68L220.3 212.34L220.13 211.99L219.99 211.62L219.87 211.25L219.78 210.86L219.72 210.47L219.7 210.08L219.7 209.69L219.73 209.29L219.79 208.89L219.89 208.5L220.02 208.11L220.18 207.73L220.38 207.36L220.6 207.01L220.85 206.67L221.12 206.37L221.41 206.09L221.72 205.84L222.05 205.61L222.39 205.41L222.74 205.24L223.11 205.09L223.49 204.97L223.87 204.89L224.26 204.83L224.65 204.8L225.05 204.8L225.44 204.83L225.84 204.9L226.23 204.99L226.62 205.12L227 205.28L227.37 205.48L232 208.14L232.22 207.81L232.44 207.48L232.67 207.15L232.89 206.82L233.12 206.49L233.35 206.17L233.58 205.84L233.81 205.52L234.04 205.19L234.28 204.87L234.51 204.55L234.75 204.23L234.99 203.91L235.23 203.6L235.47 203.28L235.71 202.96L235.96 202.65L236.2 202.34L236.45 202.02L236.7 201.71L232.71 198.13L232.41 197.84L232.14 197.53L231.9 197.2L231.69 196.86L231.5 196.5L231.35 196.14L231.22 195.76L231.13 195.38L231.06 194.99L231.03 194.6L231.02 194.21L231.04 193.81L231.1 193.42L231.18 193.04L231.3 192.66L231.44 192.28L231.62 191.92L231.83 191.57L232.06 191.23L232.33 190.9L232.62 190.6L232.94 190.33L233.26 190.09L233.61 189.88L233.96 189.69L234.33 189.54L234.7 189.41L235.09 189.32L235.47 189.25L235.87 189.22L236.26 189.21L236.65 189.23L237.04 189.29L237.43 189.37L237.81 189.49L238.18 189.63L238.55 189.81L238.9 190.01L239.24 190.25L239.56 190.52L243.53 194.09L243.82 193.82L244.1 193.54L244.39 193.26L244.68 192.98L244.96 192.71L245.25 192.44L245.55 192.16L245.84 191.89L246.13 191.62L246.43 191.36L246.72 191.09L247.02 190.82L247.32 190.56L247.62 190.3L247.92 190.03L248.22 189.77L248.52 189.52L248.83 189.26L249.13 189L249.44 188.75L246.32 184.45L246.08 184.1L245.88 183.74L245.71 183.37L245.58 182.99L245.47 182.6L245.4 182.21L245.35 181.82L245.34 181.43L245.35 181.03L245.4 180.64L245.48 180.26L245.58 179.88L245.72 179.51L245.88 179.15L246.07 178.8L246.29 178.46L246.54 178.14L246.81 177.84L247.12 177.56L247.44 177.3L247.79 177.07L248.16 176.86L248.53 176.69L248.91 176.56L249.29 176.45L249.68 176.37L250.08 176.33L250.47 176.31L250.86 176.33L251.26 176.38L251.64 176.45L252.02 176.56L252.39 176.69L252.75 176.86L253.1 177.05L253.43 177.27L253.75 177.52L254.05 177.79L254.34 178.1L254.6 178.43L257.76 182.77L258.09 182.56L258.43 182.35L258.76 182.14L259.1 181.93L259.44 181.72L259.78 181.51L260.12 181.3L260.46 181.1L260.81 180.9L261.15 180.7L261.49 180.5L261.84 180.3L262.18 180.1L262.53 179.91L262.88 179.72L263.23 179.53L263.58 179.34L263.93 179.15L264.28 178.96L264.64 178.78L262.47 173.9L262.31 173.5L262.19 173.11L262.1 172.71L262.05 172.31L262.02 171.91L262.03 171.51L262.07 171.12L262.14 170.73L262.24 170.35L262.36 169.98L262.52 169.61L262.7 169.27L262.91 168.93L263.14 168.61L263.4 168.31L263.69 168.03L263.99 167.77L264.33 167.53L264.68 167.32L265.06 167.13L265.45 166.98L265.84 166.86L266.24 166.77L266.64 166.71L267.04 166.69L267.44 166.7L267.83 166.74L268.22 166.8L268.6 166.9L268.97 167.03L269.33 167.18L269.68 167.36L270.02 167.57L270.34 167.81L270.64 168.07L270.92 168.35L271.18 168.66L271.42 168.99L271.63 169.35L271.82 169.72L274.01 174.63L274.38 174.49L274.75 174.35L275.12 174.22L275.5 174.08L275.87 173.95L276.25 173.82L276.62 173.69L277 173.56L277.37 173.44L277.75 173.31L278.13 173.19L278.51 173.07L278.89 172.95L279.27 172.83L279.66 172.71L280.04 172.6L280.42 172.49L280.81 172.38L281.19 172.27L281.58 172.16L280.46 166.92L280.39 166.51L280.35 166.1L280.35 165.69L280.38 165.29L280.44 164.89L280.53 164.5L280.65 164.13L280.8 163.76L280.97 163.41L281.18 163.07L281.4 162.75L281.65 162.45L281.93 162.16L282.22 161.9L282.54 161.66L282.88 161.44L283.23 161.25L283.61 161.09L284 160.95L284.41 160.85L284.82 160.78L285.23 160.74L285.64 160.73L286.05 160.76L286.44 160.82L286.83 160.91L287.21 161.03L287.57 161.18L287.93 161.35L288.26 161.56L288.59 161.78L288.89 162.03L289.17 162.31L289.44 162.61L289.68 162.92L289.89 163.26L290.08 163.62L290.24 163.99L290.38 164.38L290.48 164.79L291.6 170.05L291.99 169.99L292.38 169.93L292.77 169.88L293.17 169.82L293.56 169.77L293.95 169.72L294.35 169.67L294.74 169.63L295.14 169.59L295.53 169.54L295.93 169.5L296.32 169.46L296.72 169.43L297.12 169.39L297.52 169.36L297.92 169.33L298.31 169.3L298.71 169.27L299.11 169.25L299.51 169.22L299.51 163.84L299.53 163.42L299.58 163.01L299.66 162.61L299.78 162.22L299.92 161.85L300.09 161.49L300.28 161.14L300.5 160.82L300.75 160.51L301.01 160.22L301.3 159.95L301.61 159.71L301.94 159.49L302.28 159.29L302.64 159.12L303.02 158.98L303.4 158.87L303.8 158.79L304.21 158.74L304.63 158.72L305.06 158.74L305.47 158.79ZM293.1 180.07L287.52 181.13L282.09 182.58L276.83 184.42L271.75 186.62L266.86 189.18L262.19 192.06L257.75 195.26L253.55 198.76L249.61 202.55L245.95 206.61L242.58 210.92L239.52 215.46L236.77 220.23L234.37 225.21L232.32 230.37L230.65 235.71L244.7 221.66L245.04 221.35L245.41 221.07L245.79 220.83L246.19 220.62L246.6 220.46L247.02 220.33L247.45 220.23L247.88 220.18L248.32 220.16L248.76 220.18L249.19 220.23L249.62 220.33L250.04 220.46L250.45 220.62L250.85 220.83L251.23 221.07L251.6 221.35L251.94 221.66L252.25 222L252.53 222.37L252.77 222.75L252.98 223.15L253.14 223.56L253.27 223.98L253.37 224.41L253.42 224.84L253.44 225.28L253.42 225.72L253.37 226.15L253.27 226.58L253.14 227L252.98 227.41L252.77 227.81L252.53 228.19L252.25 228.56L251.94 228.9L228 252.84L227.99 253.02L227.98 253.19L227.97 253.37L227.96 253.54L227.95 253.72L227.94 253.89L227.93 254.07L227.92 254.24L227.9 254.41L227.89 254.59L227.88 254.76L227.87 254.94L227.86 255.12L227.86 255.29L227.85 255.47L227.84 255.64L227.84 255.82L227.84 256L227.84 256.45L227.85 256.89L227.85 257.34L227.86 257.78L227.87 258.23L227.89 258.67L227.9 259.12L227.92 259.56L227.95 260L227.97 260.45L228 260.89L228.03 261.33L228.06 261.77L228.09 262.21L228.13 262.64L228.17 263.08L228.21 263.52L228.25 263.96L228.25 263.96L228.26 263.96L228.26 263.97L228.26 263.98L228.26 263.98L228.27 264L228.27 264L228.27 264.01L228.27 264.01L228.27 264.02L228.27 264.02L228.27 264.02L228.27 264.03L228.27 264.04L228.27 264.05L228.27 264.06L228.3 264.29L228.32 264.52L228.35 264.75L228.38 264.99L228.41 265.22L228.45 265.45L228.48 265.67L228.52 265.9L228.56 266.13L228.59 266.36L228.63 266.59L228.67 266.82L228.71 267.05L228.75 267.27L228.79 267.5L228.82 267.73L228.86 267.96L228.9 268.19L249.82 247.27L250.16 246.96L250.53 246.68L250.91 246.44L251.31 246.23L251.72 246.07L252.14 245.94L252.57 245.84L253 245.79L253.44 245.77L253.88 245.79L254.31 245.84L254.74 245.94L255.16 246.07L255.57 246.23L255.97 246.44L256.35 246.68L256.72 246.96L257.06 247.27L257.37 247.62L257.65 247.98L257.89 248.36L258.1 248.76L258.26 249.17L258.39 249.59L258.49 250.02L258.54 250.45L258.56 250.89L258.54 251.33L258.49 251.76L258.39 252.19L258.26 252.61L258.1 253.02L257.89 253.42L257.65 253.8L257.37 254.17L257.06 254.51L231.69 279.88L231.9 280.54L232.13 281.19L232.36 281.85L232.6 282.5L232.84 283.15L233.09 283.79L233.34 284.43L233.6 285.07L233.87 285.71L234.14 286.34L234.42 286.97L234.7 287.6L234.99 288.22L235.28 288.85L235.58 289.46L235.88 290.08L236.19 290.69L236.5 291.3L260.06 267.75L260.4 267.43L260.77 267.15L261.15 266.91L261.55 266.71L261.96 266.54L262.38 266.41L262.81 266.32L263.24 266.26L263.68 266.24L264.12 266.26L264.55 266.32L264.98 266.41L265.4 266.54L265.81 266.71L266.21 266.91L266.59 267.15L266.96 267.43L267.3 267.75L267.61 268.09L267.89 268.45L268.13 268.84L268.34 269.24L268.5 269.65L268.63 270.07L268.73 270.5L268.78 270.93L268.8 271.37L268.78 271.8L268.73 272.23L268.63 272.66L268.5 273.08L268.34 273.49L268.13 273.89L267.89 274.28L267.61 274.64L267.3 274.98L242 300.28L242.38 300.81L242.76 301.34L243.15 301.86L243.54 302.38L243.93 302.89L244.33 303.4L244.73 303.91L245.14 304.42L245.55 304.92L245.97 305.42L246.39 305.91L246.81 306.4L247.24 306.89L247.67 307.38L248.11 307.86L248.55 308.33L248.99 308.8L249.44 309.27L249.46 309.24L249.49 309.21L249.51 309.18L249.53 309.15L249.54 309.11L249.56 309.08L249.58 309.05L249.6 309.02L249.62 308.98L249.64 308.95L249.66 308.92L249.68 308.89L249.7 308.86L249.72 308.82L249.74 308.79L249.77 308.76L249.79 308.73L249.82 308.71L275.42 283.11L275.76 282.79L276.13 282.51L276.51 282.27L276.91 282.07L277.32 281.9L277.74 281.77L278.17 281.68L278.6 281.62L279.04 281.6L279.48 281.62L279.91 281.68L280.34 281.77L280.76 281.9L281.17 282.07L281.57 282.27L281.95 282.51L282.32 282.79L282.66 283.11L282.97 283.45L283.25 283.81L283.49 284.2L283.7 284.6L283.86 285.01L283.99 285.43L284.09 285.86L284.14 286.29L284.16 286.73L284.14 287.16L284.09 287.59L283.99 288.02L283.86 288.44L283.7 288.85L283.49 289.25L283.25 289.64L282.97 290L282.66 290.34L257.06 315.94L257.05 315.95L257.04 315.96L257.04 315.97L257.03 315.97L257.02 315.98L257.01 315.98L257 315.99L256.99 315.99L256.97 316L256.96 316.01L256.95 316.01L256.94 316.02L256.93 316.02L256.92 316.03L256.91 316.04L256.9 316.04L256.9 316.05L257.41 316.45L257.92 316.85L258.44 317.25L258.96 317.64L259.49 318.02L260.01 318.4L260.55 318.78L261.08 319.15L261.62 319.52L262.16 319.88L262.71 320.24L263.25 320.6L263.81 320.95L264.36 321.29L264.92 321.64L265.48 321.97L266.04 322.3L266.61 322.63L290.78 298.46L291.12 298.15L291.49 297.87L291.87 297.63L292.27 297.42L292.68 297.26L293.1 297.13L293.53 297.03L293.96 296.98L294.4 296.96L294.84 296.98L295.27 297.03L295.7 297.13L296.12 297.26L296.53 297.42L296.93 297.63L297.31 297.87L297.68 298.15L298.02 298.46L298.33 298.8L298.61 299.17L298.85 299.55L299.06 299.95L299.22 300.36L299.35 300.78L299.45 301.21L299.5 301.64L299.52 302.08L299.5 302.52L299.45 302.95L299.35 303.38L299.22 303.8L299.06 304.21L298.85 304.61L298.61 304.99L298.33 305.36L298.02 305.7L276.38 327.34L277.04 327.6L277.7 327.85L278.36 328.1L279.03 328.34L279.7 328.58L280.37 328.81L281.04 329.04L281.72 329.26L282.4 329.47L283.08 329.68L283.77 329.88L284.46 330.07L285.15 330.26L285.84 330.44L286.54 330.62L287.24 330.78L287.94 330.95L288.64 331.1L288.64 331.1L288.65 331.1L288.66 331.1L288.66 331.1L288.66 331.1L288.66 331.1L288.67 331.1L288.67 331.1L288.68 331.11L288.68 331.11L288.73 331.12L288.78 331.13L288.83 331.14L288.88 331.15L288.93 331.16L288.98 331.17L289.03 331.18L289.08 331.19L289.23 331.23L289.28 331.24L289.33 331.25L289.37 331.26L289.42 331.27L289.47 331.28L289.52 331.29L289.57 331.3L289.61 331.17L289.66 331.04L289.7 330.92L289.75 330.79L289.8 330.67L289.86 330.54L289.91 330.42L289.97 330.3L290.04 330.18L290.1 330.06L290.18 329.95L290.25 329.83L290.33 329.72L290.41 329.6L290.5 329.5L290.59 329.39L290.68 329.28L290.78 329.18L316.38 303.58L316.72 303.27L317.09 302.99L317.47 302.75L317.87 302.54L318.28 302.38L318.7 302.25L319.13 302.15L319.56 302.1L320 302.08L320.44 302.1L320.87 302.15L321.3 302.25L321.72 302.38L322.13 302.54L322.53 302.75L322.91 302.99L323.28 303.27L323.62 303.58L323.93 303.92L324.21 304.29L324.45 304.67L324.66 305.07L324.82 305.48L324.95 305.9L325.05 306.33L325.1 306.76L325.12 307.2L325.1 307.64L325.05 308.07L324.95 308.5L324.82 308.92L324.66 309.33L324.45 309.73L324.21 310.11L323.93 310.48L323.62 310.82L301.78 332.66L301.94 332.66L302.09 332.67L302.24 332.68L302.4 332.69L302.55 332.7L302.7 332.71L302.86 332.72L303.01 332.73L303.16 332.74L303.31 332.75L303.47 332.76L303.62 332.77L303.77 332.77L303.93 332.78L304.08 332.79L304.24 332.79L304.39 332.79L304.55 332.79L304.55 332.79L304.56 332.79L304.56 332.79L304.56 332.79L304.57 332.79L304.6 332.78L304.61 332.78L304.61 332.78L304.62 332.78L304.62 332.78L304.62 332.78L304.63 332.78L304.64 332.78L304.64 332.78L304.65 332.78L304.66 332.78L304.68 332.79L304.69 332.79L304.7 332.79L304.7 332.79L304.71 332.79L304.71 332.79L305.6 332.79L306.49 332.77L307.38 332.75L308.26 332.71L309.14 332.66L310.02 332.61L310.89 332.54L311.76 332.47L312.63 332.38L313.5 332.28L314.36 332.18L315.22 332.07L316.08 331.94L316.93 331.81L317.78 331.67L318.63 331.51L319.48 331.35L320.32 331.18L320.36 331.06L320.4 330.94L320.45 330.82L320.5 330.7L320.55 330.58L320.6 330.47L320.66 330.35L320.72 330.24L320.78 330.12L320.85 330.01L320.92 329.9L320.99 329.79L321.07 329.69L321.15 329.58L321.23 329.48L321.32 329.38L321.41 329.28L321.5 329.18L347.1 303.58L347.44 303.27L347.81 302.99L348.19 302.75L348.59 302.54L349 302.38L349.42 302.25L349.85 302.15L350.28 302.1L350.72 302.08L351.16 302.1L351.59 302.15L352.02 302.25L352.44 302.38L352.85 302.54L353.25 302.75L353.63 302.99L354 303.27L354.34 303.58L354.65 303.92L354.93 304.29L355.17 304.67L355.38 305.07L355.54 305.48L355.67 305.9L355.77 306.33L355.82 306.76L355.84 307.2L355.82 307.64L355.77 308.07L355.67 308.5L355.54 308.92L355.38 309.33L355.17 309.73L354.93 310.11L354.65 310.48L354.34 310.82L342.3 322.86L345.76 320.78L349.1 318.53L352.31 316.11L355.39 313.54L358.33 310.8L361.12 307.93L363.77 304.91L366.25 301.75L368.57 298.46L370.72 295.06L372.69 291.53L374.48 287.89L376.08 284.15L377.48 280.31L378.68 276.38L379.67 272.36L380.45 268.27L381 264.09L381 264.09L381 264.08L381 264.08L381 264.07L381 264.06L381 264.05L381 264.05L381 264.04L381 264.03L381 264.03L381 264.03L381 264.02L381 264.02L381 264.01L381 264L381 264L381.01 263.99L381.01 263.99L381.01 263.98L381.01 263.98L381.02 263.96L381.02 263.95L381.02 263.95L381.03 263.94L381.03 263.93L381.03 263.93L381.03 263.92L381.07 263.49L381.12 263.05L381.15 262.61L381.19 262.18L381.23 261.74L381.26 261.3L381.29 260.86L381.31 260.43L381.34 259.99L381.36 259.54L381.38 259.1L381.39 258.66L381.41 258.22L381.42 257.78L381.43 257.33L381.43 256.89L381.44 256.45L381.44 256L381.44 255.56L381.43 255.11L381.43 254.67L381.42 254.23L381.41 253.78L381.39 253.34L381.38 252.9L381.36 252.46L381.34 252.02L381.31 251.58L381.29 251.14L381.26 250.7L381.23 250.26L381.19 249.83L381.15 249.39L381.12 248.95L381.07 248.52L381.03 248.08L381.03 248.08L381.03 248.07L381.03 248.07L381.03 248.06L381.02 248.06L381.02 248.05L381.02 248.04L381.01 248.03L381.01 248.02L381.01 248.01L381.01 248.01L381 248L381 247.99L381 247.99L381 247.98L381 247.97L381 247.97L381 247.96L381 247.96L381 247.95L381 247.94L381 247.94L381 247.92L381 247.92L381 247.91L381 247.9L381 247.9L380.23 242.42L379.07 237.08L377.55 231.88L375.68 226.84L373.47 221.97L370.94 217.29L368.1 212.81L364.97 208.54L361.55 204.51L357.88 200.72L353.95 197.19L349.79 193.93L345.4 190.96L340.81 188.28L336.02 185.93L331.05 183.9L325.92 182.22L320.64 180.9L320.63 180.9L320.63 180.9L320.62 180.9L320.62 180.9L320.61 180.9L320.6 180.89L320.59 180.89L320.59 180.89L320.58 180.89L320.58 180.89L320.57 180.89L320.57 180.88L320.56 180.88L320.56 180.88L320.55 180.88L320.55 180.88L319.69 180.7L318.83 180.54L317.97 180.38L317.1 180.23L316.23 180.09L315.35 179.96L314.48 179.84L313.6 179.73L312.71 179.63L311.83 179.54L310.94 179.46L310.05 179.39L309.15 179.34L308.26 179.29L307.36 179.25L306.45 179.22L305.55 179.21L304.64 179.2L298.81 179.42L293.1 180.07Z" id="d1xA1H7b4u"></path></defs><g visibility="inherit"><g visibility="inherit"><use xlink:href="#dWAamILHZ" opacity="1" fill="#febe28" fill-opacity="1"></use><g><use xlink:href="#dWAamILHZ" opacity="1" fill-opacity="0" stroke="#000000" stroke-width="1" stroke-opacity="0"></use></g></g><g visibility="inherit"><use xlink:href="#aduZHPKfV" opacity="1" fill="#febe28" fill-opacity="1"></use><g><use xlink:href="#aduZHPKfV" opacity="1" fill-opacity="0" stroke="#000000" stroke-width="1" stroke-opacity="0"></use></g></g><g visibility="inherit"><use xlink:href="#a2cS7jdK5R" opacity="1" fill="#febe28" fill-opacity="1"></use><g><use xlink:href="#a2cS7jdK5R" opacity="1" fill-opacity="0" stroke="#000000" stroke-width="1" stroke-opacity="0"></use></g></g><g visibility="inherit"><use xlink:href="#k1unRTwYYk" opacity="1" fill="#febe28" fill-opacity="1"></use><g><use xlink:href="#k1unRTwYYk" opacity="1" fill-opacity="0" stroke="#000000" stroke-width="1" stroke-opacity="0"></use></g></g><g visibility="inherit"><use xlink:href="#d1xA1H7b4u" opacity="1" fill="#febe28" fill-opacity="1"></use><g><use xlink:href="#d1xA1H7b4u" opacity="1" fill-opacity="0" stroke="#000000" stroke-width="1" stroke-opacity="0"></use></g></g></g></svg>