<?xml version="1.0" encoding="UTF-8" standalone="no"?>
<!DOCTYPE svg PUBLIC "-//W3C//DTD SVG 1.1//EN" "http://www.w3.org/Graphics/SVG/1.1/DTD/svg11.dtd">
<svg version="1.1" xmlns="http://www.w3.org/2000/svg" xmlns:xlink="http://www.w3.org/1999/xlink" preserveAspectRatio="xMidYMid meet" viewBox="145.58758289826443 33.58758289826442 348.8248342034712 348.8248342034712"><defs><path d="M210.03 361.96C210.01 361.96 210 361.97 210 361.97C195.13 362.8 181.18 357.11 173.42 345.3C165.7 333.47 166.09 318.41 172.81 305.12C172.81 305.12 172.82 305.11 172.83 305.09C173.25 304.03 173.49 303.45 173.53 303.33C173.65 302.83 173.57 302.46 173.36 301.97C173.1 301.31 172.52 300.94 171.86 300.69C171.14 300.42 165.38 298.29 164.66 298.02C163.5 297.59 162.28 297.95 161.67 298.97C161.61 299.11 161.32 299.82 160.8 301.09C160.83 301.11 160.85 301.12 160.85 301.13C153.05 317.88 153.22 336.91 163.1 352.07C163.1 352.07 163.1 352.07 163.1 352.07C173.03 367.2 190.4 374.98 208.88 374.54C208.88 374.54 208.88 374.55 208.88 374.58C210.25 374.61 211.02 374.63 211.17 374.63C212.35 374.49 213.17 373.51 213.24 372.28C213.28 371.51 213.63 365.38 213.67 364.61C213.71 363.91 213.6 363.23 213.11 362.72C212.74 362.34 212.44 362.12 211.94 362.02C211.68 362.01 211.05 361.99 210.03 361.96Z" id="a3keczYwKl"></path><path d="M213.11 338.96C213.05 338.95 212.97 338.95 212.89 338.96C205.54 339.64 198.63 336.99 194.88 331.27C191.15 325.55 191.48 318.15 195.05 311.69C195.09 311.62 195.12 311.55 195.14 311.49C195.2 311.34 195.67 310.14 195.73 310C195.84 309.51 195.77 309.16 195.57 308.69C195.31 308.06 194.76 307.7 194.12 307.47C193.43 307.21 187.89 305.16 187.2 304.9C186.09 304.48 184.91 304.84 184.32 305.82C184.27 305.95 183.99 306.63 183.48 307.86C183.48 307.86 183.48 307.86 183.48 307.86C178.89 317.67 178.99 328.9 184.83 337.85C184.83 337.85 184.83 337.85 184.83 337.85C190.7 346.79 200.93 351.38 211.78 351.1C211.78 351.1 211.78 351.1 211.78 351.1C213.1 351.13 213.84 351.15 213.98 351.16C215.12 351.01 215.91 350.07 215.97 348.89C216.02 348.15 216.35 342.25 216.39 341.52C216.43 340.84 216.33 340.18 215.85 339.7C215.5 339.32 215.21 339.1 214.72 339.02C214.4 339.01 213.28 338.97 213.11 338.96Z" id="fBuIqh3UO"></path><path d="M320.64 267.97L319.92 268.64L319.17 269.25L318.38 269.79L317.57 270.28L316.73 270.7L315.86 271.07L314.98 271.37L314.09 271.61L313.18 271.79L312.27 271.91L311.35 271.97L310.43 271.97L309.51 271.91L308.59 271.79L307.69 271.6L306.79 271.36L305.91 271.05L305.05 270.69L304.21 270.26L303.4 269.78L302.62 269.23L301.86 268.62L301.15 267.95L296.77 263.56L298.51 266.41L300.15 269.27L301.69 272.15L303.12 275.03L304.45 277.91L305.66 280.78L306.76 283.65L307.74 286.5L308.6 289.32L309.33 292.12L309.93 294.89L310.41 297.61L310.75 300.3L310.95 302.93L311.01 305.5L310.92 308.02L310.69 310.46L310.3 312.83L309.76 315.13L309.06 317.34L308.2 319.46L307.18 321.48L305.99 323.4L305.78 323.71L305.59 323.99L305.4 324.26L305.23 324.5L305.07 324.74L304.91 324.96L304.76 325.17L304.62 325.36L304.47 325.55L304.33 325.73L304.19 325.91L304.06 326.08L303.91 326.26L303.77 326.43L303.62 326.6L303.47 326.77L303.31 326.95L303.14 327.14L302.96 327.33L302.77 327.53L302.57 327.75L302.35 327.97L302.12 328.22L300.79 329.38L299.27 330.32L297.57 331.04L295.69 331.54L293.65 331.83L291.46 331.9L289.12 331.77L286.65 331.43L284.05 330.9L281.33 330.17L278.5 329.25L275.58 328.14L272.56 326.85L269.47 325.38L266.3 323.73L263.08 321.91L259.8 319.93L256.48 317.78L253.13 315.47L249.75 313.01L246.36 310.39L242.96 307.63L239.56 304.72L227.69 314.54L227.88 315.16L228.05 315.79L228.18 316.42L228.29 317.06L228.37 317.7L228.41 318.35L228.43 318.99L228.42 319.64L228.38 320.28L228.31 320.92L228.21 321.56L228.07 322.19L227.91 322.82L227.72 323.44L227.5 324.06L227.25 324.66L226.96 325.26L226.65 325.84L226.31 326.41L225.93 326.97L225.53 327.52L225.09 328.04L224.63 328.56L223.92 329.25L223.17 329.88L222.39 330.44L221.58 330.95L220.75 331.4L219.89 331.79L219.02 332.11L218.12 332.38L217.22 332.58L216.3 332.72L215.38 332.8L214.46 332.82L213.53 332.78L212.61 332.68L211.7 332.51L210.79 332.29L209.9 332L209.03 331.65L208.18 331.24L207.35 330.77L206.55 330.23L205.78 329.63L205.04 328.97L204.35 328.26L203.72 327.52L203.15 326.74L202.64 325.93L202.19 325.1L201.81 324.24L201.48 323.36L201.22 322.47L201.01 321.56L200.87 320.65L200.79 319.73L200.77 318.8L200.81 317.88L200.92 316.96L201.08 316.04L201.31 315.14L201.59 314.25L201.94 313.38L202.36 312.53L202.83 311.7L203.36 310.9L203.96 310.12L204.62 309.38L205.11 308.9L205.62 308.44L206.14 308.02L206.68 307.62L207.24 307.25L207.81 306.92L208.39 306.61L208.98 306.33L209.58 306.08L210.19 305.87L210.81 305.68L211.43 305.52L212.06 305.39L212.7 305.29L213.34 305.22L213.98 305.18L214.62 305.17L215.26 305.19L215.9 305.24L216.54 305.31L217.18 305.42L217.81 305.55L218.44 305.72L227.77 293.4L224.76 290.15L221.89 286.89L219.17 283.63L216.6 280.38L214.18 277.15L211.93 273.95L209.83 270.78L207.91 267.66L206.16 264.59L204.58 261.59L203.19 258.66L201.98 255.8L200.96 253.04L200.13 250.38L199.5 247.83L199.07 245.39L198.85 243.08L198.84 240.9L199.05 238.87L199.47 236.99L200.11 235.27L200.99 233.72L202.09 232.35L203.45 230.89L204.85 229.53L206.33 228.28L207.89 227.12L209.52 226.07L211.23 225.13L213.01 224.29L214.86 223.55L216.76 222.91L218.72 222.38L220.74 221.95L222.81 221.63L224.93 221.4L227.09 221.29L229.29 221.27L231.53 221.36L233.8 221.55L236.1 221.84L238.42 222.24L240.77 222.74L243.13 223.35L245.51 224.05L247.9 224.86L250.3 225.77L251 226.06L251.68 226.34L252.37 226.62L253.04 226.91L253.72 227.19L254.39 227.48L255.06 227.77L255.73 228.07L256.4 228.37L257.07 228.69L257.74 229.01L258.42 229.34L259.1 229.69L259.78 230.05L260.48 230.42L261.18 230.82L261.89 231.23L262.61 231.65L263.34 232.1L264.08 232.57L264.84 233.06L265.61 233.58L266.39 234.12L266.53 234.21L266.67 234.29L266.8 234.38L266.94 234.47L267.08 234.56L267.21 234.65L267.34 234.74L267.48 234.83L267.61 234.92L267.74 235.01L267.88 235.11L268.01 235.2L268.14 235.29L268.27 235.38L268.4 235.47L268.53 235.57L268.67 235.66L268.8 235.75L268.93 235.84L269.06 235.93L269.2 236.02L269.33 236.12L269.47 236.2L260.06 226.77L259.39 226.05L258.78 225.3L258.24 224.51L257.75 223.7L257.33 222.86L256.96 222L256.66 221.12L256.42 220.22L256.24 219.31L256.12 218.4L256.06 217.48L256.06 216.56L256.12 215.64L256.24 214.72L256.43 213.82L256.67 212.92L256.97 212.04L257.34 211.18L257.77 210.35L258.25 209.53L258.8 208.75L259.41 208L260.08 207.28L319.46 148.03L320.18 147.37L320.93 146.76L321.72 146.21L322.53 145.73L323.37 145.3L324.24 144.94L325.12 144.64L326.01 144.39L326.92 144.21L327.83 144.09L328.75 144.03L329.67 144.03L330.59 144.1L331.51 144.22L332.41 144.4L333.31 144.65L334.19 144.95L335.05 145.32L335.89 145.74L336.7 146.23L337.48 146.78L338.24 147.39L338.95 148.06L380.03 189.23L380.7 189.95L381.31 190.71L381.85 191.49L382.34 192.31L382.76 193.15L383.13 194.01L383.43 194.89L383.67 195.79L383.85 196.69L383.97 197.61L384.03 198.53L384.03 199.45L383.97 200.37L383.85 201.28L383.66 202.19L383.42 203.08L383.11 203.96L382.75 204.82L382.32 205.66L381.83 206.47L381.29 207.26L380.68 208.01L380.01 208.73L356.86 231.82L369.46 244.42L384.19 229.72L384.65 229.28L385.12 228.86L385.6 228.46L386.1 228.07L386.6 227.7L387.12 227.35L387.65 227.02L388.18 226.7L388.73 226.41L389.29 226.14L389.85 225.88L390.42 225.64L391 225.43L391.59 225.23L392.19 225.05L392.79 224.9L393.4 224.76L394.02 224.64L394.64 224.55L395.26 224.47L395.89 224.42L396.53 224.39L397.17 224.38L397.81 224.39L398.44 224.42L399.08 224.47L399.71 224.55L400.33 224.64L400.95 224.76L401.56 224.9L402.16 225.06L402.76 225.23L403.35 225.43L403.94 225.65L404.51 225.89L405.08 226.15L405.64 226.42L406.18 226.72L406.72 227.03L407.25 227.37L407.77 227.72L408.27 228.09L408.77 228.48L409.25 228.89L409.72 229.32L410.18 229.76L489.07 308.84L489.51 309.3L489.94 309.77L490.34 310.25L490.73 310.75L491.1 311.25L491.45 311.77L491.78 312.3L492.09 312.84L492.39 313.38L492.66 313.94L492.92 314.51L493.16 315.08L493.37 315.66L493.57 316.25L493.75 316.85L493.9 317.46L494.04 318.07L494.15 318.68L494.25 319.3L494.32 319.93L494.37 320.56L494.4 321.2L494.41 321.84L494.4 322.48L494.37 323.11L494.31 323.74L494.24 324.37L494.14 324.99L494.03 325.61L493.89 326.22L493.73 326.82L493.55 327.42L493.35 328.01L493.14 328.59L492.9 329.17L492.64 329.73L492.36 330.29L492.07 330.83L491.75 331.37L491.42 331.9L491.07 332.42L490.7 332.92L490.31 333.42L489.9 333.9L489.47 334.37L489.03 334.83L446.69 377.06L446.23 377.51L445.76 377.93L445.28 378.34L444.79 378.72L444.28 379.09L443.76 379.44L443.24 379.77L442.7 380.09L442.15 380.38L441.6 380.66L441.03 380.91L440.46 381.15L439.88 381.37L439.29 381.56L438.69 381.74L438.09 381.9L437.48 382.03L436.86 382.15L436.24 382.24L435.62 382.32L434.99 382.37L434.35 382.4L433.71 382.41L433.07 382.4L432.43 382.37L431.8 382.32L431.17 382.24L430.55 382.15L429.93 382.03L429.32 381.89L428.72 381.74L428.12 381.56L427.53 381.36L426.94 381.14L426.37 380.91L425.8 380.65L425.24 380.37L424.7 380.08L424.16 379.76L423.63 379.43L423.11 379.08L422.61 378.7L422.11 378.31L421.63 377.91L421.16 377.48L420.7 377.04L341.82 297.96L341.38 297.5L340.95 297.03L340.55 296.54L340.16 296.05L339.79 295.54L339.44 295.03L339.1 294.5L338.79 293.96L338.5 293.41L338.22 292.86L337.96 292.29L337.73 291.72L337.51 291.13L337.31 290.54L337.14 289.95L336.98 289.34L336.84 288.73L336.73 288.12L336.63 287.49L336.56 286.87L336.51 286.24L336.48 285.6L336.47 284.96L336.48 284.32L336.51 283.68L336.56 283.05L336.64 282.42L336.74 281.8L336.85 281.19L336.99 280.58L337.15 279.97L337.33 279.37L337.53 278.78L337.74 278.2L337.98 277.63L338.24 277.06L338.52 276.51L338.81 275.96L339.13 275.42L339.46 274.9L339.81 274.38L340.18 273.87L340.57 273.38L340.98 272.9L341.4 272.43L341.85 271.97L356.45 257.4L343.86 244.81L350.29 238.4L343.86 244.81L343.86 244.81L320.64 267.97ZM427.21 370.55L428.32 371.48L429.55 372.2L430.88 372.72L432.28 373.03L433.7 373.14L435.13 373.04L436.53 372.73L437.86 372.21L439.09 371.49L440.2 370.56L482.54 328.32L483.04 327.79L483.49 327.22L483.88 326.62L484.23 326L484.53 325.35L484.78 324.68L484.97 323.99L485.12 323.29L485.2 322.56L485.23 321.83L485.21 321.09L485.12 320.37L484.99 319.66L484.79 318.97L484.55 318.3L484.25 317.65L483.9 317.03L483.51 316.43L483.06 315.86L482.57 315.33L470.94 303.67L415.65 358.96L427.21 370.55ZM409.16 352.46L464.45 297.17L446.33 279.01L391.05 334.3L409.16 352.46ZM384.55 327.79L439.84 272.5L421.72 254.34L366.44 309.63L384.55 327.79ZM210.2 240.12L209 242.27L208.71 245.14L209.29 248.67L210.71 252.78L212.9 257.39L215.82 262.42L219.44 267.79L223.7 273.43L228.56 279.26L233.97 285.21L244.64 271.12L245.43 270.51L246.39 270.13L247.5 269.98L248.72 270.04L250.04 270.32L251.42 270.79L252.85 271.47L254.28 272.33L255.71 273.38L257.1 274.6L257.12 274.61L258.39 275.95L259.5 277.33L260.42 278.73L261.16 280.13L261.69 281.49L262.02 282.79L262.14 284.01L262.03 285.12L261.69 286.1L261.11 286.92L247.47 298.19L253.7 303.42L259.79 308.1L265.66 312.19L271.24 315.63L276.45 318.39L281.2 320.43L285.41 321.7L289 322.15L291.89 321.75L294 320.44L295.29 318L295.44 314.67L294.52 310.54L292.6 305.73L289.73 300.34L285.98 294.48L281.41 288.25L276.08 281.77L270.07 275.15L263.42 268.48L256.47 262.12L249.6 256.39L242.9 251.34L236.49 247.04L230.48 243.54L224.97 240.9L220.08 239.18L215.92 238.44L212.59 238.73L210.2 240.12ZM395.71 233.68L395.01 233.82L394.32 234.01L393.65 234.26L393 234.55L392.38 234.9L391.78 235.3L391.21 235.74L390.68 236.23L348.33 278.47L347.84 279.01L347.39 279.58L346.99 280.17L346.65 280.79L346.35 281.44L346.1 282.11L345.91 282.8L345.77 283.51L345.68 284.23L345.65 284.97L345.68 285.7L345.76 286.42L345.9 287.13L346.1 287.82L346.34 288.49L346.64 289.14L346.98 289.77L347.38 290.37L347.83 290.93L348.32 291.47L359.94 303.13L415.23 247.84L403.67 236.25L403.13 235.76L402.57 235.31L401.97 234.91L401.35 234.56L400.7 234.26L400.03 234.01L399.33 233.82L398.63 233.68L397.9 233.6L397.17 233.57L396.43 233.6L395.71 233.68Z" id="pr7ddZi5V"></path><path d="M209.09 33.81L210.51 34.09L211.88 34.48L213.22 34.97L214.52 35.56L215.77 36.26L216.96 37.05L218.1 37.95L219.17 38.94L298.25 117.81L299.24 118.88L300.14 120.02L300.94 121.21L301.64 122.46L302.24 123.76L302.73 125.1L303.12 126.48L303.4 127.89L303.57 129.33L303.63 130.8L303.58 132.26L303.41 133.71L303.13 135.12L302.75 136.5L302.26 137.85L301.66 139.14L300.96 140.39L300.17 141.59L299.27 142.73L298.28 143.8L283.58 158.53L296.19 171.14L283.2 184.14L270.6 171.55L256.04 186.15L254.96 187.15L253.83 188.04L252.63 188.84L251.38 189.55L250.08 190.14L248.74 190.64L247.35 191.03L245.94 191.31L244.49 191.48L243.02 191.53L241.56 191.48L240.12 191.31L238.71 191.03L237.33 190.64L235.99 190.15L234.69 189.56L233.44 188.86L232.25 188.07L231.11 187.17L230.04 186.19L150.97 107.3L149.98 106.23L149.08 105.1L148.28 103.9L147.58 102.65L146.98 101.35L146.49 100.01L146.1 98.63L145.82 97.22L145.65 95.78L145.59 94.31L145.64 92.85L145.81 91.4L146.08 89.99L146.47 88.61L146.96 87.26L147.56 85.97L148.25 84.72L149.05 83.52L149.94 82.38L150.94 81.31L193.17 38.97L194.25 37.98L195.38 37.08L196.58 36.28L197.83 35.58L199.13 34.98L200.48 34.48L201.86 34.09L203.27 33.81L204.72 33.64L206.19 33.59L207.65 33.64L209.09 33.81ZM236.54 179.68L237.65 180.61L238.88 181.33L240.22 181.85L241.61 182.16L243.04 182.26L244.46 182.16L245.86 181.84L247.19 181.33L248.42 180.6L249.53 179.67L291.77 137.33L292.26 136.79L292.71 136.22L293.11 135.62L293.45 135L293.75 134.35L294 133.68L294.19 132.99L294.33 132.28L294.41 131.56L294.44 130.82L294.41 130.09L294.32 129.37L294.18 128.66L293.99 127.97L293.74 127.3L293.44 126.65L293.09 126.03L292.7 125.43L292.25 124.86L291.75 124.33L280.17 112.77L224.88 168.06L236.54 179.68ZM218.37 161.56L273.66 106.28L255.5 88.16L200.21 143.44L218.37 161.56ZM193.71 136.96L249 81.67L230.84 63.55L175.55 118.84L193.71 136.96ZM204.73 42.89L204.02 43.03L203.33 43.22L202.65 43.47L202 43.76L201.38 44.11L200.78 44.51L200.21 44.96L199.68 45.46L157.44 87.8L156.95 88.33L156.5 88.9L156.1 89.5L155.76 90.12L155.46 90.77L155.22 91.44L155.02 92.14L154.89 92.84L154.8 93.57L154.77 94.3L154.8 95.03L154.89 95.76L155.03 96.46L155.22 97.15L155.47 97.83L155.77 98.47L156.11 99.1L156.51 99.69L156.96 100.26L157.45 100.79L169.04 112.35L224.33 57.07L212.67 45.44L212.14 44.95L211.57 44.5L210.98 44.1L210.35 43.76L209.71 43.46L209.04 43.22L208.35 43.02L207.64 42.89L206.92 42.8L206.19 42.77L205.45 42.8L204.73 42.89Z" id="ckRKDX14"></path></defs><g visibility="inherit"><g visibility="inherit"><use xlink:href="#a3keczYwKl" opacity="1" fill="#5bc0de" fill-opacity="1"></use><g><use xlink:href="#a3keczYwKl" opacity="1" fill-opacity="0" stroke="#000000" stroke-width="1" stroke-opacity="0"></use></g></g><g visibility="inherit"><use xlink:href="#fBuIqh3UO" opacity="1" fill="#5bc0de" fill-opacity="1"></use><g><use xlink:href="#fBuIqh3UO" opacity="1" fill-opacity="0" stroke="#000000" stroke-width="1" stroke-opacity="0"></use></g></g><g visibility="inherit"><use xlink:href="#pr7ddZi5V" opacity="1" fill="#5bc0de" fill-opacity="1"></use><g><use xlink:href="#pr7ddZi5V" opacity="1" fill-opacity="0" stroke="#000000" stroke-width="1" stroke-opacity="0"></use></g></g><g visibility="inherit"><use xlink:href="#ckRKDX14" opacity="1" fill="#5bc0de" fill-opacity="1"></use><g><use xlink:href="#ckRKDX14" opacity="1" fill-opacity="0" stroke="#000000" stroke-width="1" stroke-opacity="0"></use></g></g></g></svg>