<?xml version="1.0" encoding="UTF-8" standalone="no"?>
<!DOCTYPE svg PUBLIC "-//W3C//DTD SVG 1.1//EN" "http://www.w3.org/Graphics/SVG/1.1/DTD/svg11.dtd">
<svg version="1.1" xmlns="http://www.w3.org/2000/svg" xmlns:xlink="http://www.w3.org/1999/xlink" preserveAspectRatio="xMidYMid meet" viewBox="215.98068795610442 23.953633799725683 224.1008898216735 284.471298436214"><defs><path d="M431.74 24L432.17 24.09L432.58 24.22L432.98 24.38L433.37 24.58L433.74 24.8L434.08 25.06L434.41 25.35L434.71 25.66L434.98 25.99L435.23 26.34L435.45 26.71L435.63 27.1L435.78 27.5L435.89 27.91L438.04 39.33L439.43 50.68L440.08 61.94L440.02 73.1L439.27 84.14L437.85 95.05L435.79 105.82L433.11 116.43L429.82 126.87L425.97 137.12L421.55 147.17L416.61 157L411.16 166.6L405.23 175.96L398.84 185.07L392 193.9L384.76 202.45L377.12 210.69L376.86 210.97L376.62 211.26L376.39 211.56L376.18 211.86L375.99 212.17L375.81 212.49L375.65 212.81L375.5 213.14L375.38 213.47L375.27 213.81L375.17 214.16L375.1 214.51L375.04 214.87L375 215.23L374.97 215.6L374.97 215.98L374.98 216.35L375 216.74L375.26 219.39L375.52 222.05L375.78 224.71L376.04 227.37L376.29 230.01L376.52 232.64L376.73 235.23L376.92 237.79L377.09 240.31L377.22 242.78L377.31 245.19L377.36 247.54L377.37 249.81L377.32 252L377.22 254.11L377.06 256.12L376.83 258.03L376.54 259.83L375.7 263.27L374.5 266.64L373 269.92L371.2 273.13L369.14 276.25L366.85 279.28L364.36 282.22L361.69 285.06L358.88 287.8L355.95 290.44L352.94 292.97L349.88 295.39L346.78 297.69L343.68 299.87L340.62 301.93L337.61 303.86L334.69 305.66L331.89 307.32L331.34 307.61L330.78 307.86L330.21 308.06L329.63 308.22L329.05 308.33L328.46 308.4L327.88 308.42L327.29 308.41L326.71 308.34L326.14 308.24L325.58 308.09L325.02 307.9L324.48 307.66L323.96 307.39L323.45 307.07L322.96 306.71L322.5 306.32L322.06 305.88L322.02 305.84L321.98 305.8L321.95 305.76L321.91 305.72L321.88 305.68L321.84 305.65L321.8 305.61L321.69 305.48L321.65 305.44L321.61 305.4L321.57 305.35L321.53 305.31L321.48 305.27L321.44 305.22L321.4 305.17L321.36 305.13L323.88 302.9L326.25 300.58L328.47 298.19L330.51 295.73L332.36 293.19L334 290.58L335.44 287.9L336.64 285.15L337.61 282.33L338.32 279.46L338.76 276.52L338.92 273.52L338.79 270.47L338.35 267.36L337.59 264.2L336.49 260.99L335.05 257.72L333.24 254.42L333.1 254.19L332.95 253.98L332.8 253.77L332.64 253.57L332.47 253.38L332.3 253.21L332.11 253.04L331.92 252.88L331.73 252.72L331.53 252.58L331.32 252.45L331.1 252.33L330.88 252.21L330.65 252.11L330.41 252.01L330.17 251.92L329.92 251.85L329.67 251.78L329.41 251.72L329.15 251.68L328.9 251.64L328.65 251.62L328.39 251.61L328.14 251.61L327.89 251.62L327.65 251.64L327.4 251.67L327.16 251.72L326.92 251.78L326.68 251.84L326.44 251.92L326.21 252.01L325.97 252.12L325.74 252.23L325.51 252.35L325.29 252.49L324.07 253.25L322.86 254L321.64 254.75L320.43 255.5L319.22 256.25L318.01 257L316.8 257.75L315.59 258.5L314.38 259.25L313.18 260L311.97 260.75L310.76 261.5L309.55 262.26L308.35 263.02L307.14 263.78L305.93 264.55L304.72 265.32L303.51 266.1L303.28 266.24L303.05 266.37L302.81 266.49L302.58 266.6L302.34 266.69L302.09 266.78L301.85 266.85L301.6 266.91L301.35 266.95L301.1 266.99L300.85 267.01L300.59 267.03L300.34 267.03L300.08 267.02L299.82 266.99L299.56 266.96L299.29 266.91L299.03 266.85L296.79 266.27L294.59 265.65L292.43 264.98L290.3 264.27L288.22 263.5L286.18 262.68L284.19 261.8L282.25 260.86L280.36 259.86L278.53 258.79L276.75 257.66L275.02 256.45L273.36 255.17L271.77 253.82L270.23 252.38L268.77 250.86L267.37 249.26L266.05 247.57L265.9 247.36L265.76 247.15L265.63 246.94L265.51 246.72L265.41 246.5L265.31 246.28L265.22 246.05L265.15 245.82L265.08 245.59L265.03 245.36L264.98 245.12L264.95 244.88L264.93 244.64L264.92 244.4L264.91 244.15L264.92 243.9L264.94 243.65L264.97 243.39L265.18 241.88L265.38 240.36L265.58 238.84L265.78 237.33L265.98 235.81L266.18 234.29L266.38 232.77L266.58 231.26L266.78 229.74L266.98 228.22L267.18 226.7L267.38 225.19L267.58 223.67L267.79 222.15L267.99 220.63L268.2 219.12L268.41 217.6L268.62 216.09L268.6 215.75L268.58 215.43L268.55 215.12L268.51 214.82L268.47 214.53L268.42 214.25L268.37 213.99L268.32 213.73L268.26 213.48L268.19 213.25L268.12 213.03L268.04 212.81L267.96 212.61L267.88 212.42L267.78 212.24L267.69 212.07L267.59 211.92L267.48 211.77L267.31 211.56L267.14 211.37L266.96 211.18L266.77 211L266.58 210.84L266.39 210.68L266.18 210.53L265.97 210.4L265.76 210.27L265.54 210.15L265.32 210.05L265.08 209.95L264.85 209.86L264.61 209.79L264.36 209.72L264.1 209.67L263.85 209.62L263.58 209.59L259.83 209.32L256.26 209.36L252.89 209.69L249.7 210.31L246.69 211.2L243.85 212.34L241.19 213.73L238.7 215.35L236.38 217.19L234.22 219.23L232.22 221.46L230.37 223.88L228.68 226.46L227.14 229.19L225.74 232.07L224.48 235.07L223.36 238.19L222.37 241.41L222.31 241.39L222.25 241.37L222.2 241.35L222.14 241.33L222.08 241.31L222.02 241.29L221.97 241.27L221.91 241.25L221.75 241.2L221.7 241.18L221.65 241.16L221.6 241.15L221.55 241.13L221.5 241.11L221.45 241.1L221.4 241.08L220.82 240.86L220.27 240.6L219.74 240.31L219.24 239.98L218.77 239.61L218.34 239.22L217.93 238.79L217.56 238.34L217.23 237.86L216.93 237.36L216.67 236.83L216.45 236.29L216.27 235.73L216.13 235.15L216.04 234.56L215.99 233.96L215.98 233.35L216.02 232.73L216.38 229.49L216.81 226.08L217.32 222.55L217.92 218.9L218.63 215.18L219.44 211.41L220.37 207.62L221.42 203.83L222.61 200.07L223.94 196.38L225.43 192.78L227.07 189.29L228.88 185.95L230.87 182.78L233.04 179.82L235.41 177.08L237.98 174.61L240.76 172.42L242.25 171.42L243.87 170.43L245.61 169.47L247.45 168.52L249.39 167.58L251.43 166.66L253.54 165.75L255.74 164.85L258 163.96L260.31 163.08L262.68 162.2L265.09 161.33L267.53 160.47L270 159.61L272.49 158.76L274.98 157.91L277.47 157.06L279.96 156.2L280.33 156.07L280.68 155.92L281.02 155.76L281.35 155.58L281.67 155.39L281.97 155.18L282.27 154.96L282.55 154.73L282.81 154.48L283.07 154.22L283.31 153.95L283.54 153.66L283.75 153.36L283.96 153.05L284.14 152.73L284.32 152.39L284.48 152.05L284.62 151.69L288.89 141.19L293.58 131.06L298.7 121.31L304.25 111.94L310.25 102.97L316.68 94.38L323.57 86.2L330.9 78.42L338.69 71.06L346.94 64.11L355.66 57.58L364.84 51.47L374.49 45.8L384.62 40.56L395.22 35.77L406.31 31.42L417.89 27.53L429.96 24.09L430.41 24L430.86 23.95L431.3 23.96L431.74 24ZM361.08 87.54L356.93 88.7L353.27 90.26L350.11 92.21L347.45 94.57L345.3 97.34L342.85 101.91L341.21 106.69L340.36 111.59L340.28 116.5L340.95 121.35L342.34 126.04L344.45 130.49L347.26 134.59L350.73 138.26L354.85 141.41L359.43 143.86L364.21 145.5L369.1 146.35L374.02 146.43L378.87 145.76L383.56 144.36L388 142.25L392.11 139.45L395.78 135.98L398.93 131.86L401.38 127.28L403.02 122.5L403.87 117.61L403.95 112.69L403.28 107.84L401.88 103.15L399.77 98.71L396.97 94.61L393.5 90.94L389.37 87.78L382.71 86.93L376.56 86.48L370.9 86.44L365.74 86.79L361.08 87.54Z" id="cLww634xH"></path></defs><g visibility="inherit"><g visibility="inherit"><use xlink:href="#cLww634xH" opacity="1" fill="#f1675e" fill-opacity="1"></use><g><use xlink:href="#cLww634xH" opacity="1" fill-opacity="0" stroke="#000000" stroke-width="1" stroke-opacity="0"></use></g></g></g></svg>