<?xml version="1.0" encoding="UTF-8" standalone="no"?>
<!DOCTYPE svg PUBLIC "-//W3C//DTD SVG 1.1//EN" "http://www.w3.org/Graphics/SVG/1.1/DTD/svg11.dtd">
<svg version="1.1" xmlns="http://www.w3.org/2000/svg" xmlns:xlink="http://www.w3.org/1999/xlink" preserveAspectRatio="xMidYMid meet" viewBox="98.94399999999999 87.08266666666665 442.1546666666667 337.856"><defs><path d="M269.33 171L270.39 171.27L271.43 171.66L272.43 172.16L403.73 246.83L404.69 247.44L405.56 248.14L406.35 248.92L407.05 249.77L407.65 250.69L408.16 251.67L408.56 252.7L408.85 253.77L409.03 254.87L409.09 256L409.03 257.13L408.85 258.23L408.56 259.3L408.16 260.33L407.66 261.31L407.06 262.23L406.36 263.08L405.58 263.86L404.71 264.56L403.75 265.17L272.45 339.84L271.96 340.11L271.45 340.34L270.94 340.55L270.42 340.73L269.9 340.89L269.37 341.01L268.83 341.1L268.3 341.17L267.76 341.21L267.22 341.23L266.67 341.21L266.12 341.17L265.58 341.1L265.03 341L264.49 340.87L263.96 340.72L263.43 340.53L262.92 340.31L262.41 340.07L261.91 339.8L260.97 339.18L260.12 338.48L259.35 337.7L258.66 336.84L258.07 335.93L257.57 334.96L257.18 333.94L256.9 332.88L256.72 331.78L256.66 330.67L256.66 181.33L256.72 180.22L256.9 179.12L257.18 178.06L257.57 177.05L258.07 176.07L258.66 175.16L259.35 174.31L260.12 173.53L260.97 172.83L261.91 172.22L262.9 171.71L263.93 171.31L264.99 171.02L266.07 170.85L267.16 170.78L268.25 170.83L269.33 171ZM377.17 256L277.78 199.49L277.78 312.51L377.17 256Z" id="a3M7hMp9AJ"></path><path d="M531.65 87.14L532.21 87.22L532.76 87.33L533.3 87.46L533.83 87.62L534.35 87.81L534.85 88.02L535.35 88.26L535.82 88.52L536.29 88.81L536.73 89.12L537.16 89.45L537.57 89.8L537.97 90.17L538.34 90.56L538.69 90.97L539.03 91.4L539.34 91.85L539.63 92.31L539.89 92.78L540.13 93.28L540.35 93.78L540.54 94.3L540.7 94.83L540.84 95.37L540.95 95.93L541.03 96.49L541.08 97.06L541.1 97.64L541.1 414.38L541.08 414.96L541.04 415.53L540.96 416.09L540.85 416.64L540.72 417.18L540.56 417.71L540.37 418.23L540.16 418.74L539.92 419.23L539.66 419.7L539.37 420.17L539.06 420.61L538.73 421.04L538.38 421.45L538 421.84L537.61 422.22L537.2 422.57L536.77 422.9L536.33 423.21L535.86 423.5L535.39 423.76L534.9 424L534.39 424.21L533.87 424.4L533.34 424.56L532.8 424.69L532.25 424.8L531.69 424.88L531.12 424.92L530.54 424.94L109.5 424.94L108.93 424.92L108.35 424.88L107.79 424.8L107.24 424.69L106.7 424.56L106.17 424.4L105.65 424.21L105.15 424L104.65 423.76L104.18 423.5L103.72 423.21L103.27 422.9L102.84 422.57L102.43 422.22L102.04 421.84L101.67 421.45L101.32 421.04L100.98 420.61L100.67 420.17L100.39 419.7L100.12 419.23L99.89 418.74L99.67 418.23L99.48 417.71L99.32 417.18L99.19 416.64L99.08 416.09L99.01 415.53L98.96 414.96L98.94 414.38L98.94 97.64L98.96 97.06L99.01 96.49L99.08 95.93L99.19 95.38L99.32 94.84L99.48 94.31L99.67 93.79L99.89 93.28L100.12 92.79L100.39 92.32L100.67 91.85L100.98 91.41L101.32 90.98L101.67 90.57L102.04 90.18L102.43 89.81L102.84 89.45L103.27 89.12L103.72 88.81L104.18 88.53L104.65 88.26L105.15 88.02L105.65 87.81L106.17 87.62L106.7 87.46L107.24 87.33L107.79 87.22L108.35 87.14L108.93 87.1L109.5 87.08L530.5 87.08L531.07 87.1L531.65 87.14ZM488.34 403.82L519.94 403.82L519.94 372.14L488.34 372.14L488.34 403.82ZM382.93 403.82L414.53 403.82L414.53 372.14L382.93 372.14L382.93 403.82ZM278.19 403.82L309.12 403.82L309.12 372.14L278.19 372.14L278.19 403.82ZM172.76 403.82L204.35 403.82L204.35 372.14L172.76 372.14L172.76 403.82ZM120.06 403.82L151.66 403.82L151.66 372.14L120.06 372.14L120.06 403.82ZM225.47 403.82L257.07 403.82L257.07 372.14L225.47 372.14L225.47 403.82ZM330.88 403.82L361.81 403.82L361.81 372.14L330.88 372.14L330.88 403.82ZM435.65 403.82L467.24 403.82L467.24 372.14L435.65 372.14L435.65 403.82ZM120.06 351.02L520 351.02L520 160.98L120.06 160.98L120.06 351.02ZM488.34 139.86L519.94 139.86L519.94 108.18L488.34 108.18L488.34 139.86ZM120.06 139.86L151.66 139.86L151.66 108.18L120.06 108.18L120.06 139.86ZM225.47 139.86L257.07 139.86L257.07 108.18L225.47 108.18L225.47 139.86ZM330.88 139.86L361.81 139.86L361.81 108.18L330.88 108.18L330.88 139.86ZM435.65 139.86L467.24 139.86L467.24 108.18L435.65 108.18L435.65 139.86ZM382.93 139.86L414.53 139.86L414.53 108.18L382.93 108.18L382.93 139.86ZM278.19 139.86L309.12 139.86L309.12 108.18L278.19 108.18L278.19 139.86ZM172.76 139.86L204.35 139.86L204.35 108.18L172.76 108.18L172.76 139.86Z" id="c2y8ThTFIR"></path></defs><g visibility="inherit"><g visibility="inherit"><use xlink:href="#a3M7hMp9AJ" opacity="0.36" fill="#000000" fill-opacity="1"></use><g><use xlink:href="#a3M7hMp9AJ" opacity="0.36" fill-opacity="0" stroke="#000000" stroke-width="1" stroke-opacity="0"></use></g></g><g visibility="inherit"><use xlink:href="#c2y8ThTFIR" opacity="0.36" fill="#000000" fill-opacity="1"></use><g><use xlink:href="#c2y8ThTFIR" opacity="0.36" fill-opacity="0" stroke="#000000" stroke-width="1" stroke-opacity="0"></use></g></g></g></svg>